{"glyphs":{"0":{"ha":735,"x_min":36,"x_max":704,"o":"m 363 -19 q 218 19 279 -19 q 116 123 157 58 q 56 265 75 188 q 36 419 36 343 q 56 579 36 499 q 117 727 75 660 q 224 835 158 794 q 378 876 289 876 q 523 838 461 876 q 624 734 585 799 q 684 592 664 669 q 704 440 704 515 q 685 281 704 361 q 624 132 665 200 q 519 22 583 64 q 363 -19 454 -19 m 383 43 q 455 95 428 43 q 494 232 482 147 q 507 415 507 317 q 497 560 507 489 q 468 688 488 631 q 421 780 449 746 q 356 814 393 814 q 285 762 311 814 q 247 626 258 710 q 235 443 235 542 q 244 299 235 369 q 272 170 253 228 q 318 78 290 113 q 383 43 346 43 z "},"1":{"ha":735,"x_min":133,"x_max":649,"o":"m 163 -4 q 146 1 154 -4 q 138 15 138 7 q 164 44 138 38 q 231 64 203 54 q 274 91 258 74 q 289 138 289 108 l 289 640 q 272 691 289 674 q 227 717 254 708 q 169 729 200 725 q 146 739 158 732 q 133 761 133 746 q 147 787 133 779 q 176 796 160 794 q 324 822 258 803 q 453 879 389 842 q 460 882 456 881 q 468 883 464 883 q 487 879 478 883 q 496 869 496 875 q 492 828 496 851 q 489 768 489 806 l 489 136 q 506 93 489 110 q 553 66 522 76 q 624 44 583 56 q 642 35 635 40 q 649 17 649 29 q 628 -3 649 -3 q 552 -1 596 -3 q 466 1 508 0 q 393 3 424 3 q 322 1 364 3 q 238 -2 281 0 q 163 -4 194 -4 z "},"2":{"ha":735,"x_min":83,"x_max":718,"o":"m 625 -6 q 584 -5 617 -6 q 508 -3 551 -4 q 418 0 464 -1 q 338 1 372 1 q 267 0 306 1 q 195 -2 229 -1 q 138 -3 161 -3 q 111 -4 115 -4 q 95 3 107 -4 q 83 19 83 11 q 89 38 83 31 q 100 50 94 44 l 303 275 q 413 437 376 356 q 449 614 449 518 q 419 712 449 672 q 335 751 389 751 q 243 724 286 751 q 169 664 200 696 q 150 645 163 656 q 125 635 138 635 q 110 644 114 635 q 106 667 106 653 q 128 724 106 690 q 192 793 151 758 q 287 851 233 828 q 400 875 340 875 q 522 843 472 875 q 597 758 571 811 q 624 643 624 706 q 606 558 624 604 q 564 469 589 511 q 513 396 539 426 q 460 341 492 372 q 396 278 429 310 q 332 218 363 246 q 283 172 301 190 q 265 151 265 154 q 286 143 265 146 q 347 139 311 140 q 411 138 382 138 q 474 139 443 138 q 535 143 504 140 q 588 155 565 146 q 628 181 611 164 q 660 226 646 199 q 674 247 664 236 q 699 257 685 257 q 714 248 710 257 q 714 229 718 239 q 688 151 701 193 q 665 74 675 108 q 654 26 656 40 q 640 2 653 10 q 625 -6 628 -6 z "},"3":{"ha":735,"x_min":99,"x_max":653,"o":"m 239 -53 q 176 -44 208 -53 q 121 -19 143 -35 q 99 15 99 -3 q 105 52 99 32 q 122 86 111 72 q 147 100 133 100 q 168 94 160 100 q 186 78 176 89 q 232 32 206 57 q 292 7 258 7 q 372 31 336 7 q 430 100 408 56 q 451 206 451 144 q 436 307 451 263 q 390 376 421 351 q 315 401 360 401 q 259 390 281 401 q 225 372 238 378 q 201 373 215 367 q 190 392 188 379 q 214 436 197 418 q 249 464 231 454 q 321 506 290 485 q 372 551 351 528 q 403 603 393 575 q 414 667 414 632 q 383 744 414 711 q 306 776 353 776 q 235 759 264 776 q 188 719 207 742 q 156 681 168 697 q 138 664 144 664 q 118 675 128 664 q 108 697 108 686 q 124 739 108 710 q 172 799 139 768 q 258 852 206 831 q 388 874 311 874 q 489 853 443 874 q 563 794 535 832 q 590 706 590 757 q 572 633 590 674 q 511 558 553 593 q 403 506 469 522 q 399 501 399 504 q 404 497 399 497 q 532 471 476 497 q 620 397 588 444 q 653 281 653 349 q 618 143 653 204 q 525 38 583 82 q 393 -29 467 -6 q 239 -53 319 -53 z "},"4":{"ha":735,"x_min":29,"x_max":747,"o":"m 299 -4 q 279 1 290 -4 q 268 17 268 7 q 278 36 268 31 q 300 44 288 42 q 375 72 356 54 q 394 131 394 89 l 394 210 q 386 220 394 217 q 371 224 378 224 q 272 221 328 224 q 159 215 217 218 q 50 213 101 213 q 36 215 43 213 q 29 224 29 218 q 36 239 29 229 q 52 259 46 251 q 65 276 58 267 q 78 294 71 285 l 421 843 q 449 876 432 861 q 482 892 467 892 l 494 892 q 508 881 506 892 q 504 863 510 871 l 178 344 q 176 329 172 333 q 189 325 181 325 l 383 325 q 391 328 388 325 q 394 335 394 331 l 394 501 q 398 535 394 526 q 417 550 401 544 q 497 574 454 568 q 557 579 540 579 q 590 552 585 579 q 594 472 594 525 l 594 326 q 601 317 594 317 q 628 315 619 315 q 651 315 638 315 q 689 316 672 315 q 731 318 706 317 q 747 308 747 318 q 742 276 747 297 q 728 238 736 256 q 715 221 721 221 q 683 222 699 221 q 650 222 668 222 q 630 222 636 222 q 614 219 624 221 q 601 215 608 218 q 594 211 594 213 l 594 132 q 613 76 594 93 q 685 44 631 60 q 708 35 697 40 q 718 17 718 29 q 709 3 718 8 q 689 -3 700 -3 q 623 -1 658 -3 q 554 1 588 0 q 492 3 521 3 q 430 1 463 3 q 364 -2 397 0 q 299 -4 331 -4 z "},"5":{"ha":735,"x_min":117,"x_max":626,"o":"m 185 -53 q 142 -49 165 -53 q 118 -32 118 -46 q 136 -10 118 -15 q 175 -1 154 -4 q 324 41 260 7 q 423 123 388 75 q 458 219 458 171 q 432 311 458 272 q 348 381 406 350 q 196 440 290 413 q 137 471 153 456 q 121 513 121 486 q 129 567 121 532 q 148 642 138 603 q 169 713 158 681 q 181 757 179 746 q 208 805 189 790 q 249 825 226 819 q 320 840 275 832 q 415 855 365 847 q 506 868 465 863 q 561 874 546 874 q 578 865 572 875 q 582 844 583 856 q 568 801 579 825 q 549 756 557 776 q 515 710 539 728 q 461 690 492 693 q 404 687 439 688 q 335 684 369 686 q 272 681 300 682 q 232 678 244 681 q 215 666 222 676 q 204 644 208 656 q 200 625 200 632 q 204 613 200 618 q 215 607 208 608 q 352 572 293 593 q 461 525 411 550 q 589 419 550 483 q 628 278 628 354 q 581 130 628 201 q 456 15 533 58 q 384 -16 428 0 q 289 -42 340 -32 q 185 -53 238 -53 z "},"6":{"ha":735,"x_min":92,"x_max":707,"o":"m 386 -19 q 224 17 289 -19 q 125 117 158 53 q 92 268 92 182 q 109 407 92 344 q 152 518 126 469 q 205 601 178 567 q 249 657 232 636 q 334 737 281 696 q 456 815 388 778 q 600 879 524 853 q 643 888 622 888 q 664 878 664 888 q 649 855 663 864 q 614 835 636 846 q 486 752 538 799 q 390 636 435 706 q 344 548 371 603 q 299 423 318 493 q 281 274 281 353 q 301 146 281 197 q 351 68 321 94 q 413 40 381 42 q 483 83 454 40 q 513 208 513 126 q 497 285 513 250 q 460 341 482 319 q 413 363 438 363 q 382 360 394 363 q 357 351 369 357 q 326 353 332 339 q 335 385 319 368 q 351 401 344 394 q 367 414 358 407 q 432 453 389 432 q 510 475 475 475 q 607 449 563 475 q 679 378 651 422 q 707 278 707 333 q 684 169 707 222 q 619 74 661 117 q 517 6 576 31 q 386 -19 458 -19 z "},"7":{"ha":735,"x_min":51,"x_max":733,"o":"m 233 -42 q 205 -28 217 -42 q 193 3 193 -15 q 207 34 193 13 q 231 74 221 56 l 565 672 q 566 688 571 683 q 550 692 561 692 l 239 692 q 183 680 204 692 q 142 639 163 668 q 126 615 136 632 q 101 583 115 597 q 74 568 88 568 q 58 575 65 568 q 51 592 51 582 q 58 625 51 601 q 67 657 65 649 q 88 756 75 703 q 100 847 100 808 q 111 867 100 863 q 129 871 122 872 q 183 864 146 869 q 264 856 219 858 q 342 855 297 856 q 428 853 386 854 q 499 853 471 853 q 592 853 550 853 q 666 856 633 854 q 719 858 699 857 q 729 849 725 858 q 733 829 733 839 q 726 809 733 822 q 707 778 718 796 q 682 738 696 760 l 265 3 q 248 -26 258 -10 q 233 -42 238 -42 z "},"8":{"ha":735,"x_min":83,"x_max":690,"o":"m 368 -18 q 226 10 292 -18 q 122 86 161 38 q 83 199 83 135 q 115 290 83 254 q 193 351 147 325 q 279 399 239 376 q 288 410 292 406 q 274 422 285 415 q 195 492 232 456 q 135 572 158 528 q 111 669 111 615 q 155 778 111 732 q 267 849 199 824 q 408 874 335 874 q 531 849 472 874 q 626 781 590 825 q 663 678 663 736 q 637 590 663 624 q 579 540 611 556 q 548 524 564 532 q 518 507 532 515 q 496 486 496 493 q 510 471 496 479 q 602 405 561 438 q 667 333 643 372 q 692 242 692 293 q 647 104 692 163 q 530 14 603 46 q 368 -18 457 -18 m 393 42 q 475 78 443 42 q 507 165 507 114 q 484 238 507 203 q 428 306 461 274 q 363 360 394 338 q 351 370 356 367 q 340 374 346 374 q 322 364 338 374 q 281 300 293 336 q 269 208 269 264 q 285 128 269 167 q 328 66 300 90 q 393 42 356 42 m 446 528 q 477 594 468 551 q 486 683 486 638 q 465 775 486 736 q 390 814 443 814 q 340 801 363 814 q 303 764 318 788 q 289 708 289 740 q 308 639 289 669 q 356 583 326 608 q 418 531 385 557 q 433 523 426 524 q 446 528 440 522 z "},"9":{"ha":735,"x_min":76,"x_max":718,"o":"m 113 -69 q 84 -62 92 -69 q 76 -47 76 -54 q 89 -24 76 -32 q 115 -15 101 -15 q 217 22 165 -8 q 317 95 269 51 q 401 186 365 139 q 461 277 431 224 q 514 397 492 331 q 536 540 536 464 q 524 634 536 588 q 492 719 513 681 q 444 780 471 757 q 390 803 418 803 q 333 785 357 803 q 298 734 310 768 q 286 647 286 700 q 301 567 286 606 q 339 503 315 528 q 390 478 363 478 q 424 482 410 478 q 450 492 438 486 q 483 489 479 504 q 474 457 488 474 q 459 440 467 447 q 443 425 451 432 q 412 403 433 415 q 364 381 390 390 q 313 371 338 371 q 210 398 260 371 q 126 472 160 425 q 93 579 93 518 q 119 675 93 624 q 192 772 146 726 q 297 845 238 817 q 422 874 356 874 q 535 848 482 874 q 630 777 589 822 q 694 675 671 732 q 718 556 718 618 q 687 390 718 468 q 608 248 656 313 q 513 136 561 183 q 428 69 479 106 q 320 2 378 33 q 208 -49 263 -29 q 113 -69 153 -69 z "},"A":{"ha":1000,"x_min":-6,"x_max":1010,"o":"m 31 -7 q 5 -2 15 -7 q -6 15 -6 3 q 3 35 -6 29 q 28 46 13 42 q 98 81 68 57 q 143 139 128 104 q 208 292 178 217 q 268 442 239 368 q 326 594 297 517 q 385 750 356 671 q 411 833 406 807 q 419 863 417 858 q 467 875 444 869 q 514 890 489 881 q 556 915 539 900 q 582 939 574 931 q 593 944 588 943 q 604 935 599 944 q 612 917 608 926 q 618 897 615 908 q 678 708 647 804 q 740 515 708 611 q 801 326 771 419 q 861 143 832 232 q 887 96 869 115 q 926 65 904 76 q 976 46 949 54 q 1001 35 992 42 q 1010 17 1010 29 q 1001 1 1010 7 q 982 -4 993 -4 q 913 -2 954 -4 q 831 1 872 0 q 757 3 789 3 q 692 1 731 3 q 615 -1 654 0 q 549 -3 576 -3 q 527 2 536 -3 q 518 17 518 7 q 528 36 518 29 q 551 46 538 43 q 626 75 603 57 q 642 129 650 93 q 628 185 636 156 q 612 244 619 214 q 596 301 604 274 q 589 318 593 313 q 572 324 585 324 l 326 324 q 311 318 317 324 q 303 300 306 313 q 290 261 297 281 q 277 222 283 242 q 265 183 271 203 q 254 146 260 164 q 263 82 244 104 q 340 46 281 60 q 374 17 374 39 q 366 2 374 7 q 342 -3 358 -3 q 267 -1 301 -3 q 190 1 232 1 q 111 -3 149 1 q 31 -7 74 -7 m 365 399 l 546 399 q 567 408 567 399 q 566 415 567 413 q 564 422 565 418 l 471 736 q 463 751 467 751 q 453 736 460 751 l 343 422 q 340 411 340 417 q 348 401 340 404 q 365 399 356 399 z "},"Á":{"ha":1000,"x_min":-6,"x_max":1010,"o":"m 31 -7 q 5 -2 15 -7 q -6 15 -6 3 q 3 35 -6 29 q 28 46 13 42 q 98 81 68 57 q 143 139 128 104 q 208 292 178 217 q 268 442 239 368 q 326 594 297 517 q 385 750 356 671 q 411 833 406 807 q 419 863 417 858 q 467 875 444 869 q 514 890 489 881 q 556 915 539 900 q 582 939 574 931 q 593 944 588 943 q 604 935 599 944 q 612 917 608 926 q 618 897 615 908 q 678 708 647 804 q 740 515 708 611 q 801 326 771 419 q 861 143 832 232 q 887 96 869 115 q 926 65 904 76 q 976 46 949 54 q 1001 35 992 42 q 1010 17 1010 29 q 1001 1 1010 7 q 982 -4 993 -4 q 913 -2 954 -4 q 831 1 872 0 q 757 3 789 3 q 692 1 731 3 q 615 -1 654 0 q 549 -3 576 -3 q 527 2 536 -3 q 518 17 518 7 q 528 36 518 29 q 551 46 538 43 q 626 75 603 57 q 642 129 650 93 q 628 185 636 156 q 612 244 619 214 q 596 301 604 274 q 589 318 593 313 q 572 324 585 324 l 326 324 q 311 318 317 324 q 303 300 306 313 q 290 261 297 281 q 277 222 283 242 q 265 183 271 203 q 254 146 260 164 q 263 82 244 104 q 340 46 281 60 q 374 17 374 39 q 366 2 374 7 q 342 -3 358 -3 q 267 -1 301 -3 q 190 1 232 1 q 111 -3 149 1 q 31 -7 74 -7 m 365 399 l 546 399 q 567 408 567 399 q 566 415 567 413 q 564 422 565 418 l 471 736 q 463 751 467 751 q 453 736 460 751 l 343 422 q 340 411 340 417 q 348 401 340 404 q 365 399 356 399 m 458 947 q 442 960 442 950 q 457 989 442 969 q 527 1078 492 1035 q 603 1163 563 1121 q 650 1179 621 1182 q 685 1169 661 1178 q 731 1150 710 1161 q 749 1126 751 1139 q 722 1096 746 1113 q 608 1026 669 1061 q 493 958 547 992 q 471 949 481 951 q 458 947 461 946 z "},"Ă":{"ha":1000,"x_min":-6,"x_max":1010,"o":"m 31 -7 q 5 -2 15 -7 q -6 15 -6 3 q 3 35 -6 29 q 28 46 13 42 q 98 81 68 57 q 143 139 128 104 q 208 292 178 217 q 268 442 239 368 q 326 594 297 517 q 385 750 356 671 q 411 833 406 807 q 419 863 417 858 q 467 875 444 869 q 514 890 489 881 q 556 915 539 900 q 582 939 574 931 q 593 944 588 943 q 604 935 599 944 q 612 917 608 926 q 618 897 615 908 q 678 708 647 804 q 740 515 708 611 q 801 326 771 419 q 861 143 832 232 q 887 96 869 115 q 926 65 904 76 q 976 46 949 54 q 1001 35 992 42 q 1010 17 1010 29 q 1001 1 1010 7 q 982 -4 993 -4 q 913 -2 954 -4 q 831 1 872 0 q 757 3 789 3 q 692 1 731 3 q 615 -1 654 0 q 549 -3 576 -3 q 527 2 536 -3 q 518 17 518 7 q 528 36 518 29 q 551 46 538 43 q 626 75 603 57 q 642 129 650 93 q 628 185 636 156 q 612 244 619 214 q 596 301 604 274 q 589 318 593 313 q 572 324 585 324 l 326 324 q 311 318 317 324 q 303 300 306 313 q 290 261 297 281 q 277 222 283 242 q 265 183 271 203 q 254 146 260 164 q 263 82 244 104 q 340 46 281 60 q 374 17 374 39 q 366 2 374 7 q 342 -3 358 -3 q 267 -1 301 -3 q 190 1 232 1 q 111 -3 149 1 q 31 -7 74 -7 m 365 399 l 546 399 q 567 408 567 399 q 566 415 567 413 q 564 422 565 418 l 471 736 q 463 751 467 751 q 453 736 460 751 l 343 422 q 340 411 340 417 q 348 401 340 404 q 365 399 356 399 m 524 953 q 410 983 456 953 q 344 1053 365 1013 q 322 1125 322 1093 q 326 1152 322 1143 q 340 1161 329 1161 q 361 1153 353 1161 q 381 1132 369 1144 q 444 1082 411 1097 q 524 1067 476 1067 q 603 1082 571 1067 q 667 1132 636 1097 q 686 1153 678 1144 q 707 1161 694 1161 q 722 1152 719 1161 q 725 1125 725 1143 q 703 1053 725 1093 q 638 983 682 1013 q 524 953 593 953 z "},"Â":{"ha":1000,"x_min":-6,"x_max":1010,"o":"m 31 -7 q 5 -2 15 -7 q -6 15 -6 3 q 3 35 -6 29 q 28 46 13 42 q 98 81 68 57 q 143 139 128 104 q 208 292 178 217 q 268 442 239 368 q 326 594 297 517 q 385 750 356 671 q 411 833 406 807 q 419 863 417 858 q 467 875 444 869 q 514 890 489 881 q 556 915 539 900 q 582 939 574 931 q 593 944 588 943 q 604 935 599 944 q 612 917 608 926 q 618 897 615 908 q 678 708 647 804 q 740 515 708 611 q 801 326 771 419 q 861 143 832 232 q 887 96 869 115 q 926 65 904 76 q 976 46 949 54 q 1001 35 992 42 q 1010 17 1010 29 q 1001 1 1010 7 q 982 -4 993 -4 q 913 -2 954 -4 q 831 1 872 0 q 757 3 789 3 q 692 1 731 3 q 615 -1 654 0 q 549 -3 576 -3 q 527 2 536 -3 q 518 17 518 7 q 528 36 518 29 q 551 46 538 43 q 626 75 603 57 q 642 129 650 93 q 628 185 636 156 q 612 244 619 214 q 596 301 604 274 q 589 318 593 313 q 572 324 585 324 l 326 324 q 311 318 317 324 q 303 300 306 313 q 290 261 297 281 q 277 222 283 242 q 265 183 271 203 q 254 146 260 164 q 263 82 244 104 q 340 46 281 60 q 374 17 374 39 q 366 2 374 7 q 342 -3 358 -3 q 267 -1 301 -3 q 190 1 232 1 q 111 -3 149 1 q 31 -7 74 -7 m 365 399 l 546 399 q 567 408 567 399 q 566 415 567 413 q 564 422 565 418 l 471 736 q 463 751 467 751 q 453 736 460 751 l 343 422 q 340 411 340 417 q 348 401 340 404 q 365 399 356 399 m 324 963 q 297 979 297 963 q 308 1000 297 992 l 454 1131 q 492 1162 478 1153 q 524 1171 506 1171 q 557 1162 543 1171 q 594 1131 571 1153 l 739 1001 q 749 979 749 993 q 726 961 749 961 q 694 968 717 961 q 642 986 671 975 q 585 1009 613 997 q 540 1031 558 1021 q 524 1036 531 1036 q 507 1031 517 1036 q 463 1010 490 1021 q 407 988 436 999 q 355 969 378 976 q 324 963 332 963 z "},"Ä":{"ha":1000,"x_min":-6,"x_max":1010,"o":"m 31 -7 q 5 -2 15 -7 q -6 15 -6 3 q 3 35 -6 29 q 28 46 13 42 q 98 81 68 57 q 143 139 128 104 q 208 292 178 217 q 268 442 239 368 q 326 594 297 517 q 385 750 356 671 q 411 833 406 807 q 419 863 417 858 q 467 875 444 869 q 514 890 489 881 q 556 915 539 900 q 582 939 574 931 q 593 944 588 943 q 604 935 599 944 q 612 917 608 926 q 618 897 615 908 q 678 708 647 804 q 740 515 708 611 q 801 326 771 419 q 861 143 832 232 q 887 96 869 115 q 926 65 904 76 q 976 46 949 54 q 1001 35 992 42 q 1010 17 1010 29 q 1001 1 1010 7 q 982 -4 993 -4 q 913 -2 954 -4 q 831 1 872 0 q 757 3 789 3 q 692 1 731 3 q 615 -1 654 0 q 549 -3 576 -3 q 527 2 536 -3 q 518 17 518 7 q 528 36 518 29 q 551 46 538 43 q 626 75 603 57 q 642 129 650 93 q 628 185 636 156 q 612 244 619 214 q 596 301 604 274 q 589 318 593 313 q 572 324 585 324 l 326 324 q 311 318 317 324 q 303 300 306 313 q 290 261 297 281 q 277 222 283 242 q 265 183 271 203 q 254 146 260 164 q 263 82 244 104 q 340 46 281 60 q 374 17 374 39 q 366 2 374 7 q 342 -3 358 -3 q 267 -1 301 -3 q 190 1 232 1 q 111 -3 149 1 q 31 -7 74 -7 m 365 399 l 546 399 q 567 408 567 399 q 566 415 567 413 q 564 422 565 418 l 471 736 q 463 751 467 751 q 453 736 460 751 l 343 422 q 340 411 340 417 q 348 401 340 404 q 365 399 356 399 m 660 956 q 590 985 619 956 q 561 1054 561 1014 q 590 1126 561 1097 q 660 1154 619 1154 q 734 1126 704 1154 q 764 1054 764 1097 q 734 985 764 1014 q 660 956 704 956 m 386 956 q 316 985 346 956 q 286 1054 286 1014 q 316 1126 286 1097 q 386 1154 346 1154 q 459 1126 429 1154 q 489 1054 489 1097 q 459 985 489 1014 q 386 956 429 956 z "},"À":{"ha":1000,"x_min":-6,"x_max":1010,"o":"m 563 947 q 549 949 558 946 q 526 958 539 951 q 413 1026 474 992 q 297 1096 351 1061 q 271 1126 275 1113 q 290 1150 269 1139 q 335 1169 310 1161 q 371 1179 360 1178 q 417 1163 399 1182 q 493 1078 458 1121 q 564 989 528 1035 q 579 960 579 969 q 563 947 579 950 m 31 -7 q 5 -2 15 -7 q -6 15 -6 3 q 3 35 -6 29 q 28 46 13 42 q 98 81 68 57 q 143 139 128 104 q 208 292 178 217 q 268 442 239 368 q 326 594 297 517 q 385 750 356 671 q 411 833 406 807 q 419 863 417 858 q 467 875 444 869 q 514 890 489 881 q 556 915 539 900 q 582 939 574 931 q 593 944 588 943 q 604 935 599 944 q 612 917 608 926 q 618 897 615 908 q 678 708 647 804 q 740 515 708 611 q 801 326 771 419 q 861 143 832 232 q 887 96 869 115 q 926 65 904 76 q 976 46 949 54 q 1001 35 992 42 q 1010 17 1010 29 q 1001 1 1010 7 q 982 -4 993 -4 q 913 -2 954 -4 q 831 1 872 0 q 757 3 789 3 q 692 1 731 3 q 615 -1 654 0 q 549 -3 576 -3 q 527 2 536 -3 q 518 17 518 7 q 528 36 518 29 q 551 46 538 43 q 626 75 603 57 q 642 129 650 93 q 628 185 636 156 q 612 244 619 214 q 596 301 604 274 q 589 318 593 313 q 572 324 585 324 l 326 324 q 311 318 317 324 q 303 300 306 313 q 290 261 297 281 q 277 222 283 242 q 265 183 271 203 q 254 146 260 164 q 263 82 244 104 q 340 46 281 60 q 374 17 374 39 q 366 2 374 7 q 342 -3 358 -3 q 267 -1 301 -3 q 190 1 232 1 q 111 -3 149 1 q 31 -7 74 -7 m 365 399 l 546 399 q 567 408 567 399 q 566 415 567 413 q 564 422 565 418 l 471 736 q 463 751 467 751 q 453 736 460 751 l 343 422 q 340 411 340 417 q 348 401 340 404 q 365 399 356 399 z "},"Ā":{"ha":1000,"x_min":-6,"x_max":1010,"o":"m 31 -7 q 5 -2 15 -7 q -6 15 -6 3 q 3 35 -6 29 q 28 46 13 42 q 98 81 68 57 q 143 139 128 104 q 208 292 178 217 q 268 442 239 368 q 326 594 297 517 q 385 750 356 671 q 411 833 406 807 q 419 863 417 858 q 467 875 444 869 q 514 890 489 881 q 556 915 539 900 q 582 939 574 931 q 593 944 588 943 q 604 935 599 944 q 612 917 608 926 q 618 897 615 908 q 678 708 647 804 q 740 515 708 611 q 801 326 771 419 q 861 143 832 232 q 887 96 869 115 q 926 65 904 76 q 976 46 949 54 q 1001 35 992 42 q 1010 17 1010 29 q 1001 1 1010 7 q 982 -4 993 -4 q 913 -2 954 -4 q 831 1 872 0 q 757 3 789 3 q 692 1 731 3 q 615 -1 654 0 q 549 -3 576 -3 q 527 2 536 -3 q 518 17 518 7 q 528 36 518 29 q 551 46 538 43 q 626 75 603 57 q 642 129 650 93 q 628 185 636 156 q 612 244 619 214 q 596 301 604 274 q 589 318 593 313 q 572 324 585 324 l 326 324 q 311 318 317 324 q 303 300 306 313 q 290 261 297 281 q 277 222 283 242 q 265 183 271 203 q 254 146 260 164 q 263 82 244 104 q 340 46 281 60 q 374 17 374 39 q 366 2 374 7 q 342 -3 358 -3 q 267 -1 301 -3 q 190 1 232 1 q 111 -3 149 1 q 31 -7 74 -7 m 365 399 l 546 399 q 567 408 567 399 q 566 415 567 413 q 564 422 565 418 l 471 736 q 463 751 467 751 q 453 736 460 751 l 343 422 q 340 411 340 417 q 348 401 340 404 q 365 399 356 399 m 326 996 q 307 1004 314 996 q 300 1021 300 1013 q 307 1065 300 1044 q 326 1097 314 1085 q 351 1108 339 1108 l 725 1108 q 744 1101 738 1108 q 750 1083 750 1093 q 733 1023 750 1050 q 693 996 717 996 l 326 996 z "},"Ą":{"ha":1000,"x_min":-6,"x_max":1010,"o":"m 31 -7 q 5 -2 15 -7 q -6 15 -6 3 q 3 35 -6 29 q 28 46 13 42 q 98 81 68 57 q 143 139 128 104 q 208 292 178 217 q 268 442 239 368 q 326 594 297 517 q 385 750 356 671 q 411 833 406 807 q 419 863 417 858 q 467 875 444 869 q 514 890 489 881 q 556 915 539 900 q 582 939 574 931 q 593 944 588 943 q 604 935 599 944 q 612 917 608 926 q 618 897 615 908 q 678 708 647 804 q 740 515 708 611 q 801 326 771 419 q 861 143 832 232 q 887 96 869 115 q 926 65 904 76 q 976 46 949 54 q 1001 35 992 42 q 1010 17 1010 29 q 1001 1 1010 7 q 982 -4 993 -4 q 913 -2 954 -4 q 831 1 872 0 q 757 3 789 3 q 692 1 731 3 q 615 -1 654 0 q 549 -3 576 -3 q 527 2 536 -3 q 518 17 518 7 q 528 36 518 29 q 551 46 538 43 q 626 75 603 57 q 642 129 650 93 q 628 185 636 156 q 612 244 619 214 q 596 301 604 274 q 589 318 593 313 q 572 324 585 324 l 326 324 q 311 318 317 324 q 303 300 306 313 q 290 261 297 281 q 277 222 283 242 q 265 183 271 203 q 254 146 260 164 q 263 82 244 104 q 340 46 281 60 q 374 17 374 39 q 366 2 374 7 q 342 -3 358 -3 q 267 -1 301 -3 q 190 1 232 1 q 111 -3 149 1 q 31 -7 74 -7 m 365 399 l 546 399 q 567 408 567 399 q 566 415 567 413 q 564 422 565 418 l 471 736 q 463 751 467 751 q 453 736 460 751 l 343 422 q 340 411 340 417 q 348 401 340 404 q 365 399 356 399 m 779 -399 q 660 -358 706 -399 q 614 -242 614 -317 q 630 -173 614 -206 q 671 -111 646 -140 q 727 -57 696 -82 q 791 -11 758 -32 q 850 25 824 10 l 907 25 q 858 -22 883 3 q 813 -75 833 -46 q 781 -135 793 -104 q 768 -204 768 -167 q 790 -258 768 -237 q 846 -279 811 -279 q 883 -273 867 -279 q 912 -258 899 -267 q 936 -237 925 -249 q 958 -232 944 -231 q 971 -256 971 -233 q 955 -306 971 -281 q 912 -352 939 -331 q 851 -386 885 -374 q 779 -399 817 -399 z "},"Å":{"ha":1000,"x_min":-6,"x_max":1010,"o":"m 31 -7 q 5 -2 15 -7 q -6 15 -6 3 q 3 35 -6 29 q 28 46 13 42 q 98 81 68 57 q 143 139 128 104 q 208 292 178 217 q 268 442 239 368 q 326 594 297 517 q 385 750 356 671 q 411 833 406 807 q 419 863 417 858 q 467 875 444 869 q 514 890 489 881 q 556 915 539 900 q 582 939 574 931 q 593 944 588 943 q 604 935 599 944 q 612 917 608 926 q 618 897 615 908 q 678 708 647 804 q 740 515 708 611 q 801 326 771 419 q 861 143 832 232 q 887 96 869 115 q 926 65 904 76 q 976 46 949 54 q 1001 35 992 42 q 1010 17 1010 29 q 1001 1 1010 7 q 982 -4 993 -4 q 913 -2 954 -4 q 831 1 872 0 q 757 3 789 3 q 692 1 731 3 q 615 -1 654 0 q 549 -3 576 -3 q 527 2 536 -3 q 518 17 518 7 q 528 36 518 29 q 551 46 538 43 q 626 75 603 57 q 642 129 650 93 q 628 185 636 156 q 612 244 619 214 q 596 301 604 274 q 589 318 593 313 q 572 324 585 324 l 326 324 q 311 318 317 324 q 303 300 306 313 q 290 261 297 281 q 277 222 283 242 q 265 183 271 203 q 254 146 260 164 q 263 82 244 104 q 340 46 281 60 q 374 17 374 39 q 366 2 374 7 q 342 -3 358 -3 q 267 -1 301 -3 q 190 1 232 1 q 111 -3 149 1 q 31 -7 74 -7 m 365 399 l 546 399 q 567 408 567 399 q 566 415 567 413 q 564 422 565 418 l 471 736 q 463 751 467 751 q 453 736 460 751 l 343 422 q 340 411 340 417 q 348 401 340 404 q 365 399 356 399 m 456 1071 q 477 1021 456 1042 q 529 1000 499 1000 q 574 1022 558 1000 q 589 1071 589 1044 q 569 1122 589 1101 q 518 1143 549 1143 q 472 1122 489 1143 q 456 1071 456 1100 m 531 1189 q 631 1160 586 1189 q 676 1081 676 1132 q 653 1015 676 1043 q 593 972 629 988 q 515 957 557 957 q 413 986 458 957 q 368 1068 368 1015 q 392 1131 368 1104 q 452 1174 415 1158 q 531 1189 489 1189 z "},"Ǻ":{"ha":1000,"x_min":-6,"x_max":1010,"o":"m 31 -7 q 5 -2 15 -7 q -6 15 -6 3 q 3 35 -6 29 q 28 46 13 42 q 98 81 68 57 q 143 139 128 104 q 208 292 178 217 q 268 442 239 368 q 326 594 297 517 q 385 750 356 671 q 411 833 406 807 q 419 863 417 858 q 467 875 444 869 q 514 890 489 881 q 556 915 539 900 q 582 939 574 931 q 593 944 588 943 q 604 935 599 944 q 612 917 608 926 q 618 897 615 908 q 678 708 647 804 q 740 515 708 611 q 801 326 771 419 q 861 143 832 232 q 887 96 869 115 q 926 65 904 76 q 976 46 949 54 q 1001 35 992 42 q 1010 17 1010 29 q 1001 1 1010 7 q 982 -4 993 -4 q 913 -2 954 -4 q 831 1 872 0 q 757 3 789 3 q 692 1 731 3 q 615 -1 654 0 q 549 -3 576 -3 q 527 2 536 -3 q 518 17 518 7 q 528 36 518 29 q 551 46 538 43 q 626 75 603 57 q 642 129 650 93 q 628 185 636 156 q 612 244 619 214 q 596 301 604 274 q 589 318 593 313 q 572 324 585 324 l 326 324 q 311 318 317 324 q 303 300 306 313 q 290 261 297 281 q 277 222 283 242 q 265 183 271 203 q 254 146 260 164 q 263 82 244 104 q 340 46 281 60 q 374 17 374 39 q 366 2 374 7 q 342 -3 358 -3 q 267 -1 301 -3 q 190 1 232 1 q 111 -3 149 1 q 31 -7 74 -7 m 365 399 l 546 399 q 567 408 567 399 q 566 415 567 413 q 564 422 565 418 l 471 736 q 463 751 467 751 q 453 736 460 751 l 343 422 q 340 411 340 417 q 348 401 340 404 q 365 399 356 399 m 456 1071 q 477 1021 456 1042 q 529 1000 499 1000 q 574 1022 558 1000 q 589 1071 589 1044 q 569 1122 589 1101 q 518 1143 549 1143 q 472 1122 489 1143 q 456 1071 456 1100 m 531 1189 q 631 1160 586 1189 q 676 1081 676 1132 q 653 1015 676 1043 q 593 972 629 988 q 515 957 557 957 q 413 986 458 957 q 368 1068 368 1015 q 392 1131 368 1104 q 452 1174 415 1158 q 531 1189 489 1189 m 408 1194 q 390 1199 399 1194 q 382 1213 382 1204 q 386 1226 382 1219 q 403 1244 390 1233 q 449 1279 422 1260 q 505 1318 475 1299 q 563 1356 535 1338 q 614 1388 592 1374 q 628 1393 621 1392 q 642 1394 635 1394 q 680 1376 664 1394 q 705 1338 696 1358 q 714 1307 714 1317 q 700 1283 714 1289 q 642 1264 672 1275 q 581 1242 613 1253 q 520 1222 550 1232 q 460 1206 490 1213 q 435 1199 449 1203 q 408 1194 421 1194 z "},"Ã":{"ha":1000,"x_min":-6,"x_max":1010,"o":"m 31 -7 q 5 -2 15 -7 q -6 15 -6 3 q 3 35 -6 29 q 28 46 13 42 q 98 81 68 57 q 143 139 128 104 q 208 292 178 217 q 268 442 239 368 q 326 594 297 517 q 385 750 356 671 q 411 833 406 807 q 419 863 417 858 q 467 875 444 869 q 514 890 489 881 q 556 915 539 900 q 582 939 574 931 q 593 944 588 943 q 604 935 599 944 q 612 917 608 926 q 618 897 615 908 q 678 708 647 804 q 740 515 708 611 q 801 326 771 419 q 861 143 832 232 q 887 96 869 115 q 926 65 904 76 q 976 46 949 54 q 1001 35 992 42 q 1010 17 1010 29 q 1001 1 1010 7 q 982 -4 993 -4 q 913 -2 954 -4 q 831 1 872 0 q 757 3 789 3 q 692 1 731 3 q 615 -1 654 0 q 549 -3 576 -3 q 527 2 536 -3 q 518 17 518 7 q 528 36 518 29 q 551 46 538 43 q 626 75 603 57 q 642 129 650 93 q 628 185 636 156 q 612 244 619 214 q 596 301 604 274 q 589 318 593 313 q 572 324 585 324 l 326 324 q 311 318 317 324 q 303 300 306 313 q 290 261 297 281 q 277 222 283 242 q 265 183 271 203 q 254 146 260 164 q 263 82 244 104 q 340 46 281 60 q 374 17 374 39 q 366 2 374 7 q 342 -3 358 -3 q 267 -1 301 -3 q 190 1 232 1 q 111 -3 149 1 q 31 -7 74 -7 m 365 399 l 546 399 q 567 408 567 399 q 566 415 567 413 q 564 422 565 418 l 471 736 q 463 751 467 751 q 453 736 460 751 l 343 422 q 340 411 340 417 q 348 401 340 404 q 365 399 356 399 m 332 960 q 315 969 325 960 q 306 982 306 978 q 318 1013 306 990 q 349 1060 331 1035 q 386 1103 368 1085 q 414 1122 404 1122 q 470 1120 440 1122 q 529 1117 500 1118 q 585 1114 556 1115 q 646 1113 614 1113 q 673 1121 661 1113 q 694 1139 685 1129 q 712 1160 706 1150 q 722 1169 718 1169 q 742 1160 731 1169 q 754 1143 754 1151 q 748 1129 754 1139 q 729 1104 742 1119 q 700 1060 714 1082 q 674 1021 686 1039 q 653 1005 665 1008 q 631 1001 640 1001 q 588 1003 619 1001 q 517 1008 556 1006 q 446 1014 479 1011 q 399 1017 413 1017 q 376 1008 388 1017 q 357 990 365 1000 q 342 969 349 979 q 332 960 335 960 z "},"Æ":{"ha":1263,"x_min":-7,"x_max":1240,"o":"m 31 -7 q 3 -2 14 -7 q -7 15 -7 3 q 3 35 -7 28 q 26 46 13 42 q 99 85 65 58 q 151 143 132 111 l 560 831 q 560 843 563 838 q 549 850 558 849 l 503 860 q 483 872 489 864 q 476 888 476 879 q 503 908 476 908 q 605 906 547 908 q 710 903 663 903 q 842 903 771 903 q 976 906 913 904 q 1085 908 1040 907 q 1140 908 1129 908 q 1161 903 1150 908 q 1174 882 1172 897 q 1190 787 1183 833 q 1197 703 1196 740 q 1191 684 1197 690 q 1178 678 1185 678 q 1164 683 1171 678 q 1151 699 1157 688 q 1124 769 1136 740 q 1093 817 1111 799 q 1055 841 1078 833 q 1001 849 1032 849 l 897 849 q 845 833 867 849 q 824 789 824 818 l 824 518 q 833 493 824 501 q 857 485 842 485 q 919 485 889 485 q 978 486 950 485 q 1027 509 1011 486 q 1056 561 1043 532 q 1072 584 1064 575 q 1088 593 1079 593 q 1100 585 1094 593 q 1104 563 1106 576 q 1101 506 1103 533 q 1099 453 1099 479 q 1100 399 1099 426 q 1104 340 1101 372 q 1101 313 1106 321 q 1090 304 1097 304 q 1070 315 1079 304 q 1057 338 1061 325 q 1028 401 1044 379 q 988 424 1011 424 q 920 424 953 424 q 854 424 888 424 q 831 415 839 424 q 824 392 824 407 l 824 138 q 841 79 824 99 q 896 60 858 60 l 1022 60 q 1057 63 1039 60 q 1091 74 1075 67 q 1119 89 1107 81 q 1165 142 1146 110 q 1199 208 1183 174 q 1207 225 1203 219 q 1219 231 1211 231 q 1240 211 1240 231 q 1227 117 1240 174 q 1200 13 1214 61 q 1188 -1 1197 3 q 1168 -6 1179 -6 q 1103 -5 1153 -6 q 988 -3 1054 -4 q 849 -1 921 -1 q 714 0 776 0 q 652 -1 686 0 q 585 -5 618 -3 q 521 -7 551 -7 q 501 -1 508 -7 q 493 14 493 6 q 524 43 493 35 q 590 72 571 56 q 610 132 610 89 l 610 335 q 606 351 610 343 q 585 360 601 360 l 389 360 q 369 354 378 360 q 353 335 361 349 q 310 241 331 290 q 274 153 289 192 q 265 111 265 128 q 287 70 265 85 q 353 46 308 56 q 386 17 386 39 q 378 2 386 7 q 354 -3 371 -3 q 273 -1 314 -3 q 192 1 232 1 q 111 -3 150 1 q 31 -7 72 -7 m 451 436 l 589 436 q 603 442 597 436 q 610 454 610 447 l 610 761 q 607 781 610 774 q 593 768 604 788 l 431 461 q 429 443 425 451 q 438 438 431 439 q 451 436 444 436 z "},"Ǽ":{"ha":1263,"x_min":-7,"x_max":1240,"o":"m 31 -7 q 3 -2 14 -7 q -7 15 -7 3 q 3 35 -7 28 q 26 46 13 42 q 99 85 65 58 q 151 143 132 111 l 560 831 q 560 843 563 838 q 549 850 558 849 l 503 860 q 483 872 489 864 q 476 888 476 879 q 503 908 476 908 q 605 906 547 908 q 710 903 663 903 q 842 903 771 903 q 976 906 913 904 q 1085 908 1040 907 q 1140 908 1129 908 q 1161 903 1150 908 q 1174 882 1172 897 q 1190 787 1183 833 q 1197 703 1196 740 q 1191 684 1197 690 q 1178 678 1185 678 q 1164 683 1171 678 q 1151 699 1157 688 q 1124 769 1136 740 q 1093 817 1111 799 q 1055 841 1078 833 q 1001 849 1032 849 l 897 849 q 845 833 867 849 q 824 789 824 818 l 824 518 q 833 493 824 501 q 857 485 842 485 q 919 485 889 485 q 978 486 950 485 q 1027 509 1011 486 q 1056 561 1043 532 q 1072 584 1064 575 q 1088 593 1079 593 q 1100 585 1094 593 q 1104 563 1106 576 q 1101 506 1103 533 q 1099 453 1099 479 q 1100 399 1099 426 q 1104 340 1101 372 q 1101 313 1106 321 q 1090 304 1097 304 q 1070 315 1079 304 q 1057 338 1061 325 q 1028 401 1044 379 q 988 424 1011 424 q 920 424 953 424 q 854 424 888 424 q 831 415 839 424 q 824 392 824 407 l 824 138 q 841 79 824 99 q 896 60 858 60 l 1022 60 q 1057 63 1039 60 q 1091 74 1075 67 q 1119 89 1107 81 q 1165 142 1146 110 q 1199 208 1183 174 q 1207 225 1203 219 q 1219 231 1211 231 q 1240 211 1240 231 q 1227 117 1240 174 q 1200 13 1214 61 q 1188 -1 1197 3 q 1168 -6 1179 -6 q 1103 -5 1153 -6 q 988 -3 1054 -4 q 849 -1 921 -1 q 714 0 776 0 q 652 -1 686 0 q 585 -5 618 -3 q 521 -7 551 -7 q 501 -1 508 -7 q 493 14 493 6 q 524 43 493 35 q 590 72 571 56 q 610 132 610 89 l 610 335 q 606 351 610 343 q 585 360 601 360 l 389 360 q 369 354 378 360 q 353 335 361 349 q 310 241 331 290 q 274 153 289 192 q 265 111 265 128 q 287 70 265 85 q 353 46 308 56 q 386 17 386 39 q 378 2 386 7 q 354 -3 371 -3 q 273 -1 314 -3 q 192 1 232 1 q 111 -3 150 1 q 31 -7 72 -7 m 451 436 l 589 436 q 603 442 597 436 q 610 454 610 447 l 610 761 q 607 781 610 774 q 593 768 604 788 l 431 461 q 429 443 425 451 q 438 438 431 439 q 451 436 444 436 m 726 947 q 710 960 710 950 q 725 989 710 969 q 795 1078 760 1035 q 871 1163 831 1121 q 918 1179 889 1182 q 953 1169 929 1178 q 999 1150 978 1161 q 1017 1126 1019 1139 q 990 1096 1014 1113 q 876 1026 938 1061 q 761 958 815 992 q 739 949 749 951 q 726 947 729 946 z "},"Ǣ":{"ha":1263,"x_min":-7,"x_max":1240,"o":"m 31 -7 q 3 -2 14 -7 q -7 15 -7 3 q 3 35 -7 28 q 26 46 13 42 q 99 85 65 58 q 151 143 132 111 l 560 831 q 560 843 563 838 q 549 850 558 849 l 503 860 q 483 872 489 864 q 476 888 476 879 q 503 908 476 908 q 605 906 547 908 q 710 903 663 903 q 842 903 771 903 q 976 906 913 904 q 1085 908 1040 907 q 1140 908 1129 908 q 1161 903 1150 908 q 1174 882 1172 897 q 1190 787 1183 833 q 1197 703 1196 740 q 1191 684 1197 690 q 1178 678 1185 678 q 1164 683 1171 678 q 1151 699 1157 688 q 1124 769 1136 740 q 1093 817 1111 799 q 1055 841 1078 833 q 1001 849 1032 849 l 897 849 q 845 833 867 849 q 824 789 824 818 l 824 518 q 833 493 824 501 q 857 485 842 485 q 919 485 889 485 q 978 486 950 485 q 1027 509 1011 486 q 1056 561 1043 532 q 1072 584 1064 575 q 1088 593 1079 593 q 1100 585 1094 593 q 1104 563 1106 576 q 1101 506 1103 533 q 1099 453 1099 479 q 1100 399 1099 426 q 1104 340 1101 372 q 1101 313 1106 321 q 1090 304 1097 304 q 1070 315 1079 304 q 1057 338 1061 325 q 1028 401 1044 379 q 988 424 1011 424 q 920 424 953 424 q 854 424 888 424 q 831 415 839 424 q 824 392 824 407 l 824 138 q 841 79 824 99 q 896 60 858 60 l 1022 60 q 1057 63 1039 60 q 1091 74 1075 67 q 1119 89 1107 81 q 1165 142 1146 110 q 1199 208 1183 174 q 1207 225 1203 219 q 1219 231 1211 231 q 1240 211 1240 231 q 1227 117 1240 174 q 1200 13 1214 61 q 1188 -1 1197 3 q 1168 -6 1179 -6 q 1103 -5 1153 -6 q 988 -3 1054 -4 q 849 -1 921 -1 q 714 0 776 0 q 652 -1 686 0 q 585 -5 618 -3 q 521 -7 551 -7 q 501 -1 508 -7 q 493 14 493 6 q 524 43 493 35 q 590 72 571 56 q 610 132 610 89 l 610 335 q 606 351 610 343 q 585 360 601 360 l 389 360 q 369 354 378 360 q 353 335 361 349 q 310 241 331 290 q 274 153 289 192 q 265 111 265 128 q 287 70 265 85 q 353 46 308 56 q 386 17 386 39 q 378 2 386 7 q 354 -3 371 -3 q 273 -1 314 -3 q 192 1 232 1 q 111 -3 150 1 q 31 -7 72 -7 m 451 436 l 589 436 q 603 442 597 436 q 610 454 610 447 l 610 761 q 607 781 610 774 q 593 768 604 788 l 431 461 q 429 443 425 451 q 438 438 431 439 q 451 436 444 436 m 594 996 q 575 1004 582 996 q 568 1021 568 1013 q 575 1065 568 1044 q 594 1097 582 1085 q 619 1108 607 1108 l 993 1108 q 1012 1101 1006 1108 q 1018 1083 1018 1093 q 1001 1023 1018 1050 q 961 996 985 996 l 594 996 z "},"B":{"ha":869,"x_min":24,"x_max":828,"o":"m 51 -7 q 31 -1 39 -7 q 24 14 24 6 q 54 43 24 35 q 122 72 101 56 q 142 133 142 89 l 142 765 q 124 830 142 810 q 57 860 106 850 q 32 872 39 864 q 25 889 25 879 q 33 903 25 897 q 54 910 42 910 q 128 907 99 910 q 183 902 157 904 q 243 900 208 900 q 301 903 275 900 q 360 910 328 907 q 440 913 393 913 q 691 866 606 913 q 776 706 776 819 q 757 624 776 663 q 707 561 738 586 q 660 529 685 542 q 606 508 636 517 q 600 501 600 507 q 606 494 600 496 q 681 473 642 486 q 753 435 719 460 q 808 370 788 410 q 828 269 828 331 q 803 147 828 192 q 745 78 779 101 q 682 39 711 54 q 578 6 636 17 q 439 -6 519 -6 q 347 -3 393 -6 q 249 0 300 0 q 185 -1 219 0 q 116 -5 150 -3 q 51 -7 82 -7 m 440 71 q 519 96 482 71 q 577 163 556 121 q 599 260 599 206 q 587 339 599 307 q 559 390 575 371 q 529 419 543 410 q 490 440 518 429 q 419 450 461 450 q 376 438 396 450 q 356 404 356 426 l 356 160 q 378 92 356 114 q 440 71 400 71 m 411 513 q 472 520 444 513 q 529 550 500 528 q 556 590 539 560 q 574 676 574 619 q 558 774 574 735 q 512 832 543 813 q 429 851 481 851 q 373 837 390 851 q 356 793 356 822 l 356 561 q 375 523 356 533 q 411 513 394 513 z "},"C":{"ha":985,"x_min":40,"x_max":914,"o":"m 563 -19 q 360 13 454 -19 q 193 106 265 46 q 81 251 121 167 q 40 439 40 336 q 78 622 40 535 q 190 776 117 708 q 367 883 264 843 q 601 922 471 922 q 691 916 646 922 q 778 899 736 910 q 856 875 821 888 q 877 860 868 869 q 888 835 886 851 q 896 746 893 789 q 899 668 899 703 q 888 647 899 653 q 863 647 876 642 q 844 668 850 651 q 822 732 835 700 q 782 788 808 764 q 705 833 754 815 q 586 851 656 851 q 458 821 515 851 q 359 738 400 790 q 296 618 318 685 q 274 479 274 551 q 293 309 274 388 q 353 174 313 231 q 451 85 393 117 q 589 53 510 53 q 756 97 692 53 q 863 231 819 140 q 894 254 874 256 q 914 231 914 253 q 910 187 914 213 q 900 132 907 161 q 883 72 893 103 q 869 47 878 56 q 846 31 860 38 q 721 -6 793 8 q 563 -19 649 -19 z "},"Ć":{"ha":985,"x_min":40,"x_max":914,"o":"m 563 -19 q 360 13 454 -19 q 193 106 265 46 q 81 251 121 167 q 40 439 40 336 q 78 622 40 535 q 190 776 117 708 q 367 883 264 843 q 601 922 471 922 q 691 916 646 922 q 778 899 736 910 q 856 875 821 888 q 877 860 868 869 q 888 835 886 851 q 896 746 893 789 q 899 668 899 703 q 888 647 899 653 q 863 647 876 642 q 844 668 850 651 q 822 732 835 700 q 782 788 808 764 q 705 833 754 815 q 586 851 656 851 q 458 821 515 851 q 359 738 400 790 q 296 618 318 685 q 274 479 274 551 q 293 309 274 388 q 353 174 313 231 q 451 85 393 117 q 589 53 510 53 q 756 97 692 53 q 863 231 819 140 q 894 254 874 256 q 914 231 914 253 q 910 187 914 213 q 900 132 907 161 q 883 72 893 103 q 869 47 878 56 q 846 31 860 38 q 721 -6 793 8 q 563 -19 649 -19 m 496 947 q 479 960 479 950 q 494 989 479 969 q 565 1078 529 1035 q 640 1163 600 1121 q 688 1179 658 1182 q 723 1169 699 1178 q 768 1150 747 1161 q 786 1126 789 1139 q 760 1096 783 1113 q 646 1026 707 1061 q 531 958 585 992 q 508 949 518 951 q 496 947 499 946 z "},"Č":{"ha":985,"x_min":40,"x_max":914,"o":"m 563 -19 q 360 13 454 -19 q 193 106 265 46 q 81 251 121 167 q 40 439 40 336 q 78 622 40 535 q 190 776 117 708 q 367 883 264 843 q 601 922 471 922 q 691 916 646 922 q 778 899 736 910 q 856 875 821 888 q 877 860 868 869 q 888 835 886 851 q 896 746 893 789 q 899 668 899 703 q 888 647 899 653 q 863 647 876 642 q 844 668 850 651 q 822 732 835 700 q 782 788 808 764 q 705 833 754 815 q 586 851 656 851 q 458 821 515 851 q 359 738 400 790 q 296 618 318 685 q 274 479 274 551 q 293 309 274 388 q 353 174 313 231 q 451 85 393 117 q 589 53 510 53 q 756 97 692 53 q 863 231 819 140 q 894 254 874 256 q 914 231 914 253 q 910 187 914 213 q 900 132 907 161 q 883 72 893 103 q 869 47 878 56 q 846 31 860 38 q 721 -6 793 8 q 563 -19 649 -19 m 361 1176 q 392 1169 369 1176 q 444 1151 415 1163 q 501 1129 474 1140 q 544 1108 528 1118 q 561 1103 554 1103 q 578 1108 568 1103 q 623 1130 596 1118 q 679 1153 650 1142 q 731 1171 708 1164 q 764 1178 754 1178 q 786 1160 786 1178 q 776 1138 786 1147 l 632 1010 q 594 979 607 989 q 561 969 581 969 q 529 979 543 969 q 492 1010 515 989 l 346 1139 q 335 1160 335 1149 q 361 1176 335 1176 z "},"Ç":{"ha":985,"x_min":40,"x_max":914,"o":"m 563 -19 q 360 13 454 -19 q 193 106 265 46 q 81 251 121 167 q 40 439 40 336 q 78 622 40 535 q 190 776 117 708 q 367 883 264 843 q 601 922 471 922 q 691 916 646 922 q 778 899 736 910 q 856 875 821 888 q 877 860 868 869 q 888 835 886 851 q 896 746 893 789 q 899 668 899 703 q 888 647 899 653 q 863 647 876 642 q 844 668 850 651 q 822 732 835 700 q 782 788 808 764 q 705 833 754 815 q 586 851 656 851 q 458 821 515 851 q 359 738 400 790 q 296 618 318 685 q 274 479 274 551 q 293 309 274 388 q 353 174 313 231 q 451 85 393 117 q 589 53 510 53 q 756 97 692 53 q 863 231 819 140 q 894 254 874 256 q 914 231 914 253 q 910 187 914 213 q 900 132 907 161 q 883 72 893 103 q 869 47 878 56 q 846 31 860 38 q 721 -6 793 8 q 563 -19 649 -19 m 451 -382 q 399 -372 418 -382 q 381 -322 381 -361 q 390 -289 381 -299 q 408 -279 399 -279 q 433 -288 417 -279 q 493 -297 449 -297 q 534 -286 514 -297 q 554 -244 554 -275 q 538 -203 554 -218 q 486 -189 522 -189 q 469 -192 475 -189 q 453 -196 463 -196 q 422 -185 432 -196 q 413 -165 413 -174 q 415 -150 413 -156 q 422 -139 417 -144 l 550 11 l 614 11 l 564 -54 q 571 -83 549 -75 q 633 -126 607 -97 q 660 -199 660 -154 q 626 -289 660 -247 q 544 -356 592 -331 q 451 -382 496 -382 z "},"Ĉ":{"ha":985,"x_min":40,"x_max":914,"o":"m 563 -19 q 360 13 454 -19 q 193 106 265 46 q 81 251 121 167 q 40 439 40 336 q 78 622 40 535 q 190 776 117 708 q 367 883 264 843 q 601 922 471 922 q 691 916 646 922 q 778 899 736 910 q 856 875 821 888 q 877 860 868 869 q 888 835 886 851 q 896 746 893 789 q 899 668 899 703 q 888 647 899 653 q 863 647 876 642 q 844 668 850 651 q 822 732 835 700 q 782 788 808 764 q 705 833 754 815 q 586 851 656 851 q 458 821 515 851 q 359 738 400 790 q 296 618 318 685 q 274 479 274 551 q 293 309 274 388 q 353 174 313 231 q 451 85 393 117 q 589 53 510 53 q 756 97 692 53 q 863 231 819 140 q 894 254 874 256 q 914 231 914 253 q 910 187 914 213 q 900 132 907 161 q 883 72 893 103 q 869 47 878 56 q 846 31 860 38 q 721 -6 793 8 q 563 -19 649 -19 m 361 963 q 335 979 335 963 q 346 1000 335 992 l 492 1131 q 529 1162 515 1153 q 561 1171 543 1171 q 594 1162 581 1171 q 632 1131 608 1153 l 776 1001 q 786 979 786 993 q 764 961 786 961 q 731 968 754 961 q 679 986 708 975 q 623 1009 650 997 q 578 1031 596 1021 q 561 1036 568 1036 q 544 1031 554 1036 q 501 1010 528 1021 q 444 988 474 999 q 392 969 415 976 q 361 963 369 963 z "},"Ċ":{"ha":985,"x_min":40,"x_max":914,"o":"m 563 -19 q 360 13 454 -19 q 193 106 265 46 q 81 251 121 167 q 40 439 40 336 q 78 622 40 535 q 190 776 117 708 q 367 883 264 843 q 601 922 471 922 q 691 916 646 922 q 778 899 736 910 q 856 875 821 888 q 877 860 868 869 q 888 835 886 851 q 896 746 893 789 q 899 668 899 703 q 888 647 899 653 q 863 647 876 642 q 844 668 850 651 q 822 732 835 700 q 782 788 808 764 q 705 833 754 815 q 586 851 656 851 q 458 821 515 851 q 359 738 400 790 q 296 618 318 685 q 274 479 274 551 q 293 309 274 388 q 353 174 313 231 q 451 85 393 117 q 589 53 510 53 q 756 97 692 53 q 863 231 819 140 q 894 254 874 256 q 914 231 914 253 q 910 187 914 213 q 900 132 907 161 q 883 72 893 103 q 869 47 878 56 q 846 31 860 38 q 721 -6 793 8 q 563 -19 649 -19 m 561 963 q 480 993 514 963 q 446 1067 446 1024 q 480 1143 446 1113 q 561 1174 514 1174 q 647 1143 611 1174 q 682 1067 682 1113 q 647 993 682 1024 q 561 963 611 963 z "},"D":{"ha":1064,"x_min":25,"x_max":1028,"o":"m 531 -10 q 427 -7 483 -10 q 322 -2 371 -4 q 249 0 274 0 q 188 -1 221 0 q 119 -3 154 -1 q 51 -4 83 -4 q 33 1 42 -4 q 25 15 25 6 q 33 35 25 28 q 54 44 40 42 q 126 73 107 56 q 146 135 146 90 l 146 765 q 128 828 146 810 q 54 860 110 847 q 33 869 40 863 q 25 889 25 876 q 33 904 25 899 q 51 910 42 910 q 119 908 83 910 q 188 905 154 907 q 250 903 222 903 q 308 905 272 903 q 387 909 344 907 q 469 913 429 911 q 533 915 508 915 q 728 883 639 915 q 885 790 818 850 q 990 647 953 729 q 1028 467 1028 565 q 994 288 1028 374 q 897 135 961 203 q 742 29 833 68 q 531 -10 650 -10 m 510 61 q 668 108 604 61 q 763 237 732 154 q 794 429 794 319 q 774 598 794 522 q 716 728 754 674 q 622 812 678 782 q 494 842 565 842 q 420 839 450 842 q 375 825 390 836 q 360 789 360 814 l 360 183 q 377 111 360 138 q 428 73 394 85 q 510 61 463 61 z "},"Ð":{"ha":1064,"x_min":25,"x_max":1028,"o":"m 81 425 q 56 439 64 425 q 49 465 49 453 q 60 494 49 483 q 88 506 71 506 l 507 506 q 528 499 519 506 q 536 481 536 492 q 535 478 536 479 q 535 474 535 476 q 516 441 531 457 q 479 425 501 425 l 81 425 m 531 -10 q 427 -7 483 -10 q 322 -2 371 -4 q 249 0 274 0 q 188 -1 221 0 q 119 -3 154 -1 q 51 -4 83 -4 q 33 1 42 -4 q 25 15 25 6 q 33 35 25 28 q 54 44 40 42 q 126 73 107 56 q 146 135 146 90 l 146 765 q 128 828 146 810 q 54 860 110 847 q 33 869 40 863 q 25 889 25 876 q 33 904 25 899 q 51 910 42 910 q 119 908 83 910 q 188 905 154 907 q 250 903 222 903 q 308 905 272 903 q 387 909 344 907 q 469 913 429 911 q 533 915 508 915 q 728 883 639 915 q 885 790 818 850 q 990 647 953 729 q 1028 467 1028 565 q 994 288 1028 374 q 897 135 961 203 q 742 29 833 68 q 531 -10 650 -10 m 510 61 q 668 108 604 61 q 763 237 732 154 q 794 429 794 319 q 774 598 794 522 q 716 728 754 674 q 622 812 678 782 q 494 842 565 842 q 420 839 450 842 q 375 825 390 836 q 360 789 360 814 l 360 183 q 377 111 360 138 q 428 73 394 85 q 510 61 463 61 z "},"Ď":{"ha":1064,"x_min":25,"x_max":1028,"o":"m 531 -10 q 427 -7 483 -10 q 322 -2 371 -4 q 249 0 274 0 q 188 -1 221 0 q 119 -3 154 -1 q 51 -4 83 -4 q 33 1 42 -4 q 25 15 25 6 q 33 35 25 28 q 54 44 40 42 q 126 73 107 56 q 146 135 146 90 l 146 765 q 128 828 146 810 q 54 860 110 847 q 33 869 40 863 q 25 889 25 876 q 33 904 25 899 q 51 910 42 910 q 119 908 83 910 q 188 905 154 907 q 250 903 222 903 q 308 905 272 903 q 387 909 344 907 q 469 913 429 911 q 533 915 508 915 q 728 883 639 915 q 885 790 818 850 q 990 647 953 729 q 1028 467 1028 565 q 994 288 1028 374 q 897 135 961 203 q 742 29 833 68 q 531 -10 650 -10 m 510 61 q 668 108 604 61 q 763 237 732 154 q 794 429 794 319 q 774 598 794 522 q 716 728 754 674 q 622 812 678 782 q 494 842 565 842 q 420 839 450 842 q 375 825 390 836 q 360 789 360 814 l 360 183 q 377 111 360 138 q 428 73 394 85 q 510 61 463 61 m 325 1176 q 356 1169 333 1176 q 408 1151 379 1163 q 465 1129 438 1140 q 508 1108 492 1118 q 525 1103 518 1103 q 542 1108 532 1103 q 587 1130 560 1118 q 643 1153 614 1142 q 695 1171 672 1164 q 728 1178 718 1178 q 750 1160 750 1178 q 740 1138 750 1147 l 596 1010 q 558 979 571 989 q 525 969 544 969 q 493 979 507 969 q 456 1010 479 989 l 310 1139 q 299 1160 299 1149 q 325 1176 299 1176 z "},"Đ":{"ha":1064,"x_min":25,"x_max":1028,"o":"m 81 425 q 56 439 64 425 q 49 465 49 453 q 60 494 49 483 q 88 506 71 506 l 507 506 q 528 499 519 506 q 536 481 536 492 q 535 478 536 479 q 535 474 535 476 q 516 441 531 457 q 479 425 501 425 l 81 425 m 531 -10 q 427 -7 483 -10 q 322 -2 371 -4 q 249 0 274 0 q 188 -1 221 0 q 119 -3 154 -1 q 51 -4 83 -4 q 33 1 42 -4 q 25 15 25 6 q 33 35 25 28 q 54 44 40 42 q 126 73 107 56 q 146 135 146 90 l 146 765 q 128 828 146 810 q 54 860 110 847 q 33 869 40 863 q 25 889 25 876 q 33 904 25 899 q 51 910 42 910 q 119 908 83 910 q 188 905 154 907 q 250 903 222 903 q 308 905 272 903 q 387 909 344 907 q 469 913 429 911 q 533 915 508 915 q 728 883 639 915 q 885 790 818 850 q 990 647 953 729 q 1028 467 1028 565 q 994 288 1028 374 q 897 135 961 203 q 742 29 833 68 q 531 -10 650 -10 m 510 61 q 668 108 604 61 q 763 237 732 154 q 794 429 794 319 q 774 598 794 522 q 716 728 754 674 q 622 812 678 782 q 494 842 565 842 q 420 839 450 842 q 375 825 390 836 q 360 789 360 814 l 360 183 q 377 111 360 138 q 428 73 394 85 q 510 61 463 61 z "},"E":{"ha":799,"x_min":28,"x_max":776,"o":"m 57 -7 q 35 -1 43 -7 q 28 14 28 6 q 58 43 28 35 q 126 72 106 56 q 146 133 146 89 l 146 765 q 128 829 146 810 q 60 860 110 849 q 35 872 42 864 q 28 889 28 879 q 36 903 28 897 q 58 910 44 910 q 129 908 93 910 q 200 905 165 907 q 267 903 235 903 q 421 904 339 903 q 567 907 503 906 q 640 912 611 907 q 675 917 669 917 q 697 910 685 917 q 710 890 708 904 q 724 793 715 840 q 732 710 732 746 q 726 690 732 697 q 714 683 721 683 q 699 689 707 683 q 688 706 692 694 q 663 765 674 740 q 638 806 651 790 q 597 835 621 821 q 538 849 574 849 l 433 849 q 381 833 403 849 q 358 788 358 817 l 358 525 q 368 500 358 508 q 393 492 378 492 l 515 492 q 567 516 551 492 q 596 575 583 540 q 624 601 606 601 q 636 594 631 601 q 640 571 642 586 q 638 535 639 554 q 635 496 636 515 q 635 458 635 476 q 635 422 635 442 q 637 383 636 403 q 639 346 638 364 q 638 317 642 326 q 625 308 633 308 q 593 344 603 308 q 565 408 581 386 q 522 431 550 431 l 393 431 q 367 423 376 431 q 358 399 358 415 l 358 135 q 376 76 358 93 q 432 60 394 60 l 551 60 q 610 67 582 60 q 657 90 638 74 q 700 139 681 110 q 736 201 719 168 q 748 215 742 211 q 763 218 754 218 q 773 210 769 218 q 776 192 776 201 q 769 139 776 168 q 752 77 763 110 q 732 13 742 44 q 720 -1 729 3 q 701 -6 711 -6 q 634 -5 683 -6 q 518 -3 585 -4 q 381 -1 451 -1 q 249 0 310 0 q 188 -1 221 0 q 120 -5 154 -3 q 57 -7 86 -7 z "},"É":{"ha":799,"x_min":28,"x_max":776,"o":"m 57 -7 q 35 -1 43 -7 q 28 14 28 6 q 58 43 28 35 q 126 72 106 56 q 146 133 146 89 l 146 765 q 128 829 146 810 q 60 860 110 849 q 35 872 42 864 q 28 889 28 879 q 36 903 28 897 q 58 910 44 910 q 129 908 93 910 q 200 905 165 907 q 267 903 235 903 q 421 904 339 903 q 567 907 503 906 q 640 912 611 907 q 675 917 669 917 q 697 910 685 917 q 710 890 708 904 q 724 793 715 840 q 732 710 732 746 q 726 690 732 697 q 714 683 721 683 q 699 689 707 683 q 688 706 692 694 q 663 765 674 740 q 638 806 651 790 q 597 835 621 821 q 538 849 574 849 l 433 849 q 381 833 403 849 q 358 788 358 817 l 358 525 q 368 500 358 508 q 393 492 378 492 l 515 492 q 567 516 551 492 q 596 575 583 540 q 624 601 606 601 q 636 594 631 601 q 640 571 642 586 q 638 535 639 554 q 635 496 636 515 q 635 458 635 476 q 635 422 635 442 q 637 383 636 403 q 639 346 638 364 q 638 317 642 326 q 625 308 633 308 q 593 344 603 308 q 565 408 581 386 q 522 431 550 431 l 393 431 q 367 423 376 431 q 358 399 358 415 l 358 135 q 376 76 358 93 q 432 60 394 60 l 551 60 q 610 67 582 60 q 657 90 638 74 q 700 139 681 110 q 736 201 719 168 q 748 215 742 211 q 763 218 754 218 q 773 210 769 218 q 776 192 776 201 q 769 139 776 168 q 752 77 763 110 q 732 13 742 44 q 720 -1 729 3 q 701 -6 711 -6 q 634 -5 683 -6 q 518 -3 585 -4 q 381 -1 451 -1 q 249 0 310 0 q 188 -1 221 0 q 120 -5 154 -3 q 57 -7 86 -7 m 349 947 q 332 960 332 950 q 347 989 332 969 q 417 1078 382 1035 q 493 1163 453 1121 q 540 1179 511 1182 q 576 1169 551 1178 q 621 1150 600 1161 q 639 1126 642 1139 q 613 1096 636 1113 q 499 1026 560 1061 q 383 958 438 992 q 361 949 371 951 q 349 947 351 946 z "},"Ĕ":{"ha":799,"x_min":28,"x_max":776,"o":"m 57 -7 q 35 -1 43 -7 q 28 14 28 6 q 58 43 28 35 q 126 72 106 56 q 146 133 146 89 l 146 765 q 128 829 146 810 q 60 860 110 849 q 35 872 42 864 q 28 889 28 879 q 36 903 28 897 q 58 910 44 910 q 129 908 93 910 q 200 905 165 907 q 267 903 235 903 q 421 904 339 903 q 567 907 503 906 q 640 912 611 907 q 675 917 669 917 q 697 910 685 917 q 710 890 708 904 q 724 793 715 840 q 732 710 732 746 q 726 690 732 697 q 714 683 721 683 q 699 689 707 683 q 688 706 692 694 q 663 765 674 740 q 638 806 651 790 q 597 835 621 821 q 538 849 574 849 l 433 849 q 381 833 403 849 q 358 788 358 817 l 358 525 q 368 500 358 508 q 393 492 378 492 l 515 492 q 567 516 551 492 q 596 575 583 540 q 624 601 606 601 q 636 594 631 601 q 640 571 642 586 q 638 535 639 554 q 635 496 636 515 q 635 458 635 476 q 635 422 635 442 q 637 383 636 403 q 639 346 638 364 q 638 317 642 326 q 625 308 633 308 q 593 344 603 308 q 565 408 581 386 q 522 431 550 431 l 393 431 q 367 423 376 431 q 358 399 358 415 l 358 135 q 376 76 358 93 q 432 60 394 60 l 551 60 q 610 67 582 60 q 657 90 638 74 q 700 139 681 110 q 736 201 719 168 q 748 215 742 211 q 763 218 754 218 q 773 210 769 218 q 776 192 776 201 q 769 139 776 168 q 752 77 763 110 q 732 13 742 44 q 720 -1 729 3 q 701 -6 711 -6 q 634 -5 683 -6 q 518 -3 585 -4 q 381 -1 451 -1 q 249 0 310 0 q 188 -1 221 0 q 120 -5 154 -3 q 57 -7 86 -7 m 415 953 q 302 983 347 953 q 235 1053 257 1013 q 214 1125 214 1093 q 217 1152 214 1143 q 232 1161 221 1161 q 253 1153 244 1161 q 272 1132 261 1144 q 335 1082 303 1097 q 415 1067 368 1067 q 495 1082 463 1067 q 558 1132 528 1097 q 578 1153 569 1144 q 599 1161 586 1161 q 614 1152 611 1161 q 617 1125 617 1143 q 595 1053 617 1093 q 529 983 574 1013 q 415 953 485 953 z "},"Ě":{"ha":799,"x_min":28,"x_max":776,"o":"m 57 -7 q 35 -1 43 -7 q 28 14 28 6 q 58 43 28 35 q 126 72 106 56 q 146 133 146 89 l 146 765 q 128 829 146 810 q 60 860 110 849 q 35 872 42 864 q 28 889 28 879 q 36 903 28 897 q 58 910 44 910 q 129 908 93 910 q 200 905 165 907 q 267 903 235 903 q 421 904 339 903 q 567 907 503 906 q 640 912 611 907 q 675 917 669 917 q 697 910 685 917 q 710 890 708 904 q 724 793 715 840 q 732 710 732 746 q 726 690 732 697 q 714 683 721 683 q 699 689 707 683 q 688 706 692 694 q 663 765 674 740 q 638 806 651 790 q 597 835 621 821 q 538 849 574 849 l 433 849 q 381 833 403 849 q 358 788 358 817 l 358 525 q 368 500 358 508 q 393 492 378 492 l 515 492 q 567 516 551 492 q 596 575 583 540 q 624 601 606 601 q 636 594 631 601 q 640 571 642 586 q 638 535 639 554 q 635 496 636 515 q 635 458 635 476 q 635 422 635 442 q 637 383 636 403 q 639 346 638 364 q 638 317 642 326 q 625 308 633 308 q 593 344 603 308 q 565 408 581 386 q 522 431 550 431 l 393 431 q 367 423 376 431 q 358 399 358 415 l 358 135 q 376 76 358 93 q 432 60 394 60 l 551 60 q 610 67 582 60 q 657 90 638 74 q 700 139 681 110 q 736 201 719 168 q 748 215 742 211 q 763 218 754 218 q 773 210 769 218 q 776 192 776 201 q 769 139 776 168 q 752 77 763 110 q 732 13 742 44 q 720 -1 729 3 q 701 -6 711 -6 q 634 -5 683 -6 q 518 -3 585 -4 q 381 -1 451 -1 q 249 0 310 0 q 188 -1 221 0 q 120 -5 154 -3 q 57 -7 86 -7 m 215 1176 q 247 1169 224 1176 q 299 1151 269 1163 q 355 1129 328 1140 q 399 1108 382 1118 q 415 1103 408 1103 q 432 1108 422 1103 q 477 1130 450 1118 q 533 1153 504 1142 q 585 1171 563 1164 q 618 1178 608 1178 q 640 1160 640 1178 q 631 1138 640 1147 l 486 1010 q 448 979 461 989 q 415 969 435 969 q 383 979 397 969 q 346 1010 369 989 l 200 1139 q 189 1160 189 1149 q 215 1176 189 1176 z "},"Ê":{"ha":799,"x_min":28,"x_max":776,"o":"m 57 -7 q 35 -1 43 -7 q 28 14 28 6 q 58 43 28 35 q 126 72 106 56 q 146 133 146 89 l 146 765 q 128 829 146 810 q 60 860 110 849 q 35 872 42 864 q 28 889 28 879 q 36 903 28 897 q 58 910 44 910 q 129 908 93 910 q 200 905 165 907 q 267 903 235 903 q 421 904 339 903 q 567 907 503 906 q 640 912 611 907 q 675 917 669 917 q 697 910 685 917 q 710 890 708 904 q 724 793 715 840 q 732 710 732 746 q 726 690 732 697 q 714 683 721 683 q 699 689 707 683 q 688 706 692 694 q 663 765 674 740 q 638 806 651 790 q 597 835 621 821 q 538 849 574 849 l 433 849 q 381 833 403 849 q 358 788 358 817 l 358 525 q 368 500 358 508 q 393 492 378 492 l 515 492 q 567 516 551 492 q 596 575 583 540 q 624 601 606 601 q 636 594 631 601 q 640 571 642 586 q 638 535 639 554 q 635 496 636 515 q 635 458 635 476 q 635 422 635 442 q 637 383 636 403 q 639 346 638 364 q 638 317 642 326 q 625 308 633 308 q 593 344 603 308 q 565 408 581 386 q 522 431 550 431 l 393 431 q 367 423 376 431 q 358 399 358 415 l 358 135 q 376 76 358 93 q 432 60 394 60 l 551 60 q 610 67 582 60 q 657 90 638 74 q 700 139 681 110 q 736 201 719 168 q 748 215 742 211 q 763 218 754 218 q 773 210 769 218 q 776 192 776 201 q 769 139 776 168 q 752 77 763 110 q 732 13 742 44 q 720 -1 729 3 q 701 -6 711 -6 q 634 -5 683 -6 q 518 -3 585 -4 q 381 -1 451 -1 q 249 0 310 0 q 188 -1 221 0 q 120 -5 154 -3 q 57 -7 86 -7 m 215 963 q 189 979 189 963 q 200 1000 189 992 l 346 1131 q 383 1162 369 1153 q 415 1171 397 1171 q 449 1162 435 1171 q 486 1131 463 1153 l 631 1001 q 640 979 640 993 q 618 961 640 961 q 585 968 608 961 q 533 986 563 975 q 477 1009 504 997 q 432 1031 450 1021 q 415 1036 422 1036 q 399 1031 408 1036 q 355 1010 382 1021 q 299 988 328 999 q 247 969 269 976 q 215 963 224 963 z "},"Ë":{"ha":799,"x_min":28,"x_max":776,"o":"m 57 -7 q 35 -1 43 -7 q 28 14 28 6 q 58 43 28 35 q 126 72 106 56 q 146 133 146 89 l 146 765 q 128 829 146 810 q 60 860 110 849 q 35 872 42 864 q 28 889 28 879 q 36 903 28 897 q 58 910 44 910 q 129 908 93 910 q 200 905 165 907 q 267 903 235 903 q 421 904 339 903 q 567 907 503 906 q 640 912 611 907 q 675 917 669 917 q 697 910 685 917 q 710 890 708 904 q 724 793 715 840 q 732 710 732 746 q 726 690 732 697 q 714 683 721 683 q 699 689 707 683 q 688 706 692 694 q 663 765 674 740 q 638 806 651 790 q 597 835 621 821 q 538 849 574 849 l 433 849 q 381 833 403 849 q 358 788 358 817 l 358 525 q 368 500 358 508 q 393 492 378 492 l 515 492 q 567 516 551 492 q 596 575 583 540 q 624 601 606 601 q 636 594 631 601 q 640 571 642 586 q 638 535 639 554 q 635 496 636 515 q 635 458 635 476 q 635 422 635 442 q 637 383 636 403 q 639 346 638 364 q 638 317 642 326 q 625 308 633 308 q 593 344 603 308 q 565 408 581 386 q 522 431 550 431 l 393 431 q 367 423 376 431 q 358 399 358 415 l 358 135 q 376 76 358 93 q 432 60 394 60 l 551 60 q 610 67 582 60 q 657 90 638 74 q 700 139 681 110 q 736 201 719 168 q 748 215 742 211 q 763 218 754 218 q 773 210 769 218 q 776 192 776 201 q 769 139 776 168 q 752 77 763 110 q 732 13 742 44 q 720 -1 729 3 q 701 -6 711 -6 q 634 -5 683 -6 q 518 -3 585 -4 q 381 -1 451 -1 q 249 0 310 0 q 188 -1 221 0 q 120 -5 154 -3 q 57 -7 86 -7 m 551 956 q 482 985 511 956 q 453 1054 453 1014 q 482 1126 453 1097 q 551 1154 511 1154 q 626 1126 596 1154 q 656 1054 656 1097 q 626 985 656 1014 q 551 956 596 956 m 278 956 q 208 985 238 956 q 178 1054 178 1014 q 208 1126 178 1097 q 278 1154 238 1154 q 351 1126 321 1154 q 381 1054 381 1097 q 351 985 381 1014 q 278 956 321 956 z "},"Ė":{"ha":799,"x_min":28,"x_max":776,"o":"m 57 -7 q 35 -1 43 -7 q 28 14 28 6 q 58 43 28 35 q 126 72 106 56 q 146 133 146 89 l 146 765 q 128 829 146 810 q 60 860 110 849 q 35 872 42 864 q 28 889 28 879 q 36 903 28 897 q 58 910 44 910 q 129 908 93 910 q 200 905 165 907 q 267 903 235 903 q 421 904 339 903 q 567 907 503 906 q 640 912 611 907 q 675 917 669 917 q 697 910 685 917 q 710 890 708 904 q 724 793 715 840 q 732 710 732 746 q 726 690 732 697 q 714 683 721 683 q 699 689 707 683 q 688 706 692 694 q 663 765 674 740 q 638 806 651 790 q 597 835 621 821 q 538 849 574 849 l 433 849 q 381 833 403 849 q 358 788 358 817 l 358 525 q 368 500 358 508 q 393 492 378 492 l 515 492 q 567 516 551 492 q 596 575 583 540 q 624 601 606 601 q 636 594 631 601 q 640 571 642 586 q 638 535 639 554 q 635 496 636 515 q 635 458 635 476 q 635 422 635 442 q 637 383 636 403 q 639 346 638 364 q 638 317 642 326 q 625 308 633 308 q 593 344 603 308 q 565 408 581 386 q 522 431 550 431 l 393 431 q 367 423 376 431 q 358 399 358 415 l 358 135 q 376 76 358 93 q 432 60 394 60 l 551 60 q 610 67 582 60 q 657 90 638 74 q 700 139 681 110 q 736 201 719 168 q 748 215 742 211 q 763 218 754 218 q 773 210 769 218 q 776 192 776 201 q 769 139 776 168 q 752 77 763 110 q 732 13 742 44 q 720 -1 729 3 q 701 -6 711 -6 q 634 -5 683 -6 q 518 -3 585 -4 q 381 -1 451 -1 q 249 0 310 0 q 188 -1 221 0 q 120 -5 154 -3 q 57 -7 86 -7 m 414 963 q 333 993 367 963 q 299 1067 299 1024 q 333 1143 299 1113 q 414 1174 367 1174 q 499 1143 464 1174 q 535 1067 535 1113 q 499 993 535 1024 q 414 963 464 963 z "},"È":{"ha":799,"x_min":28,"x_max":776,"o":"m 454 947 q 440 949 450 946 q 418 958 431 951 q 304 1026 365 992 q 189 1096 243 1061 q 163 1126 167 1113 q 181 1150 161 1139 q 226 1169 201 1161 q 261 1179 251 1178 q 308 1163 290 1182 q 385 1078 350 1121 q 456 989 419 1035 q 469 960 469 969 q 454 947 469 950 m 57 -7 q 35 -1 43 -7 q 28 14 28 6 q 58 43 28 35 q 126 72 106 56 q 146 133 146 89 l 146 765 q 128 829 146 810 q 60 860 110 849 q 35 872 42 864 q 28 889 28 879 q 36 903 28 897 q 58 910 44 910 q 129 908 93 910 q 200 905 165 907 q 267 903 235 903 q 421 904 339 903 q 567 907 503 906 q 640 912 611 907 q 675 917 669 917 q 697 910 685 917 q 710 890 708 904 q 724 793 715 840 q 732 710 732 746 q 726 690 732 697 q 714 683 721 683 q 699 689 707 683 q 688 706 692 694 q 663 765 674 740 q 638 806 651 790 q 597 835 621 821 q 538 849 574 849 l 433 849 q 381 833 403 849 q 358 788 358 817 l 358 525 q 368 500 358 508 q 393 492 378 492 l 515 492 q 567 516 551 492 q 596 575 583 540 q 624 601 606 601 q 636 594 631 601 q 640 571 642 586 q 638 535 639 554 q 635 496 636 515 q 635 458 635 476 q 635 422 635 442 q 637 383 636 403 q 639 346 638 364 q 638 317 642 326 q 625 308 633 308 q 593 344 603 308 q 565 408 581 386 q 522 431 550 431 l 393 431 q 367 423 376 431 q 358 399 358 415 l 358 135 q 376 76 358 93 q 432 60 394 60 l 551 60 q 610 67 582 60 q 657 90 638 74 q 700 139 681 110 q 736 201 719 168 q 748 215 742 211 q 763 218 754 218 q 773 210 769 218 q 776 192 776 201 q 769 139 776 168 q 752 77 763 110 q 732 13 742 44 q 720 -1 729 3 q 701 -6 711 -6 q 634 -5 683 -6 q 518 -3 585 -4 q 381 -1 451 -1 q 249 0 310 0 q 188 -1 221 0 q 120 -5 154 -3 q 57 -7 86 -7 z "},"Ē":{"ha":799,"x_min":28,"x_max":776,"o":"m 57 -7 q 35 -1 43 -7 q 28 14 28 6 q 58 43 28 35 q 126 72 106 56 q 146 133 146 89 l 146 765 q 128 829 146 810 q 60 860 110 849 q 35 872 42 864 q 28 889 28 879 q 36 903 28 897 q 58 910 44 910 q 129 908 93 910 q 200 905 165 907 q 267 903 235 903 q 421 904 339 903 q 567 907 503 906 q 640 912 611 907 q 675 917 669 917 q 697 910 685 917 q 710 890 708 904 q 724 793 715 840 q 732 710 732 746 q 726 690 732 697 q 714 683 721 683 q 699 689 707 683 q 688 706 692 694 q 663 765 674 740 q 638 806 651 790 q 597 835 621 821 q 538 849 574 849 l 433 849 q 381 833 403 849 q 358 788 358 817 l 358 525 q 368 500 358 508 q 393 492 378 492 l 515 492 q 567 516 551 492 q 596 575 583 540 q 624 601 606 601 q 636 594 631 601 q 640 571 642 586 q 638 535 639 554 q 635 496 636 515 q 635 458 635 476 q 635 422 635 442 q 637 383 636 403 q 639 346 638 364 q 638 317 642 326 q 625 308 633 308 q 593 344 603 308 q 565 408 581 386 q 522 431 550 431 l 393 431 q 367 423 376 431 q 358 399 358 415 l 358 135 q 376 76 358 93 q 432 60 394 60 l 551 60 q 610 67 582 60 q 657 90 638 74 q 700 139 681 110 q 736 201 719 168 q 748 215 742 211 q 763 218 754 218 q 773 210 769 218 q 776 192 776 201 q 769 139 776 168 q 752 77 763 110 q 732 13 742 44 q 720 -1 729 3 q 701 -6 711 -6 q 634 -5 683 -6 q 518 -3 585 -4 q 381 -1 451 -1 q 249 0 310 0 q 188 -1 221 0 q 120 -5 154 -3 q 57 -7 86 -7 m 218 996 q 199 1004 206 996 q 192 1021 192 1013 q 199 1065 192 1044 q 218 1097 206 1085 q 243 1108 231 1108 l 617 1108 q 635 1101 629 1108 q 642 1083 642 1093 q 625 1023 642 1050 q 585 996 608 996 l 218 996 z "},"Ę":{"ha":785,"x_min":28,"x_max":776,"o":"m 57 -7 q 35 -1 43 -7 q 28 14 28 6 q 58 43 28 35 q 126 72 106 56 q 146 133 146 89 l 146 765 q 128 829 146 810 q 60 860 110 849 q 35 872 42 864 q 28 889 28 879 q 36 903 28 897 q 58 910 44 910 q 129 908 93 910 q 200 905 165 907 q 267 903 235 903 q 421 904 339 903 q 567 907 503 906 q 640 912 611 907 q 675 917 669 917 q 697 910 685 917 q 710 890 708 904 q 724 793 715 840 q 732 710 732 746 q 726 690 732 697 q 714 683 721 683 q 699 689 707 683 q 688 706 692 694 q 663 765 674 740 q 638 806 651 790 q 597 835 621 821 q 538 849 574 849 l 433 849 q 381 833 403 849 q 358 788 358 817 l 358 525 q 368 500 358 508 q 393 492 378 492 l 515 492 q 567 516 551 492 q 596 575 583 540 q 624 601 606 601 q 636 594 631 601 q 640 571 642 586 q 638 535 639 554 q 635 496 636 515 q 635 458 635 476 q 635 422 635 442 q 637 383 636 403 q 639 346 638 364 q 638 317 642 326 q 625 308 633 308 q 593 344 603 308 q 565 408 581 386 q 522 431 550 431 l 393 431 q 367 423 376 431 q 358 399 358 415 l 358 135 q 376 76 358 93 q 432 60 394 60 l 551 60 q 610 67 582 60 q 657 90 638 74 q 700 139 681 110 q 736 201 719 168 q 748 215 742 211 q 763 218 754 218 q 773 210 769 218 q 776 192 776 201 q 769 139 776 168 q 752 77 763 110 q 732 13 742 44 q 720 -1 729 3 q 701 -6 711 -6 q 634 -5 683 -6 q 518 -3 585 -4 q 381 -1 451 -1 q 249 0 310 0 q 188 -1 221 0 q 120 -5 154 -3 q 57 -7 86 -7 m 551 -399 q 432 -358 478 -399 q 386 -242 386 -317 q 402 -173 386 -206 q 443 -111 418 -140 q 499 -57 468 -82 q 563 -11 531 -32 q 622 25 596 10 l 679 25 q 631 -22 656 3 q 585 -75 606 -46 q 553 -135 565 -104 q 540 -204 540 -167 q 562 -258 540 -237 q 618 -279 583 -279 q 655 -273 639 -279 q 684 -258 671 -267 q 708 -237 697 -249 q 730 -232 717 -231 q 743 -256 743 -233 q 727 -306 743 -281 q 684 -352 711 -331 q 623 -386 657 -374 q 551 -399 589 -399 z "},"F":{"ha":758,"x_min":25,"x_max":732,"o":"m 53 -4 q 33 1 42 -4 q 25 15 25 6 q 54 44 25 38 q 126 73 107 56 q 146 136 146 90 l 146 758 q 129 827 146 806 q 63 860 113 849 q 38 872 44 864 q 31 889 31 879 q 39 903 31 897 q 61 910 47 910 q 131 908 94 910 q 201 905 167 907 q 268 903 236 903 q 387 903 322 903 q 511 903 451 903 q 615 910 568 903 q 690 918 661 918 q 713 913 701 918 q 725 892 724 907 q 729 825 728 860 q 731 758 731 790 q 732 704 732 726 q 715 676 732 676 q 699 682 708 676 q 688 699 690 688 q 667 760 678 733 q 638 806 656 788 q 595 833 619 825 q 538 842 571 842 l 433 842 q 379 824 399 842 q 360 778 360 807 q 360 719 360 753 q 360 660 360 686 q 360 593 360 629 q 360 526 360 557 q 368 501 360 508 q 392 493 376 493 q 461 493 426 493 q 526 493 496 493 q 579 515 563 493 q 608 565 596 536 q 622 583 614 576 q 636 590 629 590 q 649 582 643 590 q 654 560 656 574 q 649 505 651 531 q 647 460 647 479 q 649 415 647 433 q 653 364 650 396 q 650 337 654 346 q 639 328 646 328 q 619 338 628 328 q 606 361 610 349 q 578 417 594 403 q 536 432 561 432 q 503 432 521 432 q 471 432 486 432 q 430 432 451 432 q 389 431 408 432 q 366 422 374 431 q 358 399 358 414 q 359 268 358 336 q 361 138 360 200 q 385 75 361 93 q 467 44 408 57 q 488 35 481 42 q 496 17 496 29 q 490 1 496 7 q 471 -4 483 -4 q 400 -2 440 -4 q 321 1 360 0 q 254 3 282 3 q 192 1 226 3 q 121 -2 157 0 q 53 -4 85 -4 z "},"G":{"ha":999,"x_min":40,"x_max":964,"o":"m 526 -19 q 338 13 426 -19 q 183 107 250 46 q 78 251 115 168 q 40 436 40 335 q 77 619 40 532 q 183 775 114 707 q 349 883 251 843 q 564 922 446 922 q 631 918 593 922 q 710 907 669 914 q 785 891 750 900 q 843 872 821 882 q 863 860 856 868 q 871 839 869 853 q 883 747 878 790 q 888 675 888 704 q 881 654 888 661 q 864 647 875 647 q 840 656 847 647 q 826 676 832 664 q 798 731 814 703 q 760 783 782 760 q 720 815 743 800 q 664 840 697 831 q 583 850 631 850 q 450 819 508 850 q 352 735 392 789 q 292 615 313 682 q 272 472 272 547 q 290 302 272 379 q 343 169 308 225 q 429 84 378 114 q 549 54 481 54 q 608 67 585 54 q 644 89 631 79 q 667 124 658 100 q 676 179 676 149 q 678 214 678 192 q 678 258 678 236 q 679 293 679 281 q 673 322 679 308 q 649 342 667 335 q 620 356 636 350 q 588 365 604 361 q 560 371 572 368 q 538 381 549 372 q 526 401 526 389 q 536 417 526 411 q 556 422 546 422 q 626 421 588 422 q 701 417 664 419 q 768 415 739 415 q 853 418 808 415 q 940 421 899 421 q 957 416 950 421 q 964 400 964 411 q 956 380 964 386 q 936 371 949 374 q 883 346 897 361 q 864 303 869 331 q 856 249 858 272 q 854 199 854 226 l 854 154 q 860 140 854 147 q 872 126 865 133 q 882 113 878 119 q 886 97 886 106 q 881 80 886 89 q 860 68 875 71 q 821 53 849 67 q 751 23 793 40 q 653 -7 710 6 q 526 -19 596 -19 z "},"Ğ":{"ha":999,"x_min":40,"x_max":964,"o":"m 526 -19 q 338 13 426 -19 q 183 107 250 46 q 78 251 115 168 q 40 436 40 335 q 77 619 40 532 q 183 775 114 707 q 349 883 251 843 q 564 922 446 922 q 631 918 593 922 q 710 907 669 914 q 785 891 750 900 q 843 872 821 882 q 863 860 856 868 q 871 839 869 853 q 883 747 878 790 q 888 675 888 704 q 881 654 888 661 q 864 647 875 647 q 840 656 847 647 q 826 676 832 664 q 798 731 814 703 q 760 783 782 760 q 720 815 743 800 q 664 840 697 831 q 583 850 631 850 q 450 819 508 850 q 352 735 392 789 q 292 615 313 682 q 272 472 272 547 q 290 302 272 379 q 343 169 308 225 q 429 84 378 114 q 549 54 481 54 q 608 67 585 54 q 644 89 631 79 q 667 124 658 100 q 676 179 676 149 q 678 214 678 192 q 678 258 678 236 q 679 293 679 281 q 673 322 679 308 q 649 342 667 335 q 620 356 636 350 q 588 365 604 361 q 560 371 572 368 q 538 381 549 372 q 526 401 526 389 q 536 417 526 411 q 556 422 546 422 q 626 421 588 422 q 701 417 664 419 q 768 415 739 415 q 853 418 808 415 q 940 421 899 421 q 957 416 950 421 q 964 400 964 411 q 956 380 964 386 q 936 371 949 374 q 883 346 897 361 q 864 303 869 331 q 856 249 858 272 q 854 199 854 226 l 854 154 q 860 140 854 147 q 872 126 865 133 q 882 113 878 119 q 886 97 886 106 q 881 80 886 89 q 860 68 875 71 q 821 53 849 67 q 751 23 793 40 q 653 -7 710 6 q 526 -19 596 -19 m 575 953 q 462 983 507 953 q 395 1053 417 1013 q 374 1125 374 1093 q 377 1152 374 1143 q 392 1161 381 1161 q 413 1153 404 1161 q 432 1132 421 1144 q 495 1082 463 1097 q 575 1067 528 1067 q 655 1082 622 1067 q 718 1132 688 1097 q 738 1153 729 1144 q 758 1161 746 1161 q 774 1152 771 1161 q 776 1125 776 1143 q 755 1053 776 1093 q 689 983 733 1013 q 575 953 644 953 z "},"Ǧ":{"ha":999,"x_min":40,"x_max":964,"o":"m 526 -19 q 338 13 426 -19 q 183 107 250 46 q 78 251 115 168 q 40 436 40 335 q 77 619 40 532 q 183 775 114 707 q 349 883 251 843 q 564 922 446 922 q 631 918 593 922 q 710 907 669 914 q 785 891 750 900 q 843 872 821 882 q 863 860 856 868 q 871 839 869 853 q 883 747 878 790 q 888 675 888 704 q 881 654 888 661 q 864 647 875 647 q 840 656 847 647 q 826 676 832 664 q 798 731 814 703 q 760 783 782 760 q 720 815 743 800 q 664 840 697 831 q 583 850 631 850 q 450 819 508 850 q 352 735 392 789 q 292 615 313 682 q 272 472 272 547 q 290 302 272 379 q 343 169 308 225 q 429 84 378 114 q 549 54 481 54 q 608 67 585 54 q 644 89 631 79 q 667 124 658 100 q 676 179 676 149 q 678 214 678 192 q 678 258 678 236 q 679 293 679 281 q 673 322 679 308 q 649 342 667 335 q 620 356 636 350 q 588 365 604 361 q 560 371 572 368 q 538 381 549 372 q 526 401 526 389 q 536 417 526 411 q 556 422 546 422 q 626 421 588 422 q 701 417 664 419 q 768 415 739 415 q 853 418 808 415 q 940 421 899 421 q 957 416 950 421 q 964 400 964 411 q 956 380 964 386 q 936 371 949 374 q 883 346 897 361 q 864 303 869 331 q 856 249 858 272 q 854 199 854 226 l 854 154 q 860 140 854 147 q 872 126 865 133 q 882 113 878 119 q 886 97 886 106 q 881 80 886 89 q 860 68 875 71 q 821 53 849 67 q 751 23 793 40 q 653 -7 710 6 q 526 -19 596 -19 m 375 1176 q 406 1169 383 1176 q 458 1151 429 1163 q 515 1129 488 1140 q 558 1108 542 1118 q 575 1103 568 1103 q 592 1108 582 1103 q 637 1130 610 1118 q 693 1153 664 1142 q 745 1171 722 1164 q 778 1178 768 1178 q 800 1160 800 1178 q 790 1138 800 1147 l 646 1010 q 608 979 621 989 q 575 969 594 969 q 543 979 557 969 q 506 1010 529 989 l 360 1139 q 349 1160 349 1149 q 375 1176 349 1176 z "},"Ĝ":{"ha":999,"x_min":40,"x_max":964,"o":"m 526 -19 q 338 13 426 -19 q 183 107 250 46 q 78 251 115 168 q 40 436 40 335 q 77 619 40 532 q 183 775 114 707 q 349 883 251 843 q 564 922 446 922 q 631 918 593 922 q 710 907 669 914 q 785 891 750 900 q 843 872 821 882 q 863 860 856 868 q 871 839 869 853 q 883 747 878 790 q 888 675 888 704 q 881 654 888 661 q 864 647 875 647 q 840 656 847 647 q 826 676 832 664 q 798 731 814 703 q 760 783 782 760 q 720 815 743 800 q 664 840 697 831 q 583 850 631 850 q 450 819 508 850 q 352 735 392 789 q 292 615 313 682 q 272 472 272 547 q 290 302 272 379 q 343 169 308 225 q 429 84 378 114 q 549 54 481 54 q 608 67 585 54 q 644 89 631 79 q 667 124 658 100 q 676 179 676 149 q 678 214 678 192 q 678 258 678 236 q 679 293 679 281 q 673 322 679 308 q 649 342 667 335 q 620 356 636 350 q 588 365 604 361 q 560 371 572 368 q 538 381 549 372 q 526 401 526 389 q 536 417 526 411 q 556 422 546 422 q 626 421 588 422 q 701 417 664 419 q 768 415 739 415 q 853 418 808 415 q 940 421 899 421 q 957 416 950 421 q 964 400 964 411 q 956 380 964 386 q 936 371 949 374 q 883 346 897 361 q 864 303 869 331 q 856 249 858 272 q 854 199 854 226 l 854 154 q 860 140 854 147 q 872 126 865 133 q 882 113 878 119 q 886 97 886 106 q 881 80 886 89 q 860 68 875 71 q 821 53 849 67 q 751 23 793 40 q 653 -7 710 6 q 526 -19 596 -19 m 375 963 q 349 979 349 963 q 360 1000 349 992 l 506 1131 q 543 1162 529 1153 q 575 1171 557 1171 q 608 1162 594 1171 q 646 1131 622 1153 l 790 1001 q 800 979 800 993 q 778 961 800 961 q 745 968 768 961 q 693 986 722 975 q 637 1009 664 997 q 592 1031 610 1021 q 575 1036 582 1036 q 558 1031 568 1036 q 515 1010 542 1021 q 458 988 488 999 q 406 969 429 976 q 375 963 383 963 z "},"Ġ":{"ha":999,"x_min":40,"x_max":964,"o":"m 526 -19 q 338 13 426 -19 q 183 107 250 46 q 78 251 115 168 q 40 436 40 335 q 77 619 40 532 q 183 775 114 707 q 349 883 251 843 q 564 922 446 922 q 631 918 593 922 q 710 907 669 914 q 785 891 750 900 q 843 872 821 882 q 863 860 856 868 q 871 839 869 853 q 883 747 878 790 q 888 675 888 704 q 881 654 888 661 q 864 647 875 647 q 840 656 847 647 q 826 676 832 664 q 798 731 814 703 q 760 783 782 760 q 720 815 743 800 q 664 840 697 831 q 583 850 631 850 q 450 819 508 850 q 352 735 392 789 q 292 615 313 682 q 272 472 272 547 q 290 302 272 379 q 343 169 308 225 q 429 84 378 114 q 549 54 481 54 q 608 67 585 54 q 644 89 631 79 q 667 124 658 100 q 676 179 676 149 q 678 214 678 192 q 678 258 678 236 q 679 293 679 281 q 673 322 679 308 q 649 342 667 335 q 620 356 636 350 q 588 365 604 361 q 560 371 572 368 q 538 381 549 372 q 526 401 526 389 q 536 417 526 411 q 556 422 546 422 q 626 421 588 422 q 701 417 664 419 q 768 415 739 415 q 853 418 808 415 q 940 421 899 421 q 957 416 950 421 q 964 400 964 411 q 956 380 964 386 q 936 371 949 374 q 883 346 897 361 q 864 303 869 331 q 856 249 858 272 q 854 199 854 226 l 854 154 q 860 140 854 147 q 872 126 865 133 q 882 113 878 119 q 886 97 886 106 q 881 80 886 89 q 860 68 875 71 q 821 53 849 67 q 751 23 793 40 q 653 -7 710 6 q 526 -19 596 -19 m 574 963 q 492 993 526 963 q 458 1067 458 1024 q 492 1143 458 1113 q 574 1174 526 1174 q 659 1143 624 1174 q 694 1067 694 1113 q 659 993 694 1024 q 574 963 624 963 z "},"Ɂ":{"ha":675,"x_min":26,"x_max":640,"o":"m 121 -4 q 102 1 111 -4 q 93 15 93 6 q 124 44 93 38 q 197 73 176 56 q 218 135 218 90 l 218 325 q 238 395 218 367 q 282 444 257 424 q 319 474 307 464 q 364 514 340 490 q 403 574 388 538 q 419 664 419 610 q 401 758 419 714 q 349 828 383 801 q 268 854 315 854 q 216 847 239 854 q 176 828 193 840 q 146 801 158 817 q 124 768 133 785 q 99 717 111 746 q 78 664 86 689 q 62 645 74 649 q 38 649 50 642 q 26 671 26 656 q 28 714 26 686 q 33 772 29 742 q 41 828 36 803 q 51 864 46 854 q 126 888 81 874 q 228 912 172 901 q 342 922 285 922 q 501 893 435 922 q 604 810 568 864 q 640 683 640 757 q 624 592 640 631 q 582 524 607 553 q 530 473 557 494 q 482 436 503 451 q 438 387 446 410 q 431 326 431 364 l 431 136 q 449 78 431 96 q 521 46 467 60 q 545 35 535 42 q 556 17 556 29 q 549 1 556 7 q 529 -4 542 -4 q 461 -2 499 -4 q 388 1 424 0 q 324 3 353 3 q 260 1 294 3 q 189 -2 225 0 q 121 -4 153 -4 z "},"Ȝ":{"ha":771,"x_min":-36,"x_max":747,"o":"m 158 -278 q 15 -265 67 -278 q -36 -226 -36 -253 q -17 -161 -36 -192 q 25 -131 3 -131 q 56 -144 39 -131 q 97 -175 74 -158 q 143 -198 117 -187 q 204 -208 169 -208 q 346 -177 286 -208 q 445 -96 406 -146 q 504 15 485 -46 q 524 133 524 75 q 506 240 524 192 q 449 318 488 289 q 349 347 411 347 q 273 335 310 347 q 210 313 236 324 q 176 301 185 301 q 157 313 161 301 q 155 337 153 324 q 160 357 157 350 q 182 384 165 369 q 214 404 199 399 q 335 470 288 435 q 407 555 383 506 q 431 678 431 604 q 414 761 431 721 q 366 826 397 801 q 292 851 335 851 q 197 833 235 851 q 136 788 160 815 q 105 735 117 765 q 85 672 93 704 q 72 653 82 660 q 51 646 61 646 q 34 653 42 646 q 26 672 26 661 q 28 745 26 704 q 38 833 31 786 q 47 857 40 849 q 65 869 54 865 q 140 894 97 882 q 230 914 183 906 q 318 922 276 922 q 488 896 414 922 q 603 821 561 869 q 644 706 644 772 q 601 558 644 622 q 496 460 557 494 q 488 445 483 451 q 499 436 492 439 q 641 389 586 426 q 722 297 696 351 q 747 176 747 242 q 710 20 747 100 q 597 -128 672 -60 q 413 -237 522 -196 q 158 -278 303 -278 z "},"H":{"ha":1113,"x_min":26,"x_max":1085,"o":"m 54 -4 q 35 1 44 -4 q 26 15 26 6 q 56 44 26 38 q 122 73 104 56 q 139 135 139 90 l 139 765 q 123 829 139 811 q 58 860 107 847 q 28 889 28 867 q 37 904 28 899 q 56 910 46 910 q 121 908 88 910 q 186 905 154 907 q 246 903 218 903 q 309 904 274 903 q 381 907 344 906 q 449 908 418 908 q 474 888 474 908 q 466 869 474 875 q 444 860 458 864 q 371 825 389 844 q 353 764 353 806 l 353 514 q 359 499 353 503 q 375 494 365 494 l 742 494 q 760 514 760 494 l 760 764 q 742 825 760 806 q 669 860 725 844 q 647 869 654 864 q 639 888 639 875 q 665 908 639 908 q 733 907 696 908 q 807 904 771 906 q 871 903 843 903 q 928 905 897 903 q 992 908 960 907 q 1057 910 1025 910 q 1076 904 1068 910 q 1085 889 1085 899 q 1056 860 1085 867 q 990 828 1006 847 q 974 765 974 810 l 974 136 q 991 73 974 90 q 1056 44 1008 56 q 1085 15 1085 38 q 1076 1 1085 6 q 1058 -4 1068 -4 q 996 -2 1029 -4 q 929 1 963 0 q 868 3 896 3 q 805 1 840 3 q 732 -2 769 0 q 664 -4 694 -4 q 646 1 653 -4 q 639 17 639 7 q 647 35 639 31 q 668 44 654 40 q 740 77 721 58 q 760 136 760 96 l 760 396 q 756 413 760 407 q 743 419 753 419 l 372 419 q 353 397 353 419 l 353 138 q 374 78 353 99 q 447 44 394 58 q 469 35 461 40 q 476 17 476 31 q 470 1 476 7 q 451 -4 464 -4 q 383 -2 421 -4 q 310 1 346 0 q 246 3 274 3 q 184 1 218 3 q 116 -2 150 0 q 54 -4 82 -4 z "},"Ħ":{"ha":1113,"x_min":26,"x_max":1085,"o":"m 67 624 q 43 635 53 624 q 33 663 33 646 q 44 692 33 681 q 72 703 56 703 l 1042 703 q 1063 696 1054 703 q 1071 678 1071 689 q 1053 642 1071 660 q 1014 624 1036 624 l 67 624 m 54 -4 q 35 1 44 -4 q 26 15 26 6 q 56 44 26 38 q 122 73 104 56 q 139 135 139 90 l 139 765 q 123 829 139 811 q 58 860 107 847 q 28 889 28 867 q 37 904 28 899 q 56 910 46 910 q 121 908 88 910 q 186 905 154 907 q 246 903 218 903 q 309 904 274 903 q 381 907 344 906 q 449 908 418 908 q 474 888 474 908 q 466 869 474 875 q 444 860 458 864 q 371 825 389 844 q 353 764 353 806 l 353 514 q 359 499 353 503 q 375 494 365 494 l 742 494 q 760 514 760 494 l 760 764 q 742 825 760 806 q 669 860 725 844 q 647 869 654 864 q 639 888 639 875 q 665 908 639 908 q 733 907 696 908 q 807 904 771 906 q 871 903 843 903 q 928 905 897 903 q 992 908 960 907 q 1057 910 1025 910 q 1076 904 1068 910 q 1085 889 1085 899 q 1056 860 1085 867 q 990 828 1006 847 q 974 765 974 810 l 974 136 q 991 73 974 90 q 1056 44 1008 56 q 1085 15 1085 38 q 1076 1 1085 6 q 1058 -4 1068 -4 q 996 -2 1029 -4 q 929 1 963 0 q 868 3 896 3 q 805 1 840 3 q 732 -2 769 0 q 664 -4 694 -4 q 646 1 653 -4 q 639 17 639 7 q 647 35 639 31 q 668 44 654 40 q 740 77 721 58 q 760 136 760 96 l 760 396 q 756 413 760 407 q 743 419 753 419 l 372 419 q 353 397 353 419 l 353 138 q 374 78 353 99 q 447 44 394 58 q 469 35 461 40 q 476 17 476 31 q 470 1 476 7 q 451 -4 464 -4 q 383 -2 421 -4 q 310 1 346 0 q 246 3 274 3 q 184 1 218 3 q 116 -2 150 0 q 54 -4 82 -4 z "},"Ĥ":{"ha":1113,"x_min":26,"x_max":1085,"o":"m 54 -4 q 35 1 44 -4 q 26 15 26 6 q 56 44 26 38 q 122 73 104 56 q 139 135 139 90 l 139 765 q 123 829 139 811 q 58 860 107 847 q 28 889 28 867 q 37 904 28 899 q 56 910 46 910 q 121 908 88 910 q 186 905 154 907 q 246 903 218 903 q 309 904 274 903 q 381 907 344 906 q 449 908 418 908 q 474 888 474 908 q 466 869 474 875 q 444 860 458 864 q 371 825 389 844 q 353 764 353 806 l 353 514 q 359 499 353 503 q 375 494 365 494 l 742 494 q 760 514 760 494 l 760 764 q 742 825 760 806 q 669 860 725 844 q 647 869 654 864 q 639 888 639 875 q 665 908 639 908 q 733 907 696 908 q 807 904 771 906 q 871 903 843 903 q 928 905 897 903 q 992 908 960 907 q 1057 910 1025 910 q 1076 904 1068 910 q 1085 889 1085 899 q 1056 860 1085 867 q 990 828 1006 847 q 974 765 974 810 l 974 136 q 991 73 974 90 q 1056 44 1008 56 q 1085 15 1085 38 q 1076 1 1085 6 q 1058 -4 1068 -4 q 996 -2 1029 -4 q 929 1 963 0 q 868 3 896 3 q 805 1 840 3 q 732 -2 769 0 q 664 -4 694 -4 q 646 1 653 -4 q 639 17 639 7 q 647 35 639 31 q 668 44 654 40 q 740 77 721 58 q 760 136 760 96 l 760 396 q 756 413 760 407 q 743 419 753 419 l 372 419 q 353 397 353 419 l 353 138 q 374 78 353 99 q 447 44 394 58 q 469 35 461 40 q 476 17 476 31 q 470 1 476 7 q 451 -4 464 -4 q 383 -2 421 -4 q 310 1 346 0 q 246 3 274 3 q 184 1 218 3 q 116 -2 150 0 q 54 -4 82 -4 m 357 963 q 331 979 331 963 q 342 1000 331 992 l 488 1131 q 525 1162 511 1153 q 557 1171 539 1171 q 590 1162 576 1171 q 628 1131 604 1153 l 772 1001 q 782 979 782 993 q 760 961 782 961 q 727 968 750 961 q 675 986 704 975 q 619 1009 646 997 q 574 1031 592 1021 q 557 1036 564 1036 q 540 1031 550 1036 q 497 1010 524 1021 q 440 988 469 999 q 388 969 411 976 q 357 963 365 963 z "},"I":{"ha":506,"x_min":22,"x_max":483,"o":"m 50 -4 q 31 1 39 -4 q 22 15 22 6 q 51 44 22 38 q 125 73 104 56 q 146 135 146 90 l 146 765 q 128 828 146 810 q 54 860 110 847 q 25 889 25 867 q 33 904 25 899 q 53 910 42 910 q 120 908 85 910 q 190 905 156 907 q 253 903 224 903 q 316 904 281 903 q 388 907 351 906 q 456 908 425 908 q 475 903 468 908 q 482 889 482 899 q 474 869 482 875 q 451 860 467 864 q 378 826 396 844 q 360 764 360 807 l 360 136 q 380 77 360 96 q 454 44 400 58 q 476 35 468 40 q 483 17 483 29 q 477 1 483 7 q 458 -4 471 -4 q 390 -2 428 -4 q 317 1 353 0 q 253 3 281 3 q 189 1 224 3 q 118 -2 154 0 q 50 -4 82 -4 z "},"Ĳ":{"ha":1018,"x_min":22,"x_max":1008,"o":"m 50 -4 q 31 1 39 -4 q 22 15 22 6 q 51 44 22 38 q 125 73 104 56 q 146 135 146 90 l 146 765 q 128 828 146 810 q 54 860 110 847 q 25 889 25 867 q 33 904 25 899 q 53 910 42 910 q 120 908 85 910 q 190 905 156 907 q 253 903 224 903 q 316 904 281 903 q 388 907 351 906 q 456 908 425 908 q 475 903 468 908 q 482 889 482 899 q 474 869 482 875 q 451 860 467 864 q 378 826 396 844 q 360 764 360 807 l 360 136 q 380 77 360 96 q 454 44 400 58 q 476 35 468 40 q 483 17 483 29 q 477 1 483 7 q 458 -4 471 -4 q 390 -2 428 -4 q 317 1 353 0 q 253 3 281 3 q 189 1 224 3 q 118 -2 154 0 q 50 -4 82 -4 m 585 -278 q 392 -197 392 -278 q 415 -143 392 -169 q 463 -117 439 -117 q 493 -125 479 -117 q 521 -150 507 -133 q 560 -200 547 -181 q 590 -219 574 -219 q 654 -166 632 -219 q 676 10 676 -112 l 676 765 q 658 829 676 811 q 585 860 640 847 q 556 889 556 867 q 565 904 556 899 q 583 910 574 910 q 651 908 615 910 q 720 905 686 907 q 783 903 754 903 q 845 904 811 903 q 916 907 879 906 q 983 908 953 908 q 1002 903 996 908 q 1008 889 1008 899 q 1001 869 1008 875 q 979 860 993 864 q 907 826 924 844 q 890 764 890 807 l 890 119 q 876 36 890 82 q 835 -58 861 -10 q 779 -147 810 -106 q 687 -240 738 -201 q 585 -278 636 -278 z "},"Í":{"ha":506,"x_min":22,"x_max":483,"o":"m 50 -4 q 31 1 39 -4 q 22 15 22 6 q 51 44 22 38 q 125 73 104 56 q 146 135 146 90 l 146 765 q 128 828 146 810 q 54 860 110 847 q 25 889 25 867 q 33 904 25 899 q 53 910 42 910 q 120 908 85 910 q 190 905 156 907 q 253 903 224 903 q 316 904 281 903 q 388 907 351 906 q 456 908 425 908 q 475 903 468 908 q 482 889 482 899 q 474 869 482 875 q 451 860 467 864 q 378 826 396 844 q 360 764 360 807 l 360 136 q 380 77 360 96 q 454 44 400 58 q 476 35 468 40 q 483 17 483 29 q 477 1 483 7 q 458 -4 471 -4 q 390 -2 428 -4 q 317 1 353 0 q 253 3 281 3 q 189 1 224 3 q 118 -2 154 0 q 50 -4 82 -4 m 190 947 q 174 960 174 950 q 189 989 174 969 q 259 1078 224 1035 q 335 1163 294 1121 q 382 1179 353 1182 q 417 1169 393 1178 q 463 1150 442 1161 q 481 1126 483 1139 q 454 1096 478 1113 q 340 1026 401 1061 q 225 958 279 992 q 203 949 213 951 q 190 947 193 946 z "},"Ĭ":{"ha":506,"x_min":22,"x_max":483,"o":"m 50 -4 q 31 1 39 -4 q 22 15 22 6 q 51 44 22 38 q 125 73 104 56 q 146 135 146 90 l 146 765 q 128 828 146 810 q 54 860 110 847 q 25 889 25 867 q 33 904 25 899 q 53 910 42 910 q 120 908 85 910 q 190 905 156 907 q 253 903 224 903 q 316 904 281 903 q 388 907 351 906 q 456 908 425 908 q 475 903 468 908 q 482 889 482 899 q 474 869 482 875 q 451 860 467 864 q 378 826 396 844 q 360 764 360 807 l 360 136 q 380 77 360 96 q 454 44 400 58 q 476 35 468 40 q 483 17 483 29 q 477 1 483 7 q 458 -4 471 -4 q 390 -2 428 -4 q 317 1 353 0 q 253 3 281 3 q 189 1 224 3 q 118 -2 154 0 q 50 -4 82 -4 m 257 953 q 144 983 189 953 q 77 1053 99 1013 q 56 1125 56 1093 q 59 1152 56 1143 q 74 1161 63 1161 q 94 1153 86 1161 q 114 1132 103 1144 q 177 1082 144 1097 q 257 1067 210 1067 q 337 1082 304 1067 q 400 1132 369 1097 q 419 1153 411 1144 q 440 1161 428 1161 q 456 1152 453 1161 q 458 1125 458 1143 q 437 1053 458 1093 q 371 983 415 1013 q 257 953 326 953 z "},"Î":{"ha":506,"x_min":22,"x_max":483,"o":"m 50 -4 q 31 1 39 -4 q 22 15 22 6 q 51 44 22 38 q 125 73 104 56 q 146 135 146 90 l 146 765 q 128 828 146 810 q 54 860 110 847 q 25 889 25 867 q 33 904 25 899 q 53 910 42 910 q 120 908 85 910 q 190 905 156 907 q 253 903 224 903 q 316 904 281 903 q 388 907 351 906 q 456 908 425 908 q 475 903 468 908 q 482 889 482 899 q 474 869 482 875 q 451 860 467 864 q 378 826 396 844 q 360 764 360 807 l 360 136 q 380 77 360 96 q 454 44 400 58 q 476 35 468 40 q 483 17 483 29 q 477 1 483 7 q 458 -4 471 -4 q 390 -2 428 -4 q 317 1 353 0 q 253 3 281 3 q 189 1 224 3 q 118 -2 154 0 q 50 -4 82 -4 m 57 963 q 31 979 31 963 q 42 1000 31 992 l 188 1131 q 225 1162 211 1153 q 257 1171 239 1171 q 290 1162 276 1171 q 328 1131 304 1153 l 472 1001 q 482 979 482 993 q 460 961 482 961 q 427 968 450 961 q 375 986 404 975 q 319 1009 346 997 q 274 1031 292 1021 q 257 1036 264 1036 q 240 1031 250 1036 q 197 1010 224 1021 q 140 988 169 999 q 88 969 111 976 q 57 963 65 963 z "},"Ï":{"ha":506,"x_min":19,"x_max":496,"o":"m 50 -4 q 31 1 39 -4 q 22 15 22 6 q 51 44 22 38 q 125 73 104 56 q 146 135 146 90 l 146 765 q 128 828 146 810 q 54 860 110 847 q 25 889 25 867 q 33 904 25 899 q 53 910 42 910 q 120 908 85 910 q 190 905 156 907 q 253 903 224 903 q 316 904 281 903 q 388 907 351 906 q 456 908 425 908 q 475 903 468 908 q 482 889 482 899 q 474 869 482 875 q 451 860 467 864 q 378 826 396 844 q 360 764 360 807 l 360 136 q 380 77 360 96 q 454 44 400 58 q 476 35 468 40 q 483 17 483 29 q 477 1 483 7 q 458 -4 471 -4 q 390 -2 428 -4 q 317 1 353 0 q 253 3 281 3 q 189 1 224 3 q 118 -2 154 0 q 50 -4 82 -4 m 393 956 q 324 985 353 956 q 294 1054 294 1014 q 324 1126 294 1097 q 393 1154 353 1154 q 467 1126 438 1154 q 497 1054 497 1097 q 467 985 497 1014 q 393 956 438 956 m 119 956 q 49 985 79 956 q 19 1054 19 1014 q 49 1126 19 1097 q 119 1154 79 1154 q 192 1126 163 1154 q 222 1054 222 1097 q 192 985 222 1014 q 119 956 163 956 z "},"İ":{"ha":506,"x_min":22,"x_max":483,"o":"m 50 -4 q 31 1 39 -4 q 22 15 22 6 q 51 44 22 38 q 125 73 104 56 q 146 135 146 90 l 146 765 q 128 828 146 810 q 54 860 110 847 q 25 889 25 867 q 33 904 25 899 q 53 910 42 910 q 120 908 85 910 q 190 905 156 907 q 253 903 224 903 q 316 904 281 903 q 388 907 351 906 q 456 908 425 908 q 475 903 468 908 q 482 889 482 899 q 474 869 482 875 q 451 860 467 864 q 378 826 396 844 q 360 764 360 807 l 360 136 q 380 77 360 96 q 454 44 400 58 q 476 35 468 40 q 483 17 483 29 q 477 1 483 7 q 458 -4 471 -4 q 390 -2 428 -4 q 317 1 353 0 q 253 3 281 3 q 189 1 224 3 q 118 -2 154 0 q 50 -4 82 -4 m 256 963 q 174 993 208 963 q 140 1067 140 1024 q 174 1143 140 1113 q 256 1174 208 1174 q 341 1143 306 1174 q 376 1067 376 1113 q 341 993 376 1024 q 256 963 306 963 z "},"Ì":{"ha":506,"x_min":3,"x_max":483,"o":"m 296 947 q 282 949 292 946 q 260 958 272 951 q 146 1026 207 992 q 31 1096 85 1061 q 4 1126 8 1113 q 23 1150 3 1139 q 68 1169 43 1161 q 103 1179 93 1178 q 150 1163 132 1182 q 226 1078 192 1121 q 297 989 261 1035 q 311 960 311 969 q 296 947 311 950 m 50 -4 q 31 1 39 -4 q 22 15 22 6 q 51 44 22 38 q 125 73 104 56 q 146 135 146 90 l 146 765 q 128 828 146 810 q 54 860 110 847 q 25 889 25 867 q 33 904 25 899 q 53 910 42 910 q 120 908 85 910 q 190 905 156 907 q 253 903 224 903 q 316 904 281 903 q 388 907 351 906 q 456 908 425 908 q 475 903 468 908 q 482 889 482 899 q 474 869 482 875 q 451 860 467 864 q 378 826 396 844 q 360 764 360 807 l 360 136 q 380 77 360 96 q 454 44 400 58 q 476 35 468 40 q 483 17 483 29 q 477 1 483 7 q 458 -4 471 -4 q 390 -2 428 -4 q 317 1 353 0 q 253 3 281 3 q 189 1 224 3 q 118 -2 154 0 q 50 -4 82 -4 z "},"Ī":{"ha":506,"x_min":22,"x_max":483,"o":"m 50 -4 q 31 1 39 -4 q 22 15 22 6 q 51 44 22 38 q 125 73 104 56 q 146 135 146 90 l 146 765 q 128 828 146 810 q 54 860 110 847 q 25 889 25 867 q 33 904 25 899 q 53 910 42 910 q 120 908 85 910 q 190 905 156 907 q 253 903 224 903 q 316 904 281 903 q 388 907 351 906 q 456 908 425 908 q 475 903 468 908 q 482 889 482 899 q 474 869 482 875 q 451 860 467 864 q 378 826 396 844 q 360 764 360 807 l 360 136 q 380 77 360 96 q 454 44 400 58 q 476 35 468 40 q 483 17 483 29 q 477 1 483 7 q 458 -4 471 -4 q 390 -2 428 -4 q 317 1 353 0 q 253 3 281 3 q 189 1 224 3 q 118 -2 154 0 q 50 -4 82 -4 m 58 996 q 39 1004 46 996 q 32 1021 32 1013 q 39 1065 32 1044 q 58 1097 46 1085 q 83 1108 71 1108 l 457 1108 q 476 1101 469 1108 q 482 1083 482 1093 q 465 1023 482 1050 q 425 996 449 996 l 58 996 z "},"Į":{"ha":506,"x_min":22,"x_max":483,"o":"m 50 -4 q 31 1 39 -4 q 22 15 22 6 q 51 44 22 38 q 125 73 104 56 q 146 135 146 90 l 146 765 q 128 828 146 810 q 54 860 110 847 q 25 889 25 867 q 33 904 25 899 q 53 910 42 910 q 120 908 85 910 q 190 905 156 907 q 253 903 224 903 q 316 904 281 903 q 388 907 351 906 q 456 908 425 908 q 475 903 468 908 q 482 889 482 899 q 474 869 482 875 q 451 860 467 864 q 378 826 396 844 q 360 764 360 807 l 360 136 q 380 77 360 96 q 454 44 400 58 q 476 35 468 40 q 483 17 483 29 q 477 1 483 7 q 458 -4 471 -4 q 390 -2 428 -4 q 317 1 353 0 q 253 3 281 3 q 189 1 224 3 q 118 -2 154 0 q 50 -4 82 -4 m 272 -399 q 153 -358 199 -399 q 107 -242 107 -317 q 123 -173 107 -206 q 164 -111 139 -140 q 220 -57 189 -82 q 284 -11 251 -32 q 343 25 317 10 l 400 25 q 351 -22 376 3 q 306 -75 326 -46 q 274 -135 286 -104 q 261 -204 261 -167 q 283 -258 261 -237 q 339 -279 304 -279 q 376 -273 360 -279 q 405 -258 392 -267 q 429 -237 418 -249 q 451 -232 438 -231 q 464 -256 464 -233 q 448 -306 464 -281 q 405 -352 432 -331 q 344 -386 378 -374 q 272 -399 310 -399 z "},"Ĩ":{"ha":506,"x_min":22,"x_max":486,"o":"m 50 -4 q 31 1 39 -4 q 22 15 22 6 q 51 44 22 38 q 125 73 104 56 q 146 135 146 90 l 146 765 q 128 828 146 810 q 54 860 110 847 q 25 889 25 867 q 33 904 25 899 q 53 910 42 910 q 120 908 85 910 q 190 905 156 907 q 253 903 224 903 q 316 904 281 903 q 388 907 351 906 q 456 908 425 908 q 475 903 468 908 q 482 889 482 899 q 474 869 482 875 q 451 860 467 864 q 378 826 396 844 q 360 764 360 807 l 360 136 q 380 77 360 96 q 454 44 400 58 q 476 35 468 40 q 483 17 483 29 q 477 1 483 7 q 458 -4 471 -4 q 390 -2 428 -4 q 317 1 353 0 q 253 3 281 3 q 189 1 224 3 q 118 -2 154 0 q 50 -4 82 -4 m 65 960 q 49 969 58 960 q 39 982 39 978 q 51 1013 39 990 q 83 1060 64 1035 q 119 1103 101 1085 q 147 1122 138 1122 q 203 1120 174 1122 q 263 1117 233 1118 q 318 1114 289 1115 q 379 1113 347 1113 q 406 1121 394 1113 q 428 1139 418 1129 q 445 1160 439 1150 q 456 1169 451 1169 q 476 1160 464 1169 q 488 1143 488 1151 q 481 1129 488 1139 q 463 1104 475 1119 q 433 1060 447 1082 q 407 1021 419 1039 q 386 1005 399 1008 q 364 1001 374 1001 q 321 1003 353 1001 q 251 1008 289 1006 q 179 1014 213 1011 q 132 1017 146 1017 q 110 1008 121 1017 q 90 990 99 1000 q 75 969 82 979 q 65 960 68 960 z "},"J":{"ha":514,"x_min":-114,"x_max":503,"o":"m 79 -278 q -114 -197 -114 -278 q -90 -143 -114 -169 q -43 -117 -67 -117 q -12 -125 -26 -117 q 15 -150 1 -133 q 55 -200 42 -181 q 85 -219 68 -219 q 149 -166 126 -219 q 171 10 171 -112 l 171 765 q 153 829 171 811 q 79 860 135 847 q 50 889 50 867 q 59 904 50 899 q 78 910 68 910 q 145 908 110 910 q 215 905 181 907 q 278 903 249 903 q 340 904 306 903 q 410 907 374 906 q 478 908 447 908 q 497 903 490 908 q 503 889 503 899 q 495 869 503 875 q 474 860 488 864 q 401 826 418 844 q 385 764 385 807 l 385 119 q 370 36 385 82 q 330 -58 356 -10 q 274 -147 304 -106 q 181 -240 232 -201 q 79 -278 131 -278 z "},"Ĵ":{"ha":514,"x_min":-114,"x_max":503,"o":"m 79 -278 q -114 -197 -114 -278 q -90 -143 -114 -169 q -43 -117 -67 -117 q -12 -125 -26 -117 q 15 -150 1 -133 q 55 -200 42 -181 q 85 -219 68 -219 q 149 -166 126 -219 q 171 10 171 -112 l 171 765 q 153 829 171 811 q 79 860 135 847 q 50 889 50 867 q 59 904 50 899 q 78 910 68 910 q 145 908 110 910 q 215 905 181 907 q 278 903 249 903 q 340 904 306 903 q 410 907 374 906 q 478 908 447 908 q 497 903 490 908 q 503 889 503 899 q 495 869 503 875 q 474 860 488 864 q 401 826 418 844 q 385 764 385 807 l 385 119 q 370 36 385 82 q 330 -58 356 -10 q 274 -147 304 -106 q 181 -240 232 -201 q 79 -278 131 -278 m 75 963 q 49 979 49 963 q 60 1000 49 992 l 206 1131 q 243 1162 229 1153 q 275 1171 257 1171 q 308 1162 294 1171 q 346 1131 322 1153 l 490 1001 q 500 979 500 993 q 478 961 500 961 q 445 968 468 961 q 393 986 422 975 q 337 1009 364 997 q 292 1031 310 1021 q 275 1036 282 1036 q 258 1031 268 1036 q 215 1010 242 1021 q 158 988 188 999 q 106 969 129 976 q 75 963 83 963 z "},"K":{"ha":1060,"x_min":25,"x_max":1072,"o":"m 64 -8 q 38 -1 50 -8 q 25 15 25 6 q 61 44 25 38 q 131 74 114 56 q 147 136 147 92 l 147 765 q 128 829 147 811 q 54 860 110 847 q 25 889 25 867 q 34 904 25 899 q 53 910 43 910 q 120 908 85 910 q 190 905 156 907 q 251 903 224 903 q 314 904 279 903 q 385 907 349 906 q 453 908 422 908 q 471 903 464 908 q 478 889 478 899 q 470 869 478 875 q 447 860 463 864 q 376 825 392 844 q 360 764 360 806 l 360 482 q 364 465 360 471 q 374 460 368 460 q 389 466 381 460 q 408 482 397 472 l 675 769 q 694 792 686 782 q 701 813 701 803 q 644 854 701 842 q 622 865 629 858 q 614 885 614 872 q 623 899 614 894 q 642 904 632 904 l 738 904 q 829 905 785 904 q 919 907 874 906 q 1013 908 965 908 q 1038 903 1026 908 q 1049 889 1049 899 q 1035 869 1049 875 q 1007 860 1021 863 q 885 828 938 850 q 793 774 833 806 q 713 705 751 742 q 635 628 674 668 q 553 549 596 589 q 554 507 533 531 l 886 135 q 924 97 906 114 q 968 68 943 81 q 1029 44 993 56 q 1058 35 1044 40 q 1072 17 1072 29 q 1058 0 1072 7 q 1019 -7 1044 -7 q 937 -4 978 -7 q 856 1 896 -1 q 771 3 815 3 q 685 -1 725 3 q 597 -4 646 -4 q 578 1 588 -4 q 569 17 569 7 q 597 46 569 39 q 656 83 653 57 q 649 105 656 94 q 632 129 643 115 l 406 392 q 388 408 396 403 q 372 414 379 414 q 363 408 367 414 q 360 390 360 401 q 360 267 360 328 q 364 139 361 206 q 371 96 365 114 q 392 67 376 78 q 444 44 408 56 q 471 35 460 40 q 482 17 482 29 q 469 1 482 7 q 442 -6 457 -6 q 367 -3 399 -6 q 308 3 335 0 q 256 6 282 6 q 200 2 226 6 q 142 -5 174 -1 q 64 -8 111 -8 z "},"L":{"ha":814,"x_min":26,"x_max":806,"o":"m 58 -7 q 37 -1 44 -7 q 29 14 29 6 q 38 31 29 24 q 58 43 46 39 q 126 72 106 56 q 146 132 146 89 l 146 768 q 139 815 146 799 q 113 842 132 832 q 56 860 93 851 q 26 889 26 867 q 35 904 26 899 q 54 910 43 910 q 122 908 86 910 q 191 905 157 907 q 253 903 225 903 q 318 904 282 903 q 392 907 354 906 q 461 908 431 908 q 480 903 474 908 q 486 889 486 899 q 478 869 486 875 q 457 860 471 864 q 380 827 400 844 q 360 768 360 810 l 360 143 q 377 88 360 104 q 435 71 394 71 l 576 71 q 631 81 607 71 q 675 108 656 92 q 717 159 699 131 q 749 218 735 188 q 770 254 763 246 q 786 263 778 263 q 801 253 797 263 q 806 235 806 243 q 803 222 806 232 q 800 207 800 213 q 782 137 790 167 q 769 80 774 107 q 760 19 764 53 q 753 1 758 10 q 738 -7 749 -7 q 653 -6 708 -7 q 528 -3 597 -4 q 388 -1 460 -3 q 256 0 317 0 q 189 -1 226 0 q 116 -5 151 -3 q 58 -7 81 -7 z "},"Ĺ":{"ha":814,"x_min":26,"x_max":806,"o":"m 58 -7 q 37 -1 44 -7 q 29 14 29 6 q 38 31 29 24 q 58 43 46 39 q 126 72 106 56 q 146 132 146 89 l 146 768 q 139 815 146 799 q 113 842 132 832 q 56 860 93 851 q 26 889 26 867 q 35 904 26 899 q 54 910 43 910 q 122 908 86 910 q 191 905 157 907 q 253 903 225 903 q 318 904 282 903 q 392 907 354 906 q 461 908 431 908 q 480 903 474 908 q 486 889 486 899 q 478 869 486 875 q 457 860 471 864 q 380 827 400 844 q 360 768 360 810 l 360 143 q 377 88 360 104 q 435 71 394 71 l 576 71 q 631 81 607 71 q 675 108 656 92 q 717 159 699 131 q 749 218 735 188 q 770 254 763 246 q 786 263 778 263 q 801 253 797 263 q 806 235 806 243 q 803 222 806 232 q 800 207 800 213 q 782 137 790 167 q 769 80 774 107 q 760 19 764 53 q 753 1 758 10 q 738 -7 749 -7 q 653 -6 708 -7 q 528 -3 597 -4 q 388 -1 460 -3 q 256 0 317 0 q 189 -1 226 0 q 116 -5 151 -3 q 58 -7 81 -7 m 194 947 q 178 960 178 950 q 193 989 178 969 q 263 1078 228 1035 q 339 1163 299 1121 q 386 1179 357 1182 q 422 1169 397 1178 q 467 1150 446 1161 q 485 1126 488 1139 q 458 1096 482 1113 q 344 1026 406 1061 q 229 958 283 992 q 207 949 217 951 q 194 947 197 946 z "},"Ľ":{"ha":814,"x_min":26,"x_max":806,"o":"m 58 -7 q 37 -1 44 -7 q 29 14 29 6 q 38 31 29 24 q 58 43 46 39 q 126 72 106 56 q 146 132 146 89 l 146 768 q 139 815 146 799 q 113 842 132 832 q 56 860 93 851 q 26 889 26 867 q 35 904 26 899 q 54 910 43 910 q 122 908 86 910 q 191 905 157 907 q 253 903 225 903 q 318 904 282 903 q 392 907 354 906 q 461 908 431 908 q 480 903 474 908 q 486 889 486 899 q 478 869 486 875 q 457 860 471 864 q 380 827 400 844 q 360 768 360 810 l 360 143 q 377 88 360 104 q 435 71 394 71 l 576 71 q 631 81 607 71 q 675 108 656 92 q 717 159 699 131 q 749 218 735 188 q 770 254 763 246 q 786 263 778 263 q 801 253 797 263 q 806 235 806 243 q 803 222 806 232 q 800 207 800 213 q 782 137 790 167 q 769 80 774 107 q 760 19 764 53 q 753 1 758 10 q 738 -7 749 -7 q 653 -6 708 -7 q 528 -3 597 -4 q 388 -1 460 -3 q 256 0 317 0 q 189 -1 226 0 q 116 -5 151 -3 q 58 -7 81 -7 m 581 600 q 568 611 572 600 q 564 636 564 622 q 565 660 564 640 q 568 701 567 679 q 569 735 569 724 q 565 808 569 781 q 560 854 560 835 q 577 891 560 872 q 620 922 594 910 q 668 935 646 935 q 693 920 689 935 q 697 885 697 906 q 686 810 697 856 q 658 719 675 764 q 624 643 642 674 q 581 600 599 600 z "},"Ŀ":{"ha":814,"x_min":26,"x_max":806,"o":"m 58 -7 q 37 -1 44 -7 q 29 14 29 6 q 38 31 29 24 q 58 43 46 39 q 126 72 106 56 q 146 132 146 89 l 146 768 q 139 815 146 799 q 113 842 132 832 q 56 860 93 851 q 26 889 26 867 q 35 904 26 899 q 54 910 43 910 q 122 908 86 910 q 191 905 157 907 q 253 903 225 903 q 318 904 282 903 q 392 907 354 906 q 461 908 431 908 q 480 903 474 908 q 486 889 486 899 q 478 869 486 875 q 457 860 471 864 q 380 827 400 844 q 360 768 360 810 l 360 143 q 377 88 360 104 q 435 71 394 71 l 576 71 q 631 81 607 71 q 675 108 656 92 q 717 159 699 131 q 749 218 735 188 q 770 254 763 246 q 786 263 778 263 q 801 253 797 263 q 806 235 806 243 q 803 222 806 232 q 800 207 800 213 q 782 137 790 167 q 769 80 774 107 q 760 19 764 53 q 753 1 758 10 q 738 -7 749 -7 q 653 -6 708 -7 q 528 -3 597 -4 q 388 -1 460 -3 q 256 0 317 0 q 189 -1 226 0 q 116 -5 151 -3 q 58 -7 81 -7 m 608 382 q 533 414 565 382 q 500 490 500 446 q 533 569 500 538 q 608 601 565 601 q 689 569 657 601 q 721 490 721 538 q 689 414 721 446 q 608 382 657 382 z "},"Ł":{"ha":814,"x_min":26,"x_max":806,"o":"m 82 350 q 53 349 67 344 q 40 365 40 353 q 49 408 40 389 q 74 432 58 426 l 183 469 l 285 492 l 518 572 q 542 572 529 576 q 554 553 554 567 q 544 509 554 526 q 511 483 535 492 l 283 406 l 186 386 l 82 350 m 58 -7 q 37 -1 44 -7 q 29 14 29 6 q 38 31 29 24 q 58 43 46 39 q 126 72 106 56 q 146 132 146 89 l 146 768 q 139 815 146 799 q 113 842 132 832 q 56 860 93 851 q 26 889 26 867 q 35 904 26 899 q 54 910 43 910 q 122 908 86 910 q 191 905 157 907 q 253 903 225 903 q 318 904 282 903 q 392 907 354 906 q 461 908 431 908 q 480 903 474 908 q 486 889 486 899 q 478 869 486 875 q 457 860 471 864 q 380 827 400 844 q 360 768 360 810 l 360 143 q 377 88 360 104 q 435 71 394 71 l 576 71 q 631 81 607 71 q 675 108 656 92 q 717 159 699 131 q 749 218 735 188 q 770 254 763 246 q 786 263 778 263 q 801 253 797 263 q 806 235 806 243 q 803 222 806 232 q 800 207 800 213 q 782 137 790 167 q 769 80 774 107 q 760 19 764 53 q 753 1 758 10 q 738 -7 749 -7 q 653 -6 708 -7 q 528 -3 597 -4 q 388 -1 460 -3 q 256 0 317 0 q 189 -1 226 0 q 116 -5 151 -3 q 58 -7 81 -7 z "},"M":{"ha":1274,"x_min":28,"x_max":1243,"o":"m 61 -4 q 36 1 44 -4 q 28 15 28 6 q 40 31 28 28 q 67 40 51 35 q 123 79 99 51 q 153 150 147 107 q 170 308 161 214 q 189 508 179 401 q 206 719 199 615 q 207 740 207 728 q 207 767 207 753 q 199 806 207 792 q 174 831 192 821 q 138 849 157 842 q 96 863 118 857 q 69 874 79 867 q 60 892 60 881 q 71 908 60 904 q 97 913 82 913 q 149 911 118 913 q 216 909 179 910 q 291 907 253 908 q 361 906 329 906 q 382 898 372 906 q 394 881 392 890 q 413 830 404 854 q 431 779 421 806 l 635 292 q 642 285 638 286 q 650 292 647 285 l 849 753 q 865 832 858 801 q 876 881 871 863 q 899 899 882 899 l 958 899 q 1080 908 1017 901 q 1179 914 1143 914 q 1203 909 1193 914 q 1214 893 1214 904 q 1205 875 1214 881 q 1182 865 1196 869 q 1163 858 1174 863 q 1143 849 1151 853 q 1090 810 1107 832 q 1075 742 1072 789 q 1082 567 1078 642 q 1090 428 1086 492 q 1098 295 1093 364 q 1108 135 1103 226 q 1138 77 1111 99 q 1210 44 1165 56 q 1233 35 1224 40 q 1243 17 1243 29 q 1235 1 1243 7 q 1214 -4 1226 -4 q 1144 -2 1183 -4 q 1066 1 1104 0 q 1000 3 1028 3 q 938 1 972 3 q 869 -2 904 0 q 803 -4 835 -4 q 781 1 790 -4 q 771 15 771 6 q 781 35 771 28 q 804 44 790 42 q 875 73 856 54 q 893 135 894 92 q 886 306 889 221 q 881 474 883 392 q 875 635 879 557 q 870 644 875 644 q 861 633 865 643 l 596 3 q 575 -14 589 -17 q 556 0 561 -11 q 413 318 488 161 q 276 629 339 475 q 263 638 272 642 q 253 619 254 635 q 246 467 249 550 q 243 301 243 385 q 243 144 243 217 q 268 81 243 106 q 347 44 293 57 q 374 35 361 42 q 386 17 386 29 q 375 1 386 7 q 351 -4 364 -4 q 293 -2 314 -4 q 256 1 272 0 q 210 1 239 1 q 147 0 179 1 q 92 -3 115 -1 q 61 -4 68 -4 z "},"N":{"ha":1124,"x_min":14,"x_max":1110,"o":"m 944 -26 q 886 -5 926 -26 q 803 71 846 17 q 733 146 769 106 q 657 229 697 186 q 576 317 617 272 q 494 405 535 361 q 414 492 454 449 q 338 575 374 535 q 268 650 301 615 q 259 660 265 656 q 250 665 253 665 q 242 656 244 665 q 240 639 240 646 q 240 489 239 575 q 244 315 242 403 q 246 154 246 226 q 274 84 246 110 q 356 44 301 58 q 383 35 371 42 q 394 17 394 29 q 383 1 394 7 q 360 -4 372 -4 q 299 -2 322 -4 q 255 1 275 0 q 206 1 235 1 q 148 0 175 1 q 102 -3 121 -1 q 76 -4 83 -4 q 55 1 67 -4 q 43 15 43 6 q 54 33 43 28 q 79 44 65 39 q 130 86 113 57 q 150 158 147 115 q 162 294 156 210 q 174 485 168 379 q 179 706 179 592 q 142 810 179 778 q 53 861 106 842 q 28 872 42 864 q 14 892 14 879 q 25 909 14 904 q 50 914 36 914 q 106 913 75 914 q 172 910 138 911 q 244 908 207 910 q 319 907 282 907 q 337 903 331 907 q 349 892 343 899 q 415 817 379 857 q 489 733 450 776 q 568 644 528 689 q 648 553 608 599 q 726 464 688 507 q 800 381 764 421 q 867 306 836 340 q 877 294 871 300 q 889 288 883 288 q 900 308 900 288 q 901 408 900 351 q 901 529 901 465 q 901 656 901 593 q 897 771 900 718 q 869 827 896 808 q 794 858 842 846 q 768 868 779 861 q 757 888 757 875 q 768 902 757 897 q 792 907 779 907 q 846 906 824 907 q 886 906 868 906 q 926 906 904 906 q 974 906 954 906 q 1016 908 993 907 q 1075 910 1039 910 q 1101 904 1092 910 q 1110 889 1110 899 q 1074 861 1110 868 q 1004 833 1025 851 q 982 775 983 815 q 981 668 982 725 q 978 551 981 611 q 973 433 975 492 q 969 319 971 374 q 968 219 968 265 q 972 149 968 188 q 980 80 976 111 q 983 36 983 49 q 973 -12 983 1 q 944 -26 963 -26 z "},"Ń":{"ha":1124,"x_min":14,"x_max":1110,"o":"m 944 -26 q 886 -5 926 -26 q 803 71 846 17 q 733 146 769 106 q 657 229 697 186 q 576 317 617 272 q 494 405 535 361 q 414 492 454 449 q 338 575 374 535 q 268 650 301 615 q 259 660 265 656 q 250 665 253 665 q 242 656 244 665 q 240 639 240 646 q 240 489 239 575 q 244 315 242 403 q 246 154 246 226 q 274 84 246 110 q 356 44 301 58 q 383 35 371 42 q 394 17 394 29 q 383 1 394 7 q 360 -4 372 -4 q 299 -2 322 -4 q 255 1 275 0 q 206 1 235 1 q 148 0 175 1 q 102 -3 121 -1 q 76 -4 83 -4 q 55 1 67 -4 q 43 15 43 6 q 54 33 43 28 q 79 44 65 39 q 130 86 113 57 q 150 158 147 115 q 162 294 156 210 q 174 485 168 379 q 179 706 179 592 q 142 810 179 778 q 53 861 106 842 q 28 872 42 864 q 14 892 14 879 q 25 909 14 904 q 50 914 36 914 q 106 913 75 914 q 172 910 138 911 q 244 908 207 910 q 319 907 282 907 q 337 903 331 907 q 349 892 343 899 q 415 817 379 857 q 489 733 450 776 q 568 644 528 689 q 648 553 608 599 q 726 464 688 507 q 800 381 764 421 q 867 306 836 340 q 877 294 871 300 q 889 288 883 288 q 900 308 900 288 q 901 408 900 351 q 901 529 901 465 q 901 656 901 593 q 897 771 900 718 q 869 827 896 808 q 794 858 842 846 q 768 868 779 861 q 757 888 757 875 q 768 902 757 897 q 792 907 779 907 q 846 906 824 907 q 886 906 868 906 q 926 906 904 906 q 974 906 954 906 q 1016 908 993 907 q 1075 910 1039 910 q 1101 904 1092 910 q 1110 889 1110 899 q 1074 861 1110 868 q 1004 833 1025 851 q 982 775 983 815 q 981 668 982 725 q 978 551 981 611 q 973 433 975 492 q 969 319 971 374 q 968 219 968 265 q 972 149 968 188 q 980 80 976 111 q 983 36 983 49 q 973 -12 983 1 q 944 -26 963 -26 m 524 947 q 507 960 507 950 q 522 989 507 969 q 592 1078 557 1035 q 668 1163 628 1121 q 715 1179 686 1182 q 751 1169 726 1178 q 796 1150 775 1161 q 814 1126 817 1139 q 788 1096 811 1113 q 674 1026 735 1061 q 558 958 613 992 q 536 949 546 951 q 524 947 526 946 z "},"Ň":{"ha":1124,"x_min":14,"x_max":1110,"o":"m 944 -26 q 886 -5 926 -26 q 803 71 846 17 q 733 146 769 106 q 657 229 697 186 q 576 317 617 272 q 494 405 535 361 q 414 492 454 449 q 338 575 374 535 q 268 650 301 615 q 259 660 265 656 q 250 665 253 665 q 242 656 244 665 q 240 639 240 646 q 240 489 239 575 q 244 315 242 403 q 246 154 246 226 q 274 84 246 110 q 356 44 301 58 q 383 35 371 42 q 394 17 394 29 q 383 1 394 7 q 360 -4 372 -4 q 299 -2 322 -4 q 255 1 275 0 q 206 1 235 1 q 148 0 175 1 q 102 -3 121 -1 q 76 -4 83 -4 q 55 1 67 -4 q 43 15 43 6 q 54 33 43 28 q 79 44 65 39 q 130 86 113 57 q 150 158 147 115 q 162 294 156 210 q 174 485 168 379 q 179 706 179 592 q 142 810 179 778 q 53 861 106 842 q 28 872 42 864 q 14 892 14 879 q 25 909 14 904 q 50 914 36 914 q 106 913 75 914 q 172 910 138 911 q 244 908 207 910 q 319 907 282 907 q 337 903 331 907 q 349 892 343 899 q 415 817 379 857 q 489 733 450 776 q 568 644 528 689 q 648 553 608 599 q 726 464 688 507 q 800 381 764 421 q 867 306 836 340 q 877 294 871 300 q 889 288 883 288 q 900 308 900 288 q 901 408 900 351 q 901 529 901 465 q 901 656 901 593 q 897 771 900 718 q 869 827 896 808 q 794 858 842 846 q 768 868 779 861 q 757 888 757 875 q 768 902 757 897 q 792 907 779 907 q 846 906 824 907 q 886 906 868 906 q 926 906 904 906 q 974 906 954 906 q 1016 908 993 907 q 1075 910 1039 910 q 1101 904 1092 910 q 1110 889 1110 899 q 1074 861 1110 868 q 1004 833 1025 851 q 982 775 983 815 q 981 668 982 725 q 978 551 981 611 q 973 433 975 492 q 969 319 971 374 q 968 219 968 265 q 972 149 968 188 q 980 80 976 111 q 983 36 983 49 q 973 -12 983 1 q 944 -26 963 -26 m 390 1176 q 422 1169 399 1176 q 474 1151 444 1163 q 530 1129 503 1140 q 574 1108 557 1118 q 590 1103 583 1103 q 607 1108 597 1103 q 652 1130 625 1118 q 708 1153 679 1142 q 760 1171 738 1164 q 793 1178 783 1178 q 815 1160 815 1178 q 806 1138 815 1147 l 661 1010 q 623 979 636 989 q 590 969 610 969 q 558 979 572 969 q 521 1010 544 989 l 375 1139 q 364 1160 364 1149 q 390 1176 364 1176 z "},"Ŋ":{"ha":1099,"x_min":15,"x_max":1088,"o":"m 736 -376 q 651 -344 683 -376 q 618 -261 618 -311 q 627 -231 618 -239 q 663 -222 636 -224 q 790 -199 746 -217 q 850 -151 833 -181 q 867 -83 867 -122 q 858 -40 867 -60 q 838 -6 850 -19 q 774 69 810 28 q 695 160 738 111 q 608 260 653 208 q 519 363 564 311 q 433 462 475 414 q 354 553 390 510 q 290 628 318 596 q 282 638 288 632 q 272 643 276 643 q 265 633 267 643 q 263 617 263 624 q 260 472 261 553 q 258 308 258 390 q 257 154 257 226 q 285 84 257 110 q 367 44 313 58 q 394 35 382 42 q 406 17 406 29 q 394 1 406 7 q 372 -4 383 -4 q 310 -2 335 -4 q 266 1 286 0 q 217 1 246 1 q 157 0 186 1 q 106 -3 128 -1 q 78 -4 85 -4 q 56 1 68 -4 q 44 15 44 6 q 55 33 44 28 q 81 44 65 39 q 118 70 103 53 q 142 110 133 88 q 151 158 150 133 q 163 295 157 210 q 172 487 168 381 q 175 707 175 593 q 141 811 175 781 q 54 861 107 842 q 29 872 43 864 q 15 892 15 879 q 26 909 15 904 q 51 914 38 914 q 108 913 76 914 q 177 910 140 911 q 252 908 214 910 q 328 907 290 907 q 345 903 339 907 q 357 892 351 899 q 419 816 386 856 q 486 733 451 776 q 558 647 521 690 q 631 558 594 603 q 701 470 667 513 q 769 388 736 428 q 832 313 803 347 q 842 300 836 307 q 854 293 849 293 q 865 315 865 293 q 866 368 865 329 q 867 467 867 407 q 868 601 868 526 q 868 764 868 676 q 844 824 868 801 q 772 858 819 847 q 747 868 757 861 q 738 888 738 875 q 747 902 738 897 q 768 907 757 907 q 824 906 801 907 q 864 906 846 906 q 904 906 882 906 q 951 906 932 906 q 994 908 971 907 q 1053 910 1017 910 q 1078 904 1069 910 q 1088 889 1088 899 q 1051 861 1088 868 q 981 833 1003 851 q 960 775 960 815 l 957 43 q 941 -113 957 -37 q 895 -248 925 -189 q 824 -342 865 -307 q 736 -376 783 -376 z "},"Ñ":{"ha":1124,"x_min":14,"x_max":1110,"o":"m 944 -26 q 886 -5 926 -26 q 803 71 846 17 q 733 146 769 106 q 657 229 697 186 q 576 317 617 272 q 494 405 535 361 q 414 492 454 449 q 338 575 374 535 q 268 650 301 615 q 259 660 265 656 q 250 665 253 665 q 242 656 244 665 q 240 639 240 646 q 240 489 239 575 q 244 315 242 403 q 246 154 246 226 q 274 84 246 110 q 356 44 301 58 q 383 35 371 42 q 394 17 394 29 q 383 1 394 7 q 360 -4 372 -4 q 299 -2 322 -4 q 255 1 275 0 q 206 1 235 1 q 148 0 175 1 q 102 -3 121 -1 q 76 -4 83 -4 q 55 1 67 -4 q 43 15 43 6 q 54 33 43 28 q 79 44 65 39 q 130 86 113 57 q 150 158 147 115 q 162 294 156 210 q 174 485 168 379 q 179 706 179 592 q 142 810 179 778 q 53 861 106 842 q 28 872 42 864 q 14 892 14 879 q 25 909 14 904 q 50 914 36 914 q 106 913 75 914 q 172 910 138 911 q 244 908 207 910 q 319 907 282 907 q 337 903 331 907 q 349 892 343 899 q 415 817 379 857 q 489 733 450 776 q 568 644 528 689 q 648 553 608 599 q 726 464 688 507 q 800 381 764 421 q 867 306 836 340 q 877 294 871 300 q 889 288 883 288 q 900 308 900 288 q 901 408 900 351 q 901 529 901 465 q 901 656 901 593 q 897 771 900 718 q 869 827 896 808 q 794 858 842 846 q 768 868 779 861 q 757 888 757 875 q 768 902 757 897 q 792 907 779 907 q 846 906 824 907 q 886 906 868 906 q 926 906 904 906 q 974 906 954 906 q 1016 908 993 907 q 1075 910 1039 910 q 1101 904 1092 910 q 1110 889 1110 899 q 1074 861 1110 868 q 1004 833 1025 851 q 982 775 983 815 q 981 668 982 725 q 978 551 981 611 q 973 433 975 492 q 969 319 971 374 q 968 219 968 265 q 972 149 968 188 q 980 80 976 111 q 983 36 983 49 q 973 -12 983 1 q 944 -26 963 -26 m 399 960 q 382 969 392 960 q 372 982 372 978 q 385 1013 372 990 q 416 1060 397 1035 q 453 1103 435 1085 q 481 1122 471 1122 q 537 1120 507 1122 q 596 1117 567 1118 q 651 1114 622 1115 q 713 1113 681 1113 q 740 1121 728 1113 q 761 1139 751 1129 q 778 1160 772 1150 q 789 1169 785 1169 q 809 1160 797 1169 q 821 1143 821 1151 q 815 1129 821 1139 q 796 1104 808 1119 q 767 1060 781 1082 q 740 1021 753 1039 q 719 1005 732 1008 q 697 1001 707 1001 q 654 1003 686 1001 q 584 1008 622 1006 q 513 1014 546 1011 q 465 1017 479 1017 q 443 1008 454 1017 q 424 990 432 1000 q 408 969 415 979 q 399 960 401 960 z "},"O":{"ha":1056,"x_min":40,"x_max":1015,"o":"m 521 -19 q 338 13 425 -19 q 184 106 251 46 q 78 251 117 167 q 40 438 40 335 q 72 619 40 532 q 165 774 103 706 q 320 882 228 842 q 533 922 413 922 q 717 890 631 922 q 871 797 804 857 q 976 652 938 736 q 1015 465 1015 568 q 983 285 1015 372 q 889 129 951 197 q 734 21 826 61 q 521 -19 642 -19 m 546 44 q 678 89 625 44 q 758 213 732 133 q 785 394 785 292 q 769 562 785 479 q 719 711 753 644 q 632 817 685 778 q 507 857 579 857 q 376 813 429 857 q 296 690 322 768 q 269 510 269 613 q 286 341 269 424 q 336 192 303 258 q 422 85 369 125 q 546 44 474 44 z "},"Ó":{"ha":1056,"x_min":40,"x_max":1015,"o":"m 521 -19 q 338 13 425 -19 q 184 106 251 46 q 78 251 117 167 q 40 438 40 335 q 72 619 40 532 q 165 774 103 706 q 320 882 228 842 q 533 922 413 922 q 717 890 631 922 q 871 797 804 857 q 976 652 938 736 q 1015 465 1015 568 q 983 285 1015 372 q 889 129 951 197 q 734 21 826 61 q 521 -19 642 -19 m 546 44 q 678 89 625 44 q 758 213 732 133 q 785 394 785 292 q 769 562 785 479 q 719 711 753 644 q 632 817 685 778 q 507 857 579 857 q 376 813 429 857 q 296 690 322 768 q 269 510 269 613 q 286 341 269 424 q 336 192 303 258 q 422 85 369 125 q 546 44 474 44 m 478 947 q 461 960 461 950 q 476 989 461 969 q 547 1078 511 1035 q 622 1163 582 1121 q 669 1179 640 1182 q 705 1169 681 1178 q 750 1150 729 1161 q 768 1126 771 1139 q 742 1096 765 1113 q 628 1026 689 1061 q 513 958 567 992 q 490 949 500 951 q 478 947 481 946 z "},"Ŏ":{"ha":1056,"x_min":40,"x_max":1015,"o":"m 521 -19 q 338 13 425 -19 q 184 106 251 46 q 78 251 117 167 q 40 438 40 335 q 72 619 40 532 q 165 774 103 706 q 320 882 228 842 q 533 922 413 922 q 717 890 631 922 q 871 797 804 857 q 976 652 938 736 q 1015 465 1015 568 q 983 285 1015 372 q 889 129 951 197 q 734 21 826 61 q 521 -19 642 -19 m 546 44 q 678 89 625 44 q 758 213 732 133 q 785 394 785 292 q 769 562 785 479 q 719 711 753 644 q 632 817 685 778 q 507 857 579 857 q 376 813 429 857 q 296 690 322 768 q 269 510 269 613 q 286 341 269 424 q 336 192 303 258 q 422 85 369 125 q 546 44 474 44 m 544 953 q 431 983 476 953 q 365 1053 386 1013 q 343 1125 343 1093 q 347 1152 343 1143 q 361 1161 350 1161 q 382 1153 374 1161 q 401 1132 390 1144 q 465 1082 432 1097 q 544 1067 497 1067 q 624 1082 592 1067 q 688 1132 657 1097 q 707 1153 699 1144 q 728 1161 715 1161 q 743 1152 740 1161 q 746 1125 746 1143 q 724 1053 746 1093 q 658 983 703 1013 q 544 953 614 953 z "},"Ô":{"ha":1056,"x_min":40,"x_max":1015,"o":"m 521 -19 q 338 13 425 -19 q 184 106 251 46 q 78 251 117 167 q 40 438 40 335 q 72 619 40 532 q 165 774 103 706 q 320 882 228 842 q 533 922 413 922 q 717 890 631 922 q 871 797 804 857 q 976 652 938 736 q 1015 465 1015 568 q 983 285 1015 372 q 889 129 951 197 q 734 21 826 61 q 521 -19 642 -19 m 546 44 q 678 89 625 44 q 758 213 732 133 q 785 394 785 292 q 769 562 785 479 q 719 711 753 644 q 632 817 685 778 q 507 857 579 857 q 376 813 429 857 q 296 690 322 768 q 269 510 269 613 q 286 341 269 424 q 336 192 303 258 q 422 85 369 125 q 546 44 474 44 m 344 963 q 318 979 318 963 q 329 1000 318 992 l 475 1131 q 513 1162 499 1153 q 544 1171 526 1171 q 578 1162 564 1171 q 615 1131 592 1153 l 760 1001 q 769 979 769 993 q 747 961 769 961 q 715 968 738 961 q 663 986 692 975 q 606 1009 633 997 q 561 1031 579 1021 q 544 1036 551 1036 q 528 1031 538 1036 q 484 1010 511 1021 q 428 988 457 999 q 376 969 399 976 q 344 963 353 963 z "},"Ö":{"ha":1056,"x_min":40,"x_max":1015,"o":"m 521 -19 q 338 13 425 -19 q 184 106 251 46 q 78 251 117 167 q 40 438 40 335 q 72 619 40 532 q 165 774 103 706 q 320 882 228 842 q 533 922 413 922 q 717 890 631 922 q 871 797 804 857 q 976 652 938 736 q 1015 465 1015 568 q 983 285 1015 372 q 889 129 951 197 q 734 21 826 61 q 521 -19 642 -19 m 546 44 q 678 89 625 44 q 758 213 732 133 q 785 394 785 292 q 769 562 785 479 q 719 711 753 644 q 632 817 685 778 q 507 857 579 857 q 376 813 429 857 q 296 690 322 768 q 269 510 269 613 q 286 341 269 424 q 336 192 303 258 q 422 85 369 125 q 546 44 474 44 m 681 956 q 611 985 640 956 q 582 1054 582 1014 q 611 1126 582 1097 q 681 1154 640 1154 q 755 1126 725 1154 q 785 1054 785 1097 q 755 985 785 1014 q 681 956 725 956 m 407 956 q 337 985 367 956 q 307 1054 307 1014 q 337 1126 307 1097 q 407 1154 367 1154 q 480 1126 450 1154 q 510 1054 510 1097 q 480 985 510 1014 q 407 956 450 956 z "},"Ò":{"ha":1056,"x_min":40,"x_max":1015,"o":"m 583 947 q 569 949 579 946 q 547 958 560 951 q 433 1026 494 992 q 318 1096 372 1061 q 292 1126 296 1113 q 310 1150 290 1139 q 356 1169 331 1161 q 390 1179 381 1178 q 438 1163 419 1182 q 514 1078 479 1121 q 585 989 549 1035 q 599 960 599 969 q 583 947 599 950 m 521 -19 q 338 13 425 -19 q 184 106 251 46 q 78 251 117 167 q 40 438 40 335 q 72 619 40 532 q 165 774 103 706 q 320 882 228 842 q 533 922 413 922 q 717 890 631 922 q 871 797 804 857 q 976 652 938 736 q 1015 465 1015 568 q 983 285 1015 372 q 889 129 951 197 q 734 21 826 61 q 521 -19 642 -19 m 546 44 q 678 89 625 44 q 758 213 732 133 q 785 394 785 292 q 769 562 785 479 q 719 711 753 644 q 632 817 685 778 q 507 857 579 857 q 376 813 429 857 q 296 690 322 768 q 269 510 269 613 q 286 341 269 424 q 336 192 303 258 q 422 85 369 125 q 546 44 474 44 z "},"Ơ":{"ha":1056,"x_min":40,"x_max":1097,"o":"m 522 -19 q 340 14 426 -19 q 185 108 253 47 q 78 252 117 168 q 40 439 40 336 q 72 620 40 533 q 167 774 104 707 q 322 882 231 842 q 533 922 414 922 q 694 899 632 922 q 801 851 757 875 q 868 815 835 835 q 928 796 901 796 q 963 810 951 796 q 974 839 974 824 q 964 867 974 856 q 939 886 954 878 q 915 900 926 893 q 904 929 904 907 q 926 969 904 949 q 976 1005 947 990 q 1025 1019 1004 1019 q 1060 1001 1043 1019 q 1087 957 1076 983 q 1097 906 1097 931 q 1078 826 1097 863 q 1026 763 1060 789 q 947 729 992 738 q 932 722 936 728 q 932 710 928 717 q 997 597 978 654 q 1015 465 1015 539 q 984 285 1015 372 q 890 129 953 197 q 735 21 828 61 q 522 -19 643 -19 m 546 49 q 725 145 665 49 q 785 399 785 242 q 768 566 785 485 q 718 712 751 647 q 633 815 685 776 q 508 853 581 853 q 405 827 450 853 q 330 755 360 801 q 285 645 300 708 q 269 506 269 582 q 287 340 269 421 q 338 192 304 258 q 424 88 372 126 q 546 49 476 49 z "},"Ő":{"ha":1056,"x_min":40,"x_max":1015,"o":"m 521 -19 q 338 13 425 -19 q 184 106 251 46 q 78 251 117 167 q 40 438 40 335 q 72 619 40 532 q 165 774 103 706 q 320 882 228 842 q 533 922 413 922 q 717 890 631 922 q 871 797 804 857 q 976 652 938 736 q 1015 465 1015 568 q 983 285 1015 372 q 889 129 951 197 q 734 21 826 61 q 521 -19 642 -19 m 546 44 q 678 89 625 44 q 758 213 732 133 q 785 394 785 292 q 769 562 785 479 q 719 711 753 644 q 632 817 685 778 q 507 857 579 857 q 376 813 429 857 q 296 690 322 768 q 269 510 269 613 q 286 341 269 424 q 336 192 303 258 q 422 85 369 125 q 546 44 474 44 m 581 947 q 564 960 564 950 q 579 989 564 969 q 649 1078 614 1035 q 725 1163 685 1121 q 772 1179 743 1182 q 808 1169 783 1178 q 853 1150 832 1161 q 871 1126 874 1139 q 844 1096 868 1113 q 731 1026 792 1061 q 615 958 669 992 q 593 949 603 951 q 581 947 583 946 m 357 947 q 340 960 340 950 q 356 989 340 969 q 426 1078 390 1035 q 501 1163 461 1121 q 549 1179 519 1182 q 584 1169 560 1178 q 629 1150 608 1161 q 647 1126 650 1139 q 621 1096 644 1113 q 507 1026 568 1061 q 392 958 446 992 q 369 949 379 951 q 357 947 360 946 z "},"Ō":{"ha":1056,"x_min":40,"x_max":1015,"o":"m 521 -19 q 338 13 425 -19 q 184 106 251 46 q 78 251 117 167 q 40 438 40 335 q 72 619 40 532 q 165 774 103 706 q 320 882 228 842 q 533 922 413 922 q 717 890 631 922 q 871 797 804 857 q 976 652 938 736 q 1015 465 1015 568 q 983 285 1015 372 q 889 129 951 197 q 734 21 826 61 q 521 -19 642 -19 m 546 44 q 678 89 625 44 q 758 213 732 133 q 785 394 785 292 q 769 562 785 479 q 719 711 753 644 q 632 817 685 778 q 507 857 579 857 q 376 813 429 857 q 296 690 322 768 q 269 510 269 613 q 286 341 269 424 q 336 192 303 258 q 422 85 369 125 q 546 44 474 44 m 347 996 q 328 1004 335 996 q 321 1021 321 1013 q 328 1065 321 1044 q 347 1097 335 1085 q 372 1108 360 1108 l 746 1108 q 765 1101 758 1108 q 771 1083 771 1093 q 754 1023 771 1050 q 714 996 738 996 l 347 996 z "},"Ø":{"ha":1058,"x_min":40,"x_max":1018,"o":"m 107 -19 q 62 -4 82 -19 q 42 28 42 11 q 64 75 42 54 l 956 911 q 986 922 967 925 q 1010 903 1006 919 q 1015 885 1013 894 q 1018 867 1018 876 q 1015 844 1018 856 q 1001 824 1011 833 l 128 -11 q 119 -17 124 -14 q 107 -19 115 -19 m 521 -19 q 338 13 425 -19 q 184 106 251 46 q 78 251 117 167 q 40 438 40 335 q 72 619 40 532 q 165 774 103 706 q 320 882 228 842 q 533 922 413 922 q 717 890 631 922 q 871 797 804 857 q 976 652 938 736 q 1015 465 1015 568 q 983 285 1015 372 q 889 129 951 197 q 734 21 826 61 q 521 -19 642 -19 m 546 44 q 678 89 625 44 q 758 213 732 133 q 785 394 785 292 q 769 562 785 479 q 719 711 753 644 q 632 817 685 778 q 507 857 579 857 q 376 813 429 857 q 296 690 322 768 q 269 510 269 613 q 286 341 269 424 q 336 192 303 258 q 422 85 369 125 q 546 44 474 44 z "},"Ǿ":{"ha":1058,"x_min":40,"x_max":1018,"o":"m 107 -19 q 62 -4 82 -19 q 42 28 42 11 q 64 75 42 54 l 956 911 q 986 922 967 925 q 1010 903 1006 919 q 1015 885 1013 894 q 1018 867 1018 876 q 1015 844 1018 856 q 1001 824 1011 833 l 128 -11 q 119 -17 124 -14 q 107 -19 115 -19 m 521 -19 q 338 13 425 -19 q 184 106 251 46 q 78 251 117 167 q 40 438 40 335 q 72 619 40 532 q 165 774 103 706 q 320 882 228 842 q 533 922 413 922 q 717 890 631 922 q 871 797 804 857 q 976 652 938 736 q 1015 465 1015 568 q 983 285 1015 372 q 889 129 951 197 q 734 21 826 61 q 521 -19 642 -19 m 546 44 q 678 89 625 44 q 758 213 732 133 q 785 394 785 292 q 769 562 785 479 q 719 711 753 644 q 632 817 685 778 q 507 857 579 857 q 376 813 429 857 q 296 690 322 768 q 269 510 269 613 q 286 341 269 424 q 336 192 303 258 q 422 85 369 125 q 546 44 474 44 m 478 947 q 461 960 461 950 q 476 989 461 969 q 547 1078 511 1035 q 622 1163 582 1121 q 669 1179 640 1182 q 705 1169 681 1178 q 750 1150 729 1161 q 768 1126 771 1139 q 742 1096 765 1113 q 628 1026 689 1061 q 513 958 567 992 q 490 949 500 951 q 478 947 481 946 z "},"Õ":{"ha":1056,"x_min":40,"x_max":1015,"o":"m 521 -19 q 338 13 425 -19 q 184 106 251 46 q 78 251 117 167 q 40 438 40 335 q 72 619 40 532 q 165 774 103 706 q 320 882 228 842 q 533 922 413 922 q 717 890 631 922 q 871 797 804 857 q 976 652 938 736 q 1015 465 1015 568 q 983 285 1015 372 q 889 129 951 197 q 734 21 826 61 q 521 -19 642 -19 m 546 44 q 678 89 625 44 q 758 213 732 133 q 785 394 785 292 q 769 562 785 479 q 719 711 753 644 q 632 817 685 778 q 507 857 579 857 q 376 813 429 857 q 296 690 322 768 q 269 510 269 613 q 286 341 269 424 q 336 192 303 258 q 422 85 369 125 q 546 44 474 44 m 353 960 q 336 969 346 960 q 326 982 326 978 q 339 1013 326 990 q 370 1060 351 1035 q 407 1103 389 1085 q 435 1122 425 1122 q 491 1120 461 1122 q 550 1117 521 1118 q 606 1114 576 1115 q 667 1113 635 1113 q 694 1121 682 1113 q 715 1139 706 1129 q 733 1160 726 1150 q 743 1169 739 1169 q 763 1160 751 1169 q 775 1143 775 1151 q 769 1129 775 1139 q 750 1104 763 1119 q 721 1060 735 1082 q 694 1021 707 1039 q 674 1005 686 1008 q 651 1001 661 1001 q 608 1003 640 1001 q 538 1008 576 1006 q 467 1014 500 1011 q 419 1017 433 1017 q 397 1008 408 1017 q 378 990 386 1000 q 363 969 369 979 q 353 960 356 960 z "},"Œ":{"ha":1369,"x_min":40,"x_max":1347,"o":"m 521 -19 q 338 13 425 -19 q 184 106 251 46 q 78 251 117 167 q 40 438 40 335 q 72 619 40 532 q 165 774 103 706 q 320 882 228 842 q 533 922 413 922 q 681 901 610 922 q 811 843 751 881 l 718 660 q 690 774 718 733 q 615 831 661 814 q 515 847 569 847 q 333 747 394 847 q 272 478 272 646 q 303 256 272 351 q 393 108 333 161 q 538 54 453 54 q 669 81 621 54 q 718 193 718 107 l 829 75 q 693 6 771 32 q 521 -19 615 -19 m 628 -7 q 607 -1 615 -7 q 599 14 599 6 q 631 43 599 35 q 697 72 678 56 q 717 133 717 89 l 717 765 q 699 829 717 810 q 632 860 682 849 q 607 872 614 864 q 600 889 600 879 q 608 903 600 897 q 631 910 617 910 q 701 908 664 910 q 772 905 738 907 q 838 903 807 903 q 992 904 910 903 q 1138 907 1074 906 q 1213 912 1183 907 q 1247 917 1242 917 q 1268 910 1257 917 q 1281 890 1279 904 q 1295 793 1286 840 q 1304 710 1304 746 q 1299 690 1304 697 q 1286 683 1293 683 q 1272 689 1279 683 q 1258 706 1264 694 q 1235 765 1246 740 q 1210 806 1224 790 q 1169 835 1193 821 q 1110 849 1146 849 l 1004 849 q 952 833 974 849 q 931 788 931 817 l 931 525 q 940 500 931 508 q 965 492 950 492 l 1086 492 q 1140 516 1124 492 q 1167 575 1156 540 q 1196 601 1178 601 q 1208 594 1203 601 q 1213 571 1214 586 q 1209 535 1211 554 q 1206 496 1207 515 q 1206 458 1206 476 q 1206 422 1206 442 q 1208 383 1207 403 q 1211 346 1210 364 q 1209 317 1214 326 q 1197 308 1204 308 q 1164 344 1174 308 q 1137 408 1153 386 q 1094 431 1121 431 l 964 431 q 939 423 947 431 q 931 399 931 415 l 931 135 q 949 76 931 93 q 1003 60 967 60 l 1124 60 q 1181 67 1154 60 q 1229 90 1208 74 q 1272 139 1253 110 q 1308 201 1292 168 q 1319 215 1314 211 q 1333 218 1325 218 q 1344 210 1342 218 q 1347 192 1347 201 q 1340 139 1347 168 q 1323 77 1333 110 q 1304 13 1313 44 q 1292 -1 1300 3 q 1272 -6 1283 -6 q 1206 -5 1256 -6 q 1090 -3 1157 -4 q 953 -1 1024 -1 q 821 0 882 0 q 759 -1 793 0 q 692 -5 725 -3 q 628 -7 658 -7 z "},"P":{"ha":843,"x_min":24,"x_max":808,"o":"m 51 -4 q 32 1 40 -4 q 24 15 24 6 q 53 44 24 38 q 126 73 106 56 q 146 136 146 90 l 146 758 q 129 827 146 806 q 63 860 113 849 q 38 872 44 864 q 31 889 31 879 q 39 903 31 897 q 61 910 47 910 q 126 908 93 910 q 190 905 158 907 q 249 903 221 903 q 308 906 282 903 q 365 913 333 910 q 440 917 396 917 q 709 845 610 917 q 808 649 808 774 q 772 488 808 561 q 660 369 735 414 q 472 324 586 324 q 417 335 436 324 q 399 361 399 346 q 408 377 399 371 q 424 383 417 383 q 450 380 439 383 q 481 376 461 376 q 569 442 539 376 q 599 614 599 507 q 557 799 599 742 q 440 856 515 856 q 381 838 401 856 q 361 785 361 821 l 360 139 q 383 76 360 94 q 465 44 407 57 q 488 35 481 42 q 496 17 496 29 q 489 1 496 7 q 469 -4 482 -4 q 399 -2 439 -4 q 321 1 360 0 q 254 3 282 3 q 190 1 225 3 q 119 -2 156 0 q 51 -4 82 -4 z "},"Þ":{"ha":819,"x_min":22,"x_max":788,"o":"m 50 -4 q 31 1 40 -4 q 22 15 22 6 q 53 44 22 38 q 126 73 106 56 q 147 135 147 90 l 147 765 q 130 828 147 808 q 58 860 113 847 q 28 889 28 867 q 37 904 28 899 q 56 910 46 910 q 123 908 88 910 q 192 905 158 907 q 253 903 225 903 q 317 904 281 903 q 390 907 353 906 q 458 908 428 908 q 478 903 471 908 q 485 889 485 899 q 477 869 485 875 q 454 860 469 864 q 383 828 401 844 q 361 776 364 813 l 361 761 q 363 753 361 757 q 369 749 364 749 q 381 751 372 749 q 397 755 389 753 q 401 757 404 757 q 453 766 426 764 q 508 768 481 768 q 647 737 583 768 q 749 643 711 706 q 788 485 788 581 q 738 317 788 386 q 606 213 689 249 q 426 178 524 178 q 397 180 413 178 q 372 182 382 182 q 361 169 361 182 l 361 136 q 381 77 361 96 q 454 44 401 58 q 477 35 469 40 q 485 17 485 29 q 478 1 485 7 q 460 -4 472 -4 q 392 -2 429 -4 q 318 1 354 0 q 253 3 282 3 q 190 1 225 3 q 118 -2 154 0 q 50 -4 82 -4 m 415 233 q 538 294 500 233 q 575 465 575 356 q 560 593 575 539 q 515 677 544 647 q 446 707 486 707 q 400 698 419 707 q 371 666 381 689 q 361 601 361 643 l 361 325 q 380 250 361 267 q 415 233 399 233 z "},"Q":{"ha":1056,"x_min":40,"x_max":1228,"o":"m 1013 -344 q 842 -316 931 -344 q 682 -237 754 -287 q 588 -169 631 -200 q 497 -93 546 -137 q 430 -36 468 -68 q 339 15 392 -4 q 241 64 293 32 q 144 146 189 96 q 69 268 99 196 q 40 438 40 340 q 72 619 40 532 q 165 774 103 706 q 320 882 228 842 q 533 922 413 922 q 717 890 631 922 q 871 797 804 857 q 976 652 938 736 q 1015 465 1015 568 q 983 281 1015 369 q 885 124 950 193 q 724 18 819 56 q 708 3 708 14 q 715 -10 708 -4 q 781 -71 749 -42 q 865 -143 814 -100 q 993 -221 935 -197 q 1110 -244 1051 -244 q 1138 -244 1125 -244 q 1158 -242 1150 -243 q 1174 -238 1167 -239 q 1190 -237 1182 -237 q 1228 -265 1228 -237 q 1222 -287 1228 -278 q 1200 -306 1215 -296 q 1122 -335 1171 -325 q 1013 -344 1074 -344 m 546 47 q 725 140 665 47 q 785 394 785 233 q 769 565 785 482 q 719 712 753 647 q 632 815 685 776 q 507 853 579 853 q 329 760 389 853 q 269 510 269 668 q 286 338 269 421 q 336 190 303 256 q 422 86 369 125 q 546 47 474 47 z "},"R":{"ha":1056,"x_min":24,"x_max":1063,"o":"m 896 -29 q 776 -12 825 -29 q 694 34 728 6 q 633 99 660 63 q 574 179 603 139 q 518 267 546 219 q 460 375 490 314 q 422 418 446 406 q 397 429 410 426 q 375 432 385 432 q 364 424 368 432 q 360 404 360 417 l 360 139 q 383 76 360 96 q 465 44 407 57 q 488 35 481 42 q 496 17 496 29 q 489 1 496 7 q 469 -4 482 -4 q 399 -2 439 -4 q 321 1 360 0 q 254 3 282 3 q 190 1 225 3 q 119 -2 156 0 q 51 -4 82 -4 q 32 1 40 -4 q 24 15 24 6 q 53 44 24 38 q 126 73 106 56 q 146 136 146 90 l 146 760 q 140 813 146 793 q 115 842 133 832 q 63 860 97 853 q 38 872 44 864 q 31 889 31 879 q 39 903 31 897 q 61 910 47 910 q 134 907 106 910 q 188 902 163 904 q 249 900 214 900 q 305 903 281 900 q 360 910 329 907 q 440 913 392 913 q 690 857 603 913 q 778 689 778 801 q 751 584 778 626 q 683 515 724 542 q 600 474 642 488 q 595 467 594 472 q 599 457 596 463 q 680 338 640 396 q 761 231 719 281 q 847 140 803 182 q 944 88 894 96 q 1042 81 993 81 q 1063 56 1063 81 q 1041 6 1063 25 q 982 -21 1019 -12 q 896 -29 944 -29 m 413 476 q 500 500 465 476 q 553 565 535 524 q 571 658 571 606 q 554 765 571 722 q 504 830 538 808 q 418 851 471 851 q 374 827 388 851 q 361 724 361 803 q 360 643 360 692 q 360 528 360 594 q 374 488 360 500 q 413 476 389 476 z "},"Ŕ":{"ha":1056,"x_min":24,"x_max":1063,"o":"m 896 -29 q 776 -12 825 -29 q 694 34 728 6 q 633 99 660 63 q 574 179 603 139 q 518 267 546 219 q 460 375 490 314 q 422 418 446 406 q 397 429 410 426 q 375 432 385 432 q 364 424 368 432 q 360 404 360 417 l 360 139 q 383 76 360 96 q 465 44 407 57 q 488 35 481 42 q 496 17 496 29 q 489 1 496 7 q 469 -4 482 -4 q 399 -2 439 -4 q 321 1 360 0 q 254 3 282 3 q 190 1 225 3 q 119 -2 156 0 q 51 -4 82 -4 q 32 1 40 -4 q 24 15 24 6 q 53 44 24 38 q 126 73 106 56 q 146 136 146 90 l 146 760 q 140 813 146 793 q 115 842 133 832 q 63 860 97 853 q 38 872 44 864 q 31 889 31 879 q 39 903 31 897 q 61 910 47 910 q 134 907 106 910 q 188 902 163 904 q 249 900 214 900 q 305 903 281 900 q 360 910 329 907 q 440 913 392 913 q 690 857 603 913 q 778 689 778 801 q 751 584 778 626 q 683 515 724 542 q 600 474 642 488 q 595 467 594 472 q 599 457 596 463 q 680 338 640 396 q 761 231 719 281 q 847 140 803 182 q 944 88 894 96 q 1042 81 993 81 q 1063 56 1063 81 q 1041 6 1063 25 q 982 -21 1019 -12 q 896 -29 944 -29 m 413 476 q 500 500 465 476 q 553 565 535 524 q 571 658 571 606 q 554 765 571 722 q 504 830 538 808 q 418 851 471 851 q 374 827 388 851 q 361 724 361 803 q 360 643 360 692 q 360 528 360 594 q 374 488 360 500 q 413 476 389 476 m 372 947 q 356 960 356 950 q 371 989 356 969 q 441 1078 406 1035 q 517 1163 476 1121 q 564 1179 535 1182 q 599 1169 575 1178 q 644 1150 624 1161 q 663 1126 665 1139 q 636 1096 660 1113 q 522 1026 583 1061 q 407 958 461 992 q 385 949 394 951 q 372 947 375 946 z "},"Ř":{"ha":1056,"x_min":24,"x_max":1063,"o":"m 896 -29 q 776 -12 825 -29 q 694 34 728 6 q 633 99 660 63 q 574 179 603 139 q 518 267 546 219 q 460 375 490 314 q 422 418 446 406 q 397 429 410 426 q 375 432 385 432 q 364 424 368 432 q 360 404 360 417 l 360 139 q 383 76 360 96 q 465 44 407 57 q 488 35 481 42 q 496 17 496 29 q 489 1 496 7 q 469 -4 482 -4 q 399 -2 439 -4 q 321 1 360 0 q 254 3 282 3 q 190 1 225 3 q 119 -2 156 0 q 51 -4 82 -4 q 32 1 40 -4 q 24 15 24 6 q 53 44 24 38 q 126 73 106 56 q 146 136 146 90 l 146 760 q 140 813 146 793 q 115 842 133 832 q 63 860 97 853 q 38 872 44 864 q 31 889 31 879 q 39 903 31 897 q 61 910 47 910 q 134 907 106 910 q 188 902 163 904 q 249 900 214 900 q 305 903 281 900 q 360 910 329 907 q 440 913 392 913 q 690 857 603 913 q 778 689 778 801 q 751 584 778 626 q 683 515 724 542 q 600 474 642 488 q 595 467 594 472 q 599 457 596 463 q 680 338 640 396 q 761 231 719 281 q 847 140 803 182 q 944 88 894 96 q 1042 81 993 81 q 1063 56 1063 81 q 1041 6 1063 25 q 982 -21 1019 -12 q 896 -29 944 -29 m 413 476 q 500 500 465 476 q 553 565 535 524 q 571 658 571 606 q 554 765 571 722 q 504 830 538 808 q 418 851 471 851 q 374 827 388 851 q 361 724 361 803 q 360 643 360 692 q 360 528 360 594 q 374 488 360 500 q 413 476 389 476 m 239 1176 q 270 1169 247 1176 q 322 1151 293 1163 q 378 1129 351 1140 q 422 1108 406 1118 q 439 1103 432 1103 q 456 1108 446 1103 q 501 1130 474 1118 q 557 1153 528 1142 q 609 1171 586 1164 q 642 1178 632 1178 q 664 1160 664 1178 q 654 1138 664 1147 l 510 1010 q 472 979 485 989 q 439 969 458 969 q 407 979 421 969 q 369 1010 393 989 l 224 1139 q 213 1160 213 1149 q 239 1176 213 1176 z "},"S":{"ha":686,"x_min":32,"x_max":635,"o":"m 304 -19 q 189 -6 244 -19 q 85 39 133 8 q 68 54 76 46 q 56 72 60 63 q 37 164 42 110 q 33 274 32 218 q 42 288 33 283 q 61 292 50 292 q 80 288 75 292 q 90 275 85 285 q 181 107 121 171 q 322 43 242 43 q 395 63 367 43 q 439 115 424 83 q 454 178 454 146 q 437 253 454 222 q 385 308 419 283 q 296 363 350 333 q 183 433 238 396 q 94 522 129 469 q 60 654 60 575 q 102 796 60 736 q 218 889 144 856 q 383 922 292 922 q 484 911 436 922 q 561 889 532 900 q 585 874 578 882 q 599 844 593 865 q 610 774 606 815 q 615 682 615 732 q 590 664 615 664 q 567 670 578 664 q 554 686 557 676 q 485 813 531 769 q 372 856 439 856 q 301 842 331 856 q 258 800 272 828 q 243 731 243 772 q 266 669 243 697 q 332 611 289 640 q 431 549 375 582 q 550 461 506 504 q 615 370 594 418 q 635 260 635 322 q 594 103 635 165 q 478 10 553 40 q 304 -19 404 -19 z "},"Ś":{"ha":686,"x_min":32,"x_max":635,"o":"m 304 -19 q 189 -6 244 -19 q 85 39 133 8 q 68 54 76 46 q 56 72 60 63 q 37 164 42 110 q 33 274 32 218 q 42 288 33 283 q 61 292 50 292 q 80 288 75 292 q 90 275 85 285 q 181 107 121 171 q 322 43 242 43 q 395 63 367 43 q 439 115 424 83 q 454 178 454 146 q 437 253 454 222 q 385 308 419 283 q 296 363 350 333 q 183 433 238 396 q 94 522 129 469 q 60 654 60 575 q 102 796 60 736 q 218 889 144 856 q 383 922 292 922 q 484 911 436 922 q 561 889 532 900 q 585 874 578 882 q 599 844 593 865 q 610 774 606 815 q 615 682 615 732 q 590 664 615 664 q 567 670 578 664 q 554 686 557 676 q 485 813 531 769 q 372 856 439 856 q 301 842 331 856 q 258 800 272 828 q 243 731 243 772 q 266 669 243 697 q 332 611 289 640 q 431 549 375 582 q 550 461 506 504 q 615 370 594 418 q 635 260 635 322 q 594 103 635 165 q 478 10 553 40 q 304 -19 404 -19 m 314 947 q 297 960 297 950 q 313 989 297 969 q 383 1078 347 1035 q 458 1163 418 1121 q 506 1179 476 1182 q 541 1169 517 1178 q 586 1150 565 1161 q 604 1126 607 1139 q 578 1096 601 1113 q 464 1026 525 1061 q 349 958 403 992 q 326 949 336 951 q 314 947 317 946 z "},"Š":{"ha":686,"x_min":32,"x_max":635,"o":"m 304 -19 q 189 -6 244 -19 q 85 39 133 8 q 68 54 76 46 q 56 72 60 63 q 37 164 42 110 q 33 274 32 218 q 42 288 33 283 q 61 292 50 292 q 80 288 75 292 q 90 275 85 285 q 181 107 121 171 q 322 43 242 43 q 395 63 367 43 q 439 115 424 83 q 454 178 454 146 q 437 253 454 222 q 385 308 419 283 q 296 363 350 333 q 183 433 238 396 q 94 522 129 469 q 60 654 60 575 q 102 796 60 736 q 218 889 144 856 q 383 922 292 922 q 484 911 436 922 q 561 889 532 900 q 585 874 578 882 q 599 844 593 865 q 610 774 606 815 q 615 682 615 732 q 590 664 615 664 q 567 670 578 664 q 554 686 557 676 q 485 813 531 769 q 372 856 439 856 q 301 842 331 856 q 258 800 272 828 q 243 731 243 772 q 266 669 243 697 q 332 611 289 640 q 431 549 375 582 q 550 461 506 504 q 615 370 594 418 q 635 260 635 322 q 594 103 635 165 q 478 10 553 40 q 304 -19 404 -19 m 179 1176 q 210 1169 188 1176 q 263 1151 233 1163 q 319 1129 292 1140 q 363 1108 346 1118 q 379 1103 372 1103 q 396 1108 386 1103 q 441 1130 414 1118 q 497 1153 468 1142 q 549 1171 526 1164 q 582 1178 572 1178 q 604 1160 604 1178 q 594 1138 604 1147 l 450 1010 q 412 979 425 989 q 379 969 399 969 q 347 979 361 969 q 310 1010 333 989 l 164 1139 q 153 1160 153 1149 q 179 1176 153 1176 z "},"Ş":{"ha":675,"x_min":32,"x_max":635,"o":"m 304 -19 q 189 -6 244 -19 q 85 39 133 8 q 68 54 76 46 q 56 72 60 63 q 37 164 42 110 q 33 274 32 218 q 42 288 33 283 q 61 292 50 292 q 80 288 75 292 q 90 275 85 285 q 181 107 121 171 q 322 43 242 43 q 395 63 367 43 q 439 115 424 83 q 454 178 454 146 q 437 253 454 222 q 385 308 419 283 q 296 363 350 333 q 183 433 238 396 q 94 522 129 469 q 60 654 60 575 q 102 796 60 736 q 218 889 144 856 q 383 922 292 922 q 484 911 436 922 q 561 889 532 900 q 585 874 578 882 q 599 844 593 865 q 610 774 606 815 q 615 682 615 732 q 590 664 615 664 q 567 670 578 664 q 554 686 557 676 q 485 813 531 769 q 372 856 439 856 q 301 842 331 856 q 258 800 272 828 q 243 731 243 772 q 266 669 243 697 q 332 611 289 640 q 431 549 375 582 q 550 461 506 504 q 615 370 594 418 q 635 260 635 322 q 594 103 635 165 q 478 10 553 40 q 304 -19 404 -19 m 250 -382 q 198 -372 217 -382 q 179 -322 179 -361 q 188 -289 179 -299 q 207 -279 197 -279 q 231 -288 215 -279 q 292 -297 247 -297 q 333 -286 313 -297 q 353 -244 353 -275 q 337 -203 353 -218 q 285 -189 321 -189 q 267 -192 274 -189 q 251 -196 261 -196 q 221 -185 231 -196 q 211 -165 211 -174 q 213 -150 211 -156 q 221 -139 215 -144 l 349 11 l 413 11 l 363 -54 q 369 -83 347 -75 q 432 -126 406 -97 q 458 -199 458 -154 q 424 -289 458 -247 q 342 -356 390 -331 q 250 -382 294 -382 z "},"Ŝ":{"ha":686,"x_min":32,"x_max":635,"o":"m 304 -19 q 189 -6 244 -19 q 85 39 133 8 q 68 54 76 46 q 56 72 60 63 q 37 164 42 110 q 33 274 32 218 q 42 288 33 283 q 61 292 50 292 q 80 288 75 292 q 90 275 85 285 q 181 107 121 171 q 322 43 242 43 q 395 63 367 43 q 439 115 424 83 q 454 178 454 146 q 437 253 454 222 q 385 308 419 283 q 296 363 350 333 q 183 433 238 396 q 94 522 129 469 q 60 654 60 575 q 102 796 60 736 q 218 889 144 856 q 383 922 292 922 q 484 911 436 922 q 561 889 532 900 q 585 874 578 882 q 599 844 593 865 q 610 774 606 815 q 615 682 615 732 q 590 664 615 664 q 567 670 578 664 q 554 686 557 676 q 485 813 531 769 q 372 856 439 856 q 301 842 331 856 q 258 800 272 828 q 243 731 243 772 q 266 669 243 697 q 332 611 289 640 q 431 549 375 582 q 550 461 506 504 q 615 370 594 418 q 635 260 635 322 q 594 103 635 165 q 478 10 553 40 q 304 -19 404 -19 m 179 963 q 153 979 153 963 q 164 1000 153 992 l 310 1131 q 347 1162 333 1153 q 379 1171 361 1171 q 413 1162 399 1171 q 450 1131 426 1153 l 594 1001 q 604 979 604 993 q 582 961 604 961 q 549 968 572 961 q 497 986 526 975 q 441 1009 468 997 q 396 1031 414 1021 q 379 1036 386 1036 q 363 1031 372 1036 q 319 1010 346 1021 q 263 988 292 999 q 210 969 233 976 q 179 963 188 963 z "},"ẞ":{"ha":1068,"x_min":19,"x_max":1011,"o":"m 651 -19 q 583 -13 618 -19 q 511 3 547 -7 q 489 21 493 7 q 472 75 481 40 q 456 148 463 110 q 449 214 450 186 q 458 233 449 226 q 481 240 468 240 q 501 210 485 240 q 525 161 511 189 q 557 107 539 133 q 598 63 575 81 q 651 44 621 44 q 722 73 692 44 q 769 149 753 101 q 786 258 786 197 q 748 376 786 335 q 644 435 710 418 q 499 453 579 453 q 483 455 494 453 q 478 467 472 457 l 678 814 q 661 839 686 828 q 617 851 643 847 q 569 856 592 856 q 463 823 506 856 q 394 734 419 790 q 358 608 369 678 q 347 463 347 538 q 348 374 347 419 q 349 286 349 329 q 349 205 349 243 q 350 138 350 167 q 367 78 350 97 q 415 50 383 60 q 437 38 429 44 q 444 17 444 31 q 438 3 444 8 q 419 -3 432 -3 q 376 -2 400 -3 q 328 0 353 -1 q 281 2 303 1 q 240 3 258 3 q 198 1 222 3 q 146 -1 174 0 q 92 -3 118 -1 q 47 -4 67 -4 q 28 1 38 -4 q 19 15 19 7 q 50 46 19 39 q 117 74 97 57 q 136 136 136 92 l 136 476 q 169 645 136 565 q 265 788 201 725 q 417 887 328 851 q 618 922 506 922 q 777 903 700 922 q 907 865 854 885 q 930 846 924 858 q 928 818 936 833 l 889 756 q 837 671 861 710 q 790 594 813 632 q 742 515 767 557 q 741 506 740 511 q 747 499 742 500 q 876 460 817 489 q 974 384 936 432 q 1011 265 1011 336 q 963 110 1011 174 q 833 14 914 47 q 651 -19 751 -19 z "},"Ə":{"ha":933,"x_min":35,"x_max":894,"o":"m 408 -19 q 256 9 325 -19 q 138 85 188 38 q 62 192 89 133 q 35 313 35 251 q 56 360 35 342 q 115 379 76 379 l 736 379 l 736 313 l 285 311 q 235 288 253 311 q 217 226 217 264 q 234 167 217 199 q 282 108 251 136 q 351 64 313 81 q 435 47 390 47 q 541 78 497 49 q 614 159 585 108 q 656 273 643 210 q 669 401 669 336 q 638 635 669 535 q 548 791 607 735 q 404 847 489 847 q 302 826 347 847 q 223 773 257 806 q 165 704 189 740 q 125 639 140 668 q 110 615 119 625 q 83 604 101 604 q 65 626 64 604 q 68 668 65 649 q 81 721 72 690 q 101 782 89 751 q 125 832 114 813 q 149 849 132 842 q 193 868 167 857 q 291 902 231 883 q 436 921 351 921 q 607 889 525 921 q 753 796 689 857 q 856 649 818 735 q 894 453 894 563 q 860 274 894 360 q 760 122 825 188 q 607 19 696 57 q 408 -19 518 -19 z "},"T":{"ha":965,"x_min":28,"x_max":971,"o":"m 286 -4 q 265 1 276 -4 q 254 15 254 6 q 264 35 254 28 q 288 44 274 42 q 365 74 340 56 q 389 136 389 92 l 389 710 q 386 790 389 764 q 378 824 383 815 q 367 836 374 833 q 334 844 354 843 q 301 844 314 844 l 271 844 q 187 823 226 844 q 124 769 147 801 q 103 742 117 760 q 76 712 90 725 q 47 699 61 699 q 32 706 36 699 q 28 724 28 714 q 36 758 28 740 q 75 849 63 811 q 92 935 88 886 q 104 963 94 956 q 126 971 114 971 q 147 953 136 971 q 171 924 158 935 q 217 907 185 913 q 271 901 250 901 l 793 901 q 852 908 828 901 q 889 922 876 915 q 924 950 911 935 q 956 965 938 965 q 967 959 964 965 q 971 942 971 953 q 970 928 971 936 q 968 913 969 919 q 954 862 961 886 q 943 815 947 838 q 939 769 939 793 l 939 742 q 934 706 939 719 q 915 692 929 692 q 894 705 903 692 q 876 747 886 718 q 831 821 861 797 q 740 844 801 844 l 668 844 q 630 834 644 844 q 608 792 615 824 q 601 697 601 761 l 601 138 q 624 77 601 96 q 701 44 647 58 q 725 35 715 40 q 735 17 735 29 q 726 1 735 7 q 706 -4 718 -4 q 637 -2 675 -4 q 560 1 599 0 q 494 3 522 3 q 428 1 465 3 q 355 -2 392 0 q 286 -4 318 -4 z "},"Ŧ":{"ha":965,"x_min":28,"x_max":971,"o":"m 253 456 q 230 467 239 456 q 221 496 221 479 q 231 524 221 513 q 260 535 242 535 l 736 535 q 758 528 749 535 q 765 510 767 521 q 747 473 764 490 q 710 456 731 456 l 253 456 m 286 -4 q 265 1 276 -4 q 254 15 254 6 q 264 35 254 28 q 288 44 274 42 q 365 74 340 56 q 389 136 389 92 l 389 710 q 386 790 389 764 q 378 824 383 815 q 367 836 374 833 q 334 844 354 843 q 301 844 314 844 l 271 844 q 187 823 226 844 q 124 769 147 801 q 103 742 117 760 q 76 712 90 725 q 47 699 61 699 q 32 706 36 699 q 28 724 28 714 q 36 758 28 740 q 75 849 63 811 q 92 935 88 886 q 104 963 94 956 q 126 971 114 971 q 147 953 136 971 q 171 924 158 935 q 217 907 185 913 q 271 901 250 901 l 793 901 q 852 908 828 901 q 889 922 876 915 q 924 950 911 935 q 956 965 938 965 q 967 959 964 965 q 971 942 971 953 q 970 928 971 936 q 968 913 969 919 q 954 862 961 886 q 943 815 947 838 q 939 769 939 793 l 939 742 q 934 706 939 719 q 915 692 929 692 q 894 705 903 692 q 876 747 886 718 q 831 821 861 797 q 740 844 801 844 l 668 844 q 630 834 644 844 q 608 792 615 824 q 601 697 601 761 l 601 138 q 624 77 601 96 q 701 44 647 58 q 725 35 715 40 q 735 17 735 29 q 726 1 735 7 q 706 -4 718 -4 q 637 -2 675 -4 q 560 1 599 0 q 494 3 522 3 q 428 1 465 3 q 355 -2 392 0 q 286 -4 318 -4 z "},"Ť":{"ha":965,"x_min":28,"x_max":971,"o":"m 286 -4 q 265 1 276 -4 q 254 15 254 6 q 264 35 254 28 q 288 44 274 42 q 365 74 340 56 q 389 136 389 92 l 389 710 q 386 790 389 764 q 378 824 383 815 q 367 836 374 833 q 334 844 354 843 q 301 844 314 844 l 271 844 q 187 823 226 844 q 124 769 147 801 q 103 742 117 760 q 76 712 90 725 q 47 699 61 699 q 32 706 36 699 q 28 724 28 714 q 36 758 28 740 q 75 849 63 811 q 92 935 88 886 q 104 963 94 956 q 126 971 114 971 q 147 953 136 971 q 171 924 158 935 q 217 907 185 913 q 271 901 250 901 l 793 901 q 852 908 828 901 q 889 922 876 915 q 924 950 911 935 q 956 965 938 965 q 967 959 964 965 q 971 942 971 953 q 970 928 971 936 q 968 913 969 919 q 954 862 961 886 q 943 815 947 838 q 939 769 939 793 l 939 742 q 934 706 939 719 q 915 692 929 692 q 894 705 903 692 q 876 747 886 718 q 831 821 861 797 q 740 844 801 844 l 668 844 q 630 834 644 844 q 608 792 615 824 q 601 697 601 761 l 601 138 q 624 77 601 96 q 701 44 647 58 q 725 35 715 40 q 735 17 735 29 q 726 1 735 7 q 706 -4 718 -4 q 637 -2 675 -4 q 560 1 599 0 q 494 3 522 3 q 428 1 465 3 q 355 -2 392 0 q 286 -4 318 -4 m 296 1176 q 327 1169 304 1176 q 379 1151 350 1163 q 435 1129 408 1140 q 479 1108 463 1118 q 496 1103 489 1103 q 513 1108 503 1103 q 558 1130 531 1118 q 614 1153 585 1142 q 666 1171 643 1164 q 699 1178 689 1178 q 721 1160 721 1178 q 711 1138 721 1147 l 567 1010 q 528 979 542 989 q 496 969 515 969 q 464 979 478 969 q 426 1010 450 989 l 281 1139 q 269 1160 269 1149 q 296 1176 269 1176 z "},"U":{"ha":1035,"x_min":15,"x_max":1022,"o":"m 518 -19 q 300 27 388 -19 q 169 157 213 74 q 125 351 125 240 l 125 747 q 107 818 125 786 q 54 858 89 850 q 15 889 15 869 q 26 904 15 899 q 51 910 36 910 q 143 906 96 910 q 232 903 190 903 q 326 906 271 903 q 419 908 381 908 q 447 903 436 908 q 457 888 457 899 q 436 865 457 872 q 392 847 415 858 q 356 813 371 839 q 340 740 340 788 l 340 376 q 371 221 340 282 q 452 131 401 160 q 565 101 503 101 q 753 176 692 101 q 815 406 815 251 q 816 487 815 442 q 817 580 817 532 q 815 671 817 628 q 806 768 814 733 q 783 822 799 803 q 742 854 768 842 q 706 869 726 863 q 686 888 686 875 q 697 903 686 899 q 728 907 708 907 q 803 906 778 907 q 861 904 829 904 q 905 906 888 904 q 941 908 922 907 q 986 910 960 910 q 1013 906 1003 910 q 1022 889 1022 901 q 985 860 1022 871 q 920 817 939 847 q 899 738 901 788 q 893 544 894 632 q 892 364 892 456 q 841 165 890 251 q 707 29 792 78 q 518 -19 622 -19 z "},"Ú":{"ha":1035,"x_min":15,"x_max":1022,"o":"m 518 -19 q 300 27 388 -19 q 169 157 213 74 q 125 351 125 240 l 125 747 q 107 818 125 786 q 54 858 89 850 q 15 889 15 869 q 26 904 15 899 q 51 910 36 910 q 143 906 96 910 q 232 903 190 903 q 326 906 271 903 q 419 908 381 908 q 447 903 436 908 q 457 888 457 899 q 436 865 457 872 q 392 847 415 858 q 356 813 371 839 q 340 740 340 788 l 340 376 q 371 221 340 282 q 452 131 401 160 q 565 101 503 101 q 753 176 692 101 q 815 406 815 251 q 816 487 815 442 q 817 580 817 532 q 815 671 817 628 q 806 768 814 733 q 783 822 799 803 q 742 854 768 842 q 706 869 726 863 q 686 888 686 875 q 697 903 686 899 q 728 907 708 907 q 803 906 778 907 q 861 904 829 904 q 905 906 888 904 q 941 908 922 907 q 986 910 960 910 q 1013 906 1003 910 q 1022 889 1022 901 q 985 860 1022 871 q 920 817 939 847 q 899 738 901 788 q 893 544 894 632 q 892 364 892 456 q 841 165 890 251 q 707 29 792 78 q 518 -19 622 -19 m 499 947 q 482 960 482 950 q 497 989 482 969 q 567 1078 532 1035 q 643 1163 603 1121 q 690 1179 661 1182 q 726 1169 701 1178 q 771 1150 750 1161 q 789 1126 792 1139 q 763 1096 786 1113 q 649 1026 710 1061 q 533 958 588 992 q 511 949 521 951 q 499 947 501 946 z "},"Ŭ":{"ha":1035,"x_min":15,"x_max":1022,"o":"m 518 -19 q 300 27 388 -19 q 169 157 213 74 q 125 351 125 240 l 125 747 q 107 818 125 786 q 54 858 89 850 q 15 889 15 869 q 26 904 15 899 q 51 910 36 910 q 143 906 96 910 q 232 903 190 903 q 326 906 271 903 q 419 908 381 908 q 447 903 436 908 q 457 888 457 899 q 436 865 457 872 q 392 847 415 858 q 356 813 371 839 q 340 740 340 788 l 340 376 q 371 221 340 282 q 452 131 401 160 q 565 101 503 101 q 753 176 692 101 q 815 406 815 251 q 816 487 815 442 q 817 580 817 532 q 815 671 817 628 q 806 768 814 733 q 783 822 799 803 q 742 854 768 842 q 706 869 726 863 q 686 888 686 875 q 697 903 686 899 q 728 907 708 907 q 803 906 778 907 q 861 904 829 904 q 905 906 888 904 q 941 908 922 907 q 986 910 960 910 q 1013 906 1003 910 q 1022 889 1022 901 q 985 860 1022 871 q 920 817 939 847 q 899 738 901 788 q 893 544 894 632 q 892 364 892 456 q 841 165 890 251 q 707 29 792 78 q 518 -19 622 -19 m 564 953 q 451 983 496 953 q 384 1053 406 1013 q 363 1125 363 1093 q 366 1152 363 1143 q 381 1161 369 1161 q 401 1153 393 1161 q 421 1132 410 1144 q 484 1082 451 1097 q 564 1067 517 1067 q 644 1082 611 1067 q 707 1132 676 1097 q 726 1153 718 1144 q 747 1161 735 1161 q 763 1152 760 1161 q 765 1125 765 1143 q 744 1053 765 1093 q 678 983 722 1013 q 564 953 633 953 z "},"Û":{"ha":1035,"x_min":15,"x_max":1022,"o":"m 518 -19 q 300 27 388 -19 q 169 157 213 74 q 125 351 125 240 l 125 747 q 107 818 125 786 q 54 858 89 850 q 15 889 15 869 q 26 904 15 899 q 51 910 36 910 q 143 906 96 910 q 232 903 190 903 q 326 906 271 903 q 419 908 381 908 q 447 903 436 908 q 457 888 457 899 q 436 865 457 872 q 392 847 415 858 q 356 813 371 839 q 340 740 340 788 l 340 376 q 371 221 340 282 q 452 131 401 160 q 565 101 503 101 q 753 176 692 101 q 815 406 815 251 q 816 487 815 442 q 817 580 817 532 q 815 671 817 628 q 806 768 814 733 q 783 822 799 803 q 742 854 768 842 q 706 869 726 863 q 686 888 686 875 q 697 903 686 899 q 728 907 708 907 q 803 906 778 907 q 861 904 829 904 q 905 906 888 904 q 941 908 922 907 q 986 910 960 910 q 1013 906 1003 910 q 1022 889 1022 901 q 985 860 1022 871 q 920 817 939 847 q 899 738 901 788 q 893 544 894 632 q 892 364 892 456 q 841 165 890 251 q 707 29 792 78 q 518 -19 622 -19 m 364 963 q 338 979 338 963 q 349 1000 338 992 l 494 1131 q 532 1162 518 1153 q 564 1171 546 1171 q 597 1162 583 1171 q 635 1131 611 1153 l 779 1001 q 789 979 789 993 q 767 961 789 961 q 734 968 757 961 q 682 986 711 975 q 626 1009 653 997 q 581 1031 599 1021 q 564 1036 571 1036 q 547 1031 557 1036 q 503 1010 531 1021 q 447 988 476 999 q 395 969 418 976 q 364 963 372 963 z "},"Ü":{"ha":1035,"x_min":15,"x_max":1022,"o":"m 518 -19 q 300 27 388 -19 q 169 157 213 74 q 125 351 125 240 l 125 747 q 107 818 125 786 q 54 858 89 850 q 15 889 15 869 q 26 904 15 899 q 51 910 36 910 q 143 906 96 910 q 232 903 190 903 q 326 906 271 903 q 419 908 381 908 q 447 903 436 908 q 457 888 457 899 q 436 865 457 872 q 392 847 415 858 q 356 813 371 839 q 340 740 340 788 l 340 376 q 371 221 340 282 q 452 131 401 160 q 565 101 503 101 q 753 176 692 101 q 815 406 815 251 q 816 487 815 442 q 817 580 817 532 q 815 671 817 628 q 806 768 814 733 q 783 822 799 803 q 742 854 768 842 q 706 869 726 863 q 686 888 686 875 q 697 903 686 899 q 728 907 708 907 q 803 906 778 907 q 861 904 829 904 q 905 906 888 904 q 941 908 922 907 q 986 910 960 910 q 1013 906 1003 910 q 1022 889 1022 901 q 985 860 1022 871 q 920 817 939 847 q 899 738 901 788 q 893 544 894 632 q 892 364 892 456 q 841 165 890 251 q 707 29 792 78 q 518 -19 622 -19 m 700 956 q 631 985 660 956 q 601 1054 601 1014 q 631 1126 601 1097 q 700 1154 660 1154 q 774 1126 744 1154 q 804 1054 804 1097 q 774 985 804 1014 q 700 956 744 956 m 426 956 q 356 985 386 956 q 326 1054 326 1014 q 356 1126 326 1097 q 426 1154 386 1154 q 499 1126 469 1154 q 529 1054 529 1097 q 499 985 529 1014 q 426 956 469 956 z "},"Ù":{"ha":1035,"x_min":15,"x_max":1022,"o":"m 603 947 q 590 949 599 946 q 568 958 581 951 q 453 1026 515 992 q 339 1096 392 1061 q 313 1126 315 1113 q 331 1150 310 1139 q 376 1169 351 1161 q 411 1179 400 1178 q 458 1163 439 1182 q 534 1078 499 1121 q 604 989 569 1035 q 619 960 619 969 q 603 947 619 950 m 518 -19 q 300 27 388 -19 q 169 157 213 74 q 125 351 125 240 l 125 747 q 107 818 125 786 q 54 858 89 850 q 15 889 15 869 q 26 904 15 899 q 51 910 36 910 q 143 906 96 910 q 232 903 190 903 q 326 906 271 903 q 419 908 381 908 q 447 903 436 908 q 457 888 457 899 q 436 865 457 872 q 392 847 415 858 q 356 813 371 839 q 340 740 340 788 l 340 376 q 371 221 340 282 q 452 131 401 160 q 565 101 503 101 q 753 176 692 101 q 815 406 815 251 q 816 487 815 442 q 817 580 817 532 q 815 671 817 628 q 806 768 814 733 q 783 822 799 803 q 742 854 768 842 q 706 869 726 863 q 686 888 686 875 q 697 903 686 899 q 728 907 708 907 q 803 906 778 907 q 861 904 829 904 q 905 906 888 904 q 941 908 922 907 q 986 910 960 910 q 1013 906 1003 910 q 1022 889 1022 901 q 985 860 1022 871 q 920 817 939 847 q 899 738 901 788 q 893 544 894 632 q 892 364 892 456 q 841 165 890 251 q 707 29 792 78 q 518 -19 622 -19 z "},"Ư":{"ha":1035,"x_min":15,"x_max":1118,"o":"m 519 -19 q 300 30 388 -19 q 169 167 213 79 q 125 372 125 256 l 125 747 q 107 818 125 786 q 54 858 89 850 q 15 889 15 869 q 26 904 15 899 q 51 910 36 910 q 143 906 96 910 q 232 903 190 903 q 326 906 271 903 q 419 908 381 908 q 447 903 436 908 q 457 888 457 899 q 436 865 457 872 q 392 847 415 858 q 356 813 371 839 q 340 740 340 788 l 340 383 q 371 228 340 292 q 453 133 401 165 q 568 101 504 101 q 703 137 651 101 q 780 242 754 172 q 806 413 806 311 q 806 492 806 449 q 806 581 806 535 q 804 669 806 628 q 796 767 803 732 q 774 822 789 803 q 733 854 760 842 q 699 869 718 863 q 679 888 679 875 q 690 903 679 899 q 719 907 701 907 q 774 906 753 907 q 813 905 794 906 q 856 904 832 904 l 939 904 q 988 922 974 904 q 1003 956 1003 939 q 991 975 1003 968 q 965 988 979 982 q 938 1004 950 994 q 925 1028 925 1014 q 946 1067 925 1047 q 995 1103 967 1088 q 1046 1118 1024 1118 q 1081 1099 1064 1118 q 1108 1054 1097 1081 q 1118 1003 1118 1028 q 1095 929 1118 960 q 1038 878 1072 899 q 968 844 1003 857 q 919 809 933 832 q 903 746 904 786 q 897 549 899 642 q 894 365 894 457 q 844 166 894 253 q 708 30 793 79 q 519 -19 624 -19 z "},"Ű":{"ha":1035,"x_min":15,"x_max":1022,"o":"m 518 -19 q 300 27 388 -19 q 169 157 213 74 q 125 351 125 240 l 125 747 q 107 818 125 786 q 54 858 89 850 q 15 889 15 869 q 26 904 15 899 q 51 910 36 910 q 143 906 96 910 q 232 903 190 903 q 326 906 271 903 q 419 908 381 908 q 447 903 436 908 q 457 888 457 899 q 436 865 457 872 q 392 847 415 858 q 356 813 371 839 q 340 740 340 788 l 340 376 q 371 221 340 282 q 452 131 401 160 q 565 101 503 101 q 753 176 692 101 q 815 406 815 251 q 816 487 815 442 q 817 580 817 532 q 815 671 817 628 q 806 768 814 733 q 783 822 799 803 q 742 854 768 842 q 706 869 726 863 q 686 888 686 875 q 697 903 686 899 q 728 907 708 907 q 803 906 778 907 q 861 904 829 904 q 905 906 888 904 q 941 908 922 907 q 986 910 960 910 q 1013 906 1003 910 q 1022 889 1022 901 q 985 860 1022 871 q 920 817 939 847 q 899 738 901 788 q 893 544 894 632 q 892 364 892 456 q 841 165 890 251 q 707 29 792 78 q 518 -19 622 -19 m 601 947 q 585 960 585 950 q 600 989 585 969 q 670 1078 635 1035 q 746 1163 706 1121 q 793 1179 764 1182 q 828 1169 804 1178 q 874 1150 853 1161 q 892 1126 894 1139 q 865 1096 889 1113 q 751 1026 813 1061 q 636 958 690 992 q 614 949 624 951 q 601 947 604 946 m 376 947 q 360 960 360 950 q 375 989 360 969 q 445 1078 410 1035 q 521 1163 481 1121 q 568 1179 539 1182 q 603 1169 579 1178 q 649 1150 628 1161 q 667 1126 669 1139 q 640 1096 664 1113 q 526 1026 588 1061 q 411 958 465 992 q 389 949 399 951 q 376 947 379 946 z "},"Ū":{"ha":1035,"x_min":15,"x_max":1022,"o":"m 518 -19 q 300 27 388 -19 q 169 157 213 74 q 125 351 125 240 l 125 747 q 107 818 125 786 q 54 858 89 850 q 15 889 15 869 q 26 904 15 899 q 51 910 36 910 q 143 906 96 910 q 232 903 190 903 q 326 906 271 903 q 419 908 381 908 q 447 903 436 908 q 457 888 457 899 q 436 865 457 872 q 392 847 415 858 q 356 813 371 839 q 340 740 340 788 l 340 376 q 371 221 340 282 q 452 131 401 160 q 565 101 503 101 q 753 176 692 101 q 815 406 815 251 q 816 487 815 442 q 817 580 817 532 q 815 671 817 628 q 806 768 814 733 q 783 822 799 803 q 742 854 768 842 q 706 869 726 863 q 686 888 686 875 q 697 903 686 899 q 728 907 708 907 q 803 906 778 907 q 861 904 829 904 q 905 906 888 904 q 941 908 922 907 q 986 910 960 910 q 1013 906 1003 910 q 1022 889 1022 901 q 985 860 1022 871 q 920 817 939 847 q 899 738 901 788 q 893 544 894 632 q 892 364 892 456 q 841 165 890 251 q 707 29 792 78 q 518 -19 622 -19 m 367 996 q 347 1004 354 996 q 340 1021 340 1013 q 347 1065 340 1044 q 367 1097 354 1085 q 392 1108 379 1108 l 765 1108 q 784 1101 778 1108 q 790 1083 790 1093 q 774 1023 790 1050 q 733 996 757 996 l 367 996 z "},"Ų":{"ha":1035,"x_min":15,"x_max":1022,"o":"m 518 -19 q 300 27 388 -19 q 169 157 213 74 q 125 351 125 240 l 125 747 q 107 818 125 786 q 54 858 89 850 q 15 889 15 869 q 26 904 15 899 q 51 910 36 910 q 143 906 96 910 q 232 903 190 903 q 326 906 271 903 q 419 908 381 908 q 447 903 436 908 q 457 888 457 899 q 436 865 457 872 q 392 847 415 858 q 356 813 371 839 q 340 740 340 788 l 340 376 q 371 221 340 282 q 452 131 401 160 q 565 101 503 101 q 753 176 692 101 q 815 406 815 251 q 816 487 815 442 q 817 580 817 532 q 815 671 817 628 q 806 768 814 733 q 783 822 799 803 q 742 854 768 842 q 706 869 726 863 q 686 888 686 875 q 697 903 686 899 q 728 907 708 907 q 803 906 778 907 q 861 904 829 904 q 905 906 888 904 q 941 908 922 907 q 986 910 960 910 q 1013 906 1003 910 q 1022 889 1022 901 q 985 860 1022 871 q 920 817 939 847 q 899 738 901 788 q 893 544 894 632 q 892 364 892 456 q 841 165 890 251 q 707 29 792 78 q 518 -19 622 -19 m 569 -399 q 450 -358 496 -399 q 404 -242 404 -317 q 420 -173 404 -206 q 461 -111 436 -140 q 517 -57 486 -82 q 581 -11 549 -32 q 640 25 614 10 l 697 25 q 649 -22 674 3 q 603 -75 624 -46 q 571 -135 583 -104 q 558 -204 558 -167 q 580 -258 558 -237 q 636 -279 601 -279 q 673 -273 657 -279 q 702 -258 689 -267 q 726 -237 715 -249 q 748 -232 735 -231 q 761 -256 761 -233 q 745 -306 761 -281 q 702 -352 729 -331 q 641 -386 675 -374 q 569 -399 607 -399 z "},"Ů":{"ha":1035,"x_min":15,"x_max":1022,"o":"m 518 -19 q 300 27 388 -19 q 169 157 213 74 q 125 351 125 240 l 125 747 q 107 818 125 786 q 54 858 89 850 q 15 889 15 869 q 26 904 15 899 q 51 910 36 910 q 143 906 96 910 q 232 903 190 903 q 326 906 271 903 q 419 908 381 908 q 447 903 436 908 q 457 888 457 899 q 436 865 457 872 q 392 847 415 858 q 356 813 371 839 q 340 740 340 788 l 340 376 q 371 221 340 282 q 452 131 401 160 q 565 101 503 101 q 753 176 692 101 q 815 406 815 251 q 816 487 815 442 q 817 580 817 532 q 815 671 817 628 q 806 768 814 733 q 783 822 799 803 q 742 854 768 842 q 706 869 726 863 q 686 888 686 875 q 697 903 686 899 q 728 907 708 907 q 803 906 778 907 q 861 904 829 904 q 905 906 888 904 q 941 908 922 907 q 986 910 960 910 q 1013 906 1003 910 q 1022 889 1022 901 q 985 860 1022 871 q 920 817 939 847 q 899 738 901 788 q 893 544 894 632 q 892 364 892 456 q 841 165 890 251 q 707 29 792 78 q 518 -19 622 -19 m 496 1071 q 517 1021 496 1042 q 569 1000 539 1000 q 614 1022 599 1000 q 629 1071 629 1044 q 609 1122 629 1101 q 558 1143 589 1143 q 513 1122 529 1143 q 496 1071 496 1100 m 571 1189 q 672 1160 626 1189 q 717 1081 717 1132 q 693 1015 717 1043 q 633 972 669 988 q 556 957 597 957 q 453 986 499 957 q 408 1068 408 1015 q 432 1131 408 1104 q 492 1174 456 1158 q 571 1189 529 1189 z "},"Ũ":{"ha":1035,"x_min":15,"x_max":1022,"o":"m 518 -19 q 300 27 388 -19 q 169 157 213 74 q 125 351 125 240 l 125 747 q 107 818 125 786 q 54 858 89 850 q 15 889 15 869 q 26 904 15 899 q 51 910 36 910 q 143 906 96 910 q 232 903 190 903 q 326 906 271 903 q 419 908 381 908 q 447 903 436 908 q 457 888 457 899 q 436 865 457 872 q 392 847 415 858 q 356 813 371 839 q 340 740 340 788 l 340 376 q 371 221 340 282 q 452 131 401 160 q 565 101 503 101 q 753 176 692 101 q 815 406 815 251 q 816 487 815 442 q 817 580 817 532 q 815 671 817 628 q 806 768 814 733 q 783 822 799 803 q 742 854 768 842 q 706 869 726 863 q 686 888 686 875 q 697 903 686 899 q 728 907 708 907 q 803 906 778 907 q 861 904 829 904 q 905 906 888 904 q 941 908 922 907 q 986 910 960 910 q 1013 906 1003 910 q 1022 889 1022 901 q 985 860 1022 871 q 920 817 939 847 q 899 738 901 788 q 893 544 894 632 q 892 364 892 456 q 841 165 890 251 q 707 29 792 78 q 518 -19 622 -19 m 372 960 q 356 969 365 960 q 346 982 346 978 q 358 1013 346 990 q 390 1060 371 1035 q 426 1103 408 1085 q 454 1122 444 1122 q 510 1120 481 1122 q 569 1117 540 1118 q 625 1114 596 1115 q 686 1113 654 1113 q 713 1121 701 1113 q 735 1139 725 1129 q 752 1160 746 1150 q 763 1169 758 1169 q 783 1160 771 1169 q 794 1143 794 1151 q 788 1129 794 1139 q 769 1104 782 1119 q 740 1060 754 1082 q 714 1021 726 1039 q 693 1005 706 1008 q 671 1001 681 1001 q 628 1003 660 1001 q 558 1008 596 1006 q 486 1014 519 1011 q 439 1017 453 1017 q 417 1008 428 1017 q 397 990 406 1000 q 382 969 389 979 q 372 960 375 960 z "},"V":{"ha":981,"x_min":0,"x_max":988,"o":"m 483 -24 q 456 -1 465 -24 q 431 54 446 19 q 407 119 417 89 l 133 764 q 97 823 119 797 q 33 858 74 849 q 10 869 19 864 q 0 889 0 875 q 9 903 0 899 q 29 908 18 908 q 94 907 57 908 q 168 904 131 906 q 232 903 206 903 q 300 905 260 903 q 381 908 340 907 q 449 908 421 908 q 474 903 461 908 q 486 889 486 899 q 474 870 486 878 q 446 860 461 863 q 386 839 406 850 q 367 804 367 828 q 369 784 367 794 q 374 765 372 774 l 553 263 q 559 253 556 254 q 567 264 563 251 l 729 690 q 740 806 757 761 q 663 858 724 850 q 633 869 647 861 q 619 889 619 876 q 633 903 619 899 q 660 907 646 907 q 708 906 689 907 q 747 905 728 906 q 793 904 765 904 q 869 908 833 904 q 946 911 906 911 q 974 907 961 911 q 988 889 988 903 q 976 872 988 876 q 950 861 964 867 q 878 819 906 850 q 826 726 851 788 l 615 221 q 576 131 593 169 q 544 60 558 92 q 515 -1 531 28 q 504 -19 511 -14 q 483 -24 497 -24 z "},"Ɣ":{"ha":981,"x_min":0,"x_max":988,"o":"m 489 -397 q 377 -345 415 -397 q 339 -214 339 -293 q 347 -146 339 -181 q 373 -66 356 -111 q 418 40 390 -21 q 424 65 425 57 q 418 86 424 74 l 138 768 q 99 825 125 801 q 33 858 74 849 q 10 869 19 864 q 0 889 0 875 q 9 903 0 899 q 29 908 18 908 q 94 907 57 908 q 168 904 131 906 q 232 903 206 903 q 300 905 260 903 q 381 908 340 907 q 449 908 421 908 q 474 903 461 908 q 486 889 486 899 q 474 870 486 878 q 446 860 461 863 q 387 838 407 850 q 367 803 367 826 q 369 786 367 797 q 374 765 371 775 l 543 271 q 549 258 547 263 q 556 254 551 254 q 568 271 561 254 l 732 696 q 747 749 744 728 q 749 796 749 771 q 733 828 749 815 q 697 849 718 840 q 657 858 675 857 q 628 869 643 861 q 614 889 614 876 q 627 903 614 899 q 654 907 640 907 q 724 906 697 907 q 793 904 751 904 q 869 908 833 904 q 946 911 906 911 q 974 907 961 911 q 988 889 988 903 q 976 872 988 876 q 950 861 964 867 q 879 820 906 850 q 839 758 853 790 l 613 204 q 599 147 597 169 q 611 93 600 124 l 664 -47 q 690 -125 683 -94 q 697 -193 697 -156 q 671 -303 697 -257 q 597 -373 644 -349 q 489 -397 550 -397 m 479 -308 q 519 -290 503 -308 q 535 -237 535 -271 q 518 -158 535 -211 q 482 -61 501 -106 q 476 -54 481 -54 q 468 -61 471 -54 q 433 -131 450 -92 q 415 -214 415 -169 q 435 -287 415 -265 q 479 -308 456 -308 z "},"W":{"ha":1417,"x_min":0,"x_max":1425,"o":"m 514 -24 q 497 -12 503 -24 q 485 13 492 -1 l 135 769 q 100 826 119 803 q 40 858 81 849 q 13 869 26 864 q 0 889 0 875 q 13 903 0 899 q 36 908 25 908 q 130 906 78 908 q 221 903 182 903 q 306 906 263 903 q 390 908 349 908 q 420 903 408 908 q 432 889 432 899 q 421 870 432 876 q 388 860 410 864 q 361 843 365 854 q 357 817 357 832 q 360 794 357 808 q 364 776 363 781 q 419 648 392 711 q 474 522 447 585 q 528 395 500 458 q 582 265 556 332 q 593 249 589 250 q 606 264 597 247 l 682 408 q 688 423 686 417 q 690 435 690 429 q 688 447 690 440 q 683 461 686 453 l 540 765 q 499 824 526 800 q 429 858 471 849 q 406 869 415 864 q 397 889 397 875 q 406 903 397 899 q 425 908 414 908 q 489 907 453 908 q 560 904 525 906 q 622 903 596 903 q 705 906 663 903 q 789 908 747 908 q 822 903 810 908 q 835 889 835 899 q 828 874 835 881 q 809 864 821 868 q 785 854 797 860 q 756 835 760 849 q 758 804 753 821 q 772 769 764 792 q 790 720 779 746 q 809 671 800 694 q 824 633 818 647 q 838 617 833 613 q 849 633 843 621 q 871 684 858 653 q 894 746 883 715 q 911 792 906 776 q 918 818 918 803 q 901 848 918 839 q 867 865 883 857 q 850 888 850 872 q 855 901 850 896 q 882 907 860 907 q 931 905 919 907 q 963 903 943 903 q 1004 907 985 904 q 1064 910 1024 910 q 1093 905 1081 910 q 1106 888 1106 900 q 1094 869 1106 874 q 1068 860 1082 864 q 1006 826 1025 849 q 969 772 986 804 q 939 713 956 746 q 906 644 922 679 q 875 579 890 610 q 869 545 868 563 q 878 510 871 528 l 985 264 q 994 255 989 251 q 1001 267 999 258 q 1106 513 1054 385 q 1197 749 1157 640 q 1213 797 1211 783 q 1214 817 1215 810 q 1203 843 1213 832 q 1175 858 1193 854 q 1147 869 1161 863 q 1132 889 1132 876 q 1144 903 1132 899 q 1172 907 1157 907 q 1231 905 1214 907 q 1269 904 1249 903 q 1315 908 1292 906 q 1378 911 1339 911 q 1411 907 1397 911 q 1425 889 1425 903 q 1410 872 1425 876 q 1382 861 1396 867 q 1333 839 1353 854 q 1301 805 1314 824 q 1279 764 1289 786 l 956 6 q 944 -12 951 -6 q 928 -19 938 -19 q 909 -13 917 -19 q 894 7 901 -7 q 857 88 879 42 q 806 197 835 133 q 738 346 776 260 q 728 354 733 356 q 718 344 722 353 q 661 233 690 289 q 603 122 632 178 q 544 10 574 65 q 533 -14 539 -4 q 514 -24 526 -24 z "},"Ẃ":{"ha":1417,"x_min":0,"x_max":1425,"o":"m 514 -24 q 497 -12 503 -24 q 485 13 492 -1 l 135 769 q 100 826 119 803 q 40 858 81 849 q 13 869 26 864 q 0 889 0 875 q 13 903 0 899 q 36 908 25 908 q 130 906 78 908 q 221 903 182 903 q 306 906 263 903 q 390 908 349 908 q 420 903 408 908 q 432 889 432 899 q 421 870 432 876 q 388 860 410 864 q 361 843 365 854 q 357 817 357 832 q 360 794 357 808 q 364 776 363 781 q 419 648 392 711 q 474 522 447 585 q 528 395 500 458 q 582 265 556 332 q 593 249 589 250 q 606 264 597 247 l 682 408 q 688 423 686 417 q 690 435 690 429 q 688 447 690 440 q 683 461 686 453 l 540 765 q 499 824 526 800 q 429 858 471 849 q 406 869 415 864 q 397 889 397 875 q 406 903 397 899 q 425 908 414 908 q 489 907 453 908 q 560 904 525 906 q 622 903 596 903 q 705 906 663 903 q 789 908 747 908 q 822 903 810 908 q 835 889 835 899 q 828 874 835 881 q 809 864 821 868 q 785 854 797 860 q 756 835 760 849 q 758 804 753 821 q 772 769 764 792 q 790 720 779 746 q 809 671 800 694 q 824 633 818 647 q 838 617 833 613 q 849 633 843 621 q 871 684 858 653 q 894 746 883 715 q 911 792 906 776 q 918 818 918 803 q 901 848 918 839 q 867 865 883 857 q 850 888 850 872 q 855 901 850 896 q 882 907 860 907 q 931 905 919 907 q 963 903 943 903 q 1004 907 985 904 q 1064 910 1024 910 q 1093 905 1081 910 q 1106 888 1106 900 q 1094 869 1106 874 q 1068 860 1082 864 q 1006 826 1025 849 q 969 772 986 804 q 939 713 956 746 q 906 644 922 679 q 875 579 890 610 q 869 545 868 563 q 878 510 871 528 l 985 264 q 994 255 989 251 q 1001 267 999 258 q 1106 513 1054 385 q 1197 749 1157 640 q 1213 797 1211 783 q 1214 817 1215 810 q 1203 843 1213 832 q 1175 858 1193 854 q 1147 869 1161 863 q 1132 889 1132 876 q 1144 903 1132 899 q 1172 907 1157 907 q 1231 905 1214 907 q 1269 904 1249 903 q 1315 908 1292 906 q 1378 911 1339 911 q 1411 907 1397 911 q 1425 889 1425 903 q 1410 872 1425 876 q 1382 861 1396 867 q 1333 839 1353 854 q 1301 805 1314 824 q 1279 764 1289 786 l 956 6 q 944 -12 951 -6 q 928 -19 938 -19 q 909 -13 917 -19 q 894 7 901 -7 q 857 88 879 42 q 806 197 835 133 q 738 346 776 260 q 728 354 733 356 q 718 344 722 353 q 661 233 690 289 q 603 122 632 178 q 544 10 574 65 q 533 -14 539 -4 q 514 -24 526 -24 m 743 947 q 726 960 726 950 q 742 989 726 969 q 812 1078 776 1035 q 888 1163 847 1121 q 935 1179 906 1182 q 970 1169 946 1178 q 1015 1150 994 1161 q 1033 1126 1036 1139 q 1007 1096 1031 1113 q 893 1026 954 1061 q 778 958 832 992 q 756 949 765 951 q 743 947 746 946 z "},"Ŵ":{"ha":1417,"x_min":0,"x_max":1425,"o":"m 514 -24 q 497 -12 503 -24 q 485 13 492 -1 l 135 769 q 100 826 119 803 q 40 858 81 849 q 13 869 26 864 q 0 889 0 875 q 13 903 0 899 q 36 908 25 908 q 130 906 78 908 q 221 903 182 903 q 306 906 263 903 q 390 908 349 908 q 420 903 408 908 q 432 889 432 899 q 421 870 432 876 q 388 860 410 864 q 361 843 365 854 q 357 817 357 832 q 360 794 357 808 q 364 776 363 781 q 419 648 392 711 q 474 522 447 585 q 528 395 500 458 q 582 265 556 332 q 593 249 589 250 q 606 264 597 247 l 682 408 q 688 423 686 417 q 690 435 690 429 q 688 447 690 440 q 683 461 686 453 l 540 765 q 499 824 526 800 q 429 858 471 849 q 406 869 415 864 q 397 889 397 875 q 406 903 397 899 q 425 908 414 908 q 489 907 453 908 q 560 904 525 906 q 622 903 596 903 q 705 906 663 903 q 789 908 747 908 q 822 903 810 908 q 835 889 835 899 q 828 874 835 881 q 809 864 821 868 q 785 854 797 860 q 756 835 760 849 q 758 804 753 821 q 772 769 764 792 q 790 720 779 746 q 809 671 800 694 q 824 633 818 647 q 838 617 833 613 q 849 633 843 621 q 871 684 858 653 q 894 746 883 715 q 911 792 906 776 q 918 818 918 803 q 901 848 918 839 q 867 865 883 857 q 850 888 850 872 q 855 901 850 896 q 882 907 860 907 q 931 905 919 907 q 963 903 943 903 q 1004 907 985 904 q 1064 910 1024 910 q 1093 905 1081 910 q 1106 888 1106 900 q 1094 869 1106 874 q 1068 860 1082 864 q 1006 826 1025 849 q 969 772 986 804 q 939 713 956 746 q 906 644 922 679 q 875 579 890 610 q 869 545 868 563 q 878 510 871 528 l 985 264 q 994 255 989 251 q 1001 267 999 258 q 1106 513 1054 385 q 1197 749 1157 640 q 1213 797 1211 783 q 1214 817 1215 810 q 1203 843 1213 832 q 1175 858 1193 854 q 1147 869 1161 863 q 1132 889 1132 876 q 1144 903 1132 899 q 1172 907 1157 907 q 1231 905 1214 907 q 1269 904 1249 903 q 1315 908 1292 906 q 1378 911 1339 911 q 1411 907 1397 911 q 1425 889 1425 903 q 1410 872 1425 876 q 1382 861 1396 867 q 1333 839 1353 854 q 1301 805 1314 824 q 1279 764 1289 786 l 956 6 q 944 -12 951 -6 q 928 -19 938 -19 q 909 -13 917 -19 q 894 7 901 -7 q 857 88 879 42 q 806 197 835 133 q 738 346 776 260 q 728 354 733 356 q 718 344 722 353 q 661 233 690 289 q 603 122 632 178 q 544 10 574 65 q 533 -14 539 -4 q 514 -24 526 -24 m 608 963 q 582 979 582 963 q 593 1000 582 992 l 739 1131 q 776 1162 763 1153 q 808 1171 790 1171 q 842 1162 828 1171 q 879 1131 856 1153 l 1024 1001 q 1033 979 1033 993 q 1011 961 1033 961 q 978 968 1001 961 q 926 986 956 975 q 870 1009 897 997 q 825 1031 843 1021 q 808 1036 815 1036 q 792 1031 801 1036 q 748 1010 775 1021 q 692 988 721 999 q 640 969 663 976 q 608 963 617 963 z "},"Ẅ":{"ha":1417,"x_min":0,"x_max":1425,"o":"m 514 -24 q 497 -12 503 -24 q 485 13 492 -1 l 135 769 q 100 826 119 803 q 40 858 81 849 q 13 869 26 864 q 0 889 0 875 q 13 903 0 899 q 36 908 25 908 q 130 906 78 908 q 221 903 182 903 q 306 906 263 903 q 390 908 349 908 q 420 903 408 908 q 432 889 432 899 q 421 870 432 876 q 388 860 410 864 q 361 843 365 854 q 357 817 357 832 q 360 794 357 808 q 364 776 363 781 q 419 648 392 711 q 474 522 447 585 q 528 395 500 458 q 582 265 556 332 q 593 249 589 250 q 606 264 597 247 l 682 408 q 688 423 686 417 q 690 435 690 429 q 688 447 690 440 q 683 461 686 453 l 540 765 q 499 824 526 800 q 429 858 471 849 q 406 869 415 864 q 397 889 397 875 q 406 903 397 899 q 425 908 414 908 q 489 907 453 908 q 560 904 525 906 q 622 903 596 903 q 705 906 663 903 q 789 908 747 908 q 822 903 810 908 q 835 889 835 899 q 828 874 835 881 q 809 864 821 868 q 785 854 797 860 q 756 835 760 849 q 758 804 753 821 q 772 769 764 792 q 790 720 779 746 q 809 671 800 694 q 824 633 818 647 q 838 617 833 613 q 849 633 843 621 q 871 684 858 653 q 894 746 883 715 q 911 792 906 776 q 918 818 918 803 q 901 848 918 839 q 867 865 883 857 q 850 888 850 872 q 855 901 850 896 q 882 907 860 907 q 931 905 919 907 q 963 903 943 903 q 1004 907 985 904 q 1064 910 1024 910 q 1093 905 1081 910 q 1106 888 1106 900 q 1094 869 1106 874 q 1068 860 1082 864 q 1006 826 1025 849 q 969 772 986 804 q 939 713 956 746 q 906 644 922 679 q 875 579 890 610 q 869 545 868 563 q 878 510 871 528 l 985 264 q 994 255 989 251 q 1001 267 999 258 q 1106 513 1054 385 q 1197 749 1157 640 q 1213 797 1211 783 q 1214 817 1215 810 q 1203 843 1213 832 q 1175 858 1193 854 q 1147 869 1161 863 q 1132 889 1132 876 q 1144 903 1132 899 q 1172 907 1157 907 q 1231 905 1214 907 q 1269 904 1249 903 q 1315 908 1292 906 q 1378 911 1339 911 q 1411 907 1397 911 q 1425 889 1425 903 q 1410 872 1425 876 q 1382 861 1396 867 q 1333 839 1353 854 q 1301 805 1314 824 q 1279 764 1289 786 l 956 6 q 944 -12 951 -6 q 928 -19 938 -19 q 909 -13 917 -19 q 894 7 901 -7 q 857 88 879 42 q 806 197 835 133 q 738 346 776 260 q 728 354 733 356 q 718 344 722 353 q 661 233 690 289 q 603 122 632 178 q 544 10 574 65 q 533 -14 539 -4 q 514 -24 526 -24 m 944 956 q 875 985 904 956 q 846 1054 846 1014 q 875 1126 846 1097 q 944 1154 904 1154 q 1019 1126 989 1154 q 1049 1054 1049 1097 q 1019 985 1049 1014 q 944 956 989 956 m 671 956 q 601 985 631 956 q 571 1054 571 1014 q 601 1126 571 1097 q 671 1154 631 1154 q 744 1126 714 1154 q 774 1054 774 1097 q 744 985 774 1014 q 671 956 714 956 z "},"Ẁ":{"ha":1417,"x_min":0,"x_max":1425,"o":"m 847 947 q 833 949 843 946 q 813 958 824 951 q 698 1026 760 992 q 582 1096 636 1061 q 557 1126 560 1113 q 575 1150 554 1139 q 620 1169 596 1161 q 656 1179 644 1178 q 701 1163 683 1182 q 778 1078 743 1121 q 849 989 814 1035 q 864 960 864 969 q 847 947 864 950 m 514 -24 q 497 -12 503 -24 q 485 13 492 -1 l 135 769 q 100 826 119 803 q 40 858 81 849 q 13 869 26 864 q 0 889 0 875 q 13 903 0 899 q 36 908 25 908 q 130 906 78 908 q 221 903 182 903 q 306 906 263 903 q 390 908 349 908 q 420 903 408 908 q 432 889 432 899 q 421 870 432 876 q 388 860 410 864 q 361 843 365 854 q 357 817 357 832 q 360 794 357 808 q 364 776 363 781 q 419 648 392 711 q 474 522 447 585 q 528 395 500 458 q 582 265 556 332 q 593 249 589 250 q 606 264 597 247 l 682 408 q 688 423 686 417 q 690 435 690 429 q 688 447 690 440 q 683 461 686 453 l 540 765 q 499 824 526 800 q 429 858 471 849 q 406 869 415 864 q 397 889 397 875 q 406 903 397 899 q 425 908 414 908 q 489 907 453 908 q 560 904 525 906 q 622 903 596 903 q 705 906 663 903 q 789 908 747 908 q 822 903 810 908 q 835 889 835 899 q 828 874 835 881 q 809 864 821 868 q 785 854 797 860 q 756 835 760 849 q 758 804 753 821 q 772 769 764 792 q 790 720 779 746 q 809 671 800 694 q 824 633 818 647 q 838 617 833 613 q 849 633 843 621 q 871 684 858 653 q 894 746 883 715 q 911 792 906 776 q 918 818 918 803 q 901 848 918 839 q 867 865 883 857 q 850 888 850 872 q 855 901 850 896 q 882 907 860 907 q 931 905 919 907 q 963 903 943 903 q 1004 907 985 904 q 1064 910 1024 910 q 1093 905 1081 910 q 1106 888 1106 900 q 1094 869 1106 874 q 1068 860 1082 864 q 1006 826 1025 849 q 969 772 986 804 q 939 713 956 746 q 906 644 922 679 q 875 579 890 610 q 869 545 868 563 q 878 510 871 528 l 985 264 q 994 255 989 251 q 1001 267 999 258 q 1106 513 1054 385 q 1197 749 1157 640 q 1213 797 1211 783 q 1214 817 1215 810 q 1203 843 1213 832 q 1175 858 1193 854 q 1147 869 1161 863 q 1132 889 1132 876 q 1144 903 1132 899 q 1172 907 1157 907 q 1231 905 1214 907 q 1269 904 1249 903 q 1315 908 1292 906 q 1378 911 1339 911 q 1411 907 1397 911 q 1425 889 1425 903 q 1410 872 1425 876 q 1382 861 1396 867 q 1333 839 1353 854 q 1301 805 1314 824 q 1279 764 1289 786 l 956 6 q 944 -12 951 -6 q 928 -19 938 -19 q 909 -13 917 -19 q 894 7 901 -7 q 857 88 879 42 q 806 197 835 133 q 738 346 776 260 q 728 354 733 356 q 718 344 722 353 q 661 233 690 289 q 603 122 632 178 q 544 10 574 65 q 533 -14 539 -4 q 514 -24 526 -24 z "},"X":{"ha":1042,"x_min":-7,"x_max":1035,"o":"m 35 -10 q 6 -5 18 -10 q -7 13 -7 0 q 5 31 -7 26 q 31 42 17 36 q 85 64 58 49 q 142 106 113 79 q 203 172 171 132 l 371 390 q 390 436 389 413 q 371 486 390 460 l 174 764 q 141 806 157 788 q 105 839 125 825 q 58 860 85 853 q 35 869 44 864 q 25 889 25 875 q 34 904 25 900 q 54 908 43 908 q 184 904 117 908 q 317 900 251 900 q 405 904 361 900 q 493 908 449 908 q 519 903 506 908 q 532 889 532 899 q 519 870 532 878 q 492 860 506 863 q 430 838 450 850 q 410 804 410 826 q 432 756 410 788 l 564 575 q 588 556 578 557 q 611 572 599 554 l 726 731 q 753 774 746 756 q 760 807 760 793 q 746 838 760 825 q 699 858 732 850 q 671 869 685 863 q 657 889 657 876 q 669 903 657 899 q 700 907 682 907 q 746 906 728 907 q 782 904 764 906 q 826 903 800 903 q 897 908 867 903 q 968 913 928 913 q 998 908 983 913 q 1013 890 1013 903 q 999 872 1013 876 q 971 863 986 867 q 906 827 940 853 q 844 769 871 801 l 654 535 q 638 500 639 515 q 653 461 636 485 l 885 132 q 933 78 907 101 q 985 47 958 56 q 1017 35 1000 44 q 1035 13 1035 26 q 1025 -2 1035 3 q 999 -7 1015 -7 q 901 -5 947 -7 q 813 0 856 -3 q 726 1 771 3 q 644 -1 685 1 q 561 -3 603 -3 q 536 3 549 -3 q 524 18 524 8 q 538 37 524 29 q 564 47 551 44 q 617 67 590 54 q 643 103 643 79 q 640 118 643 110 q 631 135 638 126 l 479 349 q 449 377 463 374 q 418 353 436 381 l 288 165 q 266 121 269 139 q 264 94 263 103 q 283 62 267 75 q 328 44 299 49 q 356 34 343 42 q 369 14 369 26 q 358 0 369 4 q 329 -4 346 -4 q 251 -3 289 -4 q 188 -1 213 -1 q 112 -6 146 -1 q 35 -10 78 -10 z "},"Y":{"ha":908,"x_min":0,"x_max":949,"o":"m 268 -8 q 239 -2 250 -8 q 228 14 228 4 q 240 33 228 26 q 269 43 253 40 q 343 81 322 54 q 364 153 364 108 l 364 344 q 351 425 364 393 q 321 485 338 457 l 142 761 q 115 800 131 781 q 80 835 100 819 q 33 858 60 851 q 10 869 19 864 q 0 889 0 875 q 9 903 0 899 q 29 908 18 908 q 141 904 88 908 q 254 900 194 900 q 341 904 300 900 q 428 908 382 908 q 453 903 440 908 q 465 889 465 899 q 453 870 465 878 q 425 860 440 863 q 371 840 388 850 q 354 807 354 829 q 369 758 354 786 l 513 513 q 538 488 525 488 q 549 494 543 488 q 563 513 556 500 q 626 626 596 569 q 685 746 656 682 q 697 775 692 760 q 701 803 701 790 q 677 843 701 829 q 626 858 653 857 q 598 869 613 861 q 583 889 583 876 q 597 903 583 899 q 624 907 610 907 q 696 904 664 907 q 765 901 728 901 q 835 906 801 901 q 907 911 868 911 q 935 907 922 911 q 949 889 949 903 q 935 871 949 876 q 906 860 921 865 q 835 825 864 850 q 785 765 806 800 q 741 695 763 729 q 699 628 719 661 q 658 561 679 594 q 617 492 638 528 q 597 451 606 472 q 583 408 588 431 q 578 357 578 386 l 578 153 q 599 80 578 101 q 674 43 619 58 q 702 33 690 39 q 714 15 714 28 q 703 -1 714 6 q 678 -7 693 -7 q 610 -4 647 -7 q 535 1 572 -1 q 471 3 499 3 q 407 1 442 3 q 336 -5 372 -1 q 268 -8 300 -8 z "},"Ý":{"ha":908,"x_min":0,"x_max":949,"o":"m 268 -8 q 239 -2 250 -8 q 228 14 228 4 q 240 33 228 26 q 269 43 253 40 q 343 81 322 54 q 364 153 364 108 l 364 344 q 351 425 364 393 q 321 485 338 457 l 142 761 q 115 800 131 781 q 80 835 100 819 q 33 858 60 851 q 10 869 19 864 q 0 889 0 875 q 9 903 0 899 q 29 908 18 908 q 141 904 88 908 q 254 900 194 900 q 341 904 300 900 q 428 908 382 908 q 453 903 440 908 q 465 889 465 899 q 453 870 465 878 q 425 860 440 863 q 371 840 388 850 q 354 807 354 829 q 369 758 354 786 l 513 513 q 538 488 525 488 q 549 494 543 488 q 563 513 556 500 q 626 626 596 569 q 685 746 656 682 q 697 775 692 760 q 701 803 701 790 q 677 843 701 829 q 626 858 653 857 q 598 869 613 861 q 583 889 583 876 q 597 903 583 899 q 624 907 610 907 q 696 904 664 907 q 765 901 728 901 q 835 906 801 901 q 907 911 868 911 q 935 907 922 911 q 949 889 949 903 q 935 871 949 876 q 906 860 921 865 q 835 825 864 850 q 785 765 806 800 q 741 695 763 729 q 699 628 719 661 q 658 561 679 594 q 617 492 638 528 q 597 451 606 472 q 583 408 588 431 q 578 357 578 386 l 578 153 q 599 80 578 101 q 674 43 619 58 q 702 33 690 39 q 714 15 714 28 q 703 -1 714 6 q 678 -7 693 -7 q 610 -4 647 -7 q 535 1 572 -1 q 471 3 499 3 q 407 1 442 3 q 336 -5 372 -1 q 268 -8 300 -8 m 451 947 q 435 960 435 950 q 450 989 435 969 q 520 1078 485 1035 q 596 1163 556 1121 q 643 1179 614 1182 q 678 1169 654 1178 q 724 1150 703 1161 q 742 1126 744 1139 q 715 1096 739 1113 q 601 1026 663 1061 q 486 958 540 992 q 464 949 474 951 q 451 947 454 946 z "},"Ŷ":{"ha":908,"x_min":0,"x_max":949,"o":"m 268 -8 q 239 -2 250 -8 q 228 14 228 4 q 240 33 228 26 q 269 43 253 40 q 343 81 322 54 q 364 153 364 108 l 364 344 q 351 425 364 393 q 321 485 338 457 l 142 761 q 115 800 131 781 q 80 835 100 819 q 33 858 60 851 q 10 869 19 864 q 0 889 0 875 q 9 903 0 899 q 29 908 18 908 q 141 904 88 908 q 254 900 194 900 q 341 904 300 900 q 428 908 382 908 q 453 903 440 908 q 465 889 465 899 q 453 870 465 878 q 425 860 440 863 q 371 840 388 850 q 354 807 354 829 q 369 758 354 786 l 513 513 q 538 488 525 488 q 549 494 543 488 q 563 513 556 500 q 626 626 596 569 q 685 746 656 682 q 697 775 692 760 q 701 803 701 790 q 677 843 701 829 q 626 858 653 857 q 598 869 613 861 q 583 889 583 876 q 597 903 583 899 q 624 907 610 907 q 696 904 664 907 q 765 901 728 901 q 835 906 801 901 q 907 911 868 911 q 935 907 922 911 q 949 889 949 903 q 935 871 949 876 q 906 860 921 865 q 835 825 864 850 q 785 765 806 800 q 741 695 763 729 q 699 628 719 661 q 658 561 679 594 q 617 492 638 528 q 597 451 606 472 q 583 408 588 431 q 578 357 578 386 l 578 153 q 599 80 578 101 q 674 43 619 58 q 702 33 690 39 q 714 15 714 28 q 703 -1 714 6 q 678 -7 693 -7 q 610 -4 647 -7 q 535 1 572 -1 q 471 3 499 3 q 407 1 442 3 q 336 -5 372 -1 q 268 -8 300 -8 m 317 963 q 290 979 290 963 q 301 1000 290 992 l 447 1131 q 485 1162 471 1153 q 517 1171 499 1171 q 550 1162 536 1171 q 588 1131 564 1153 l 732 1001 q 742 979 742 993 q 719 961 742 961 q 687 968 710 961 q 635 986 664 975 q 578 1009 606 997 q 533 1031 551 1021 q 517 1036 524 1036 q 500 1031 510 1036 q 456 1010 483 1021 q 400 988 429 999 q 348 969 371 976 q 317 963 325 963 z "},"Ÿ":{"ha":908,"x_min":0,"x_max":949,"o":"m 268 -8 q 239 -2 250 -8 q 228 14 228 4 q 240 33 228 26 q 269 43 253 40 q 343 81 322 54 q 364 153 364 108 l 364 344 q 351 425 364 393 q 321 485 338 457 l 142 761 q 115 800 131 781 q 80 835 100 819 q 33 858 60 851 q 10 869 19 864 q 0 889 0 875 q 9 903 0 899 q 29 908 18 908 q 141 904 88 908 q 254 900 194 900 q 341 904 300 900 q 428 908 382 908 q 453 903 440 908 q 465 889 465 899 q 453 870 465 878 q 425 860 440 863 q 371 840 388 850 q 354 807 354 829 q 369 758 354 786 l 513 513 q 538 488 525 488 q 549 494 543 488 q 563 513 556 500 q 626 626 596 569 q 685 746 656 682 q 697 775 692 760 q 701 803 701 790 q 677 843 701 829 q 626 858 653 857 q 598 869 613 861 q 583 889 583 876 q 597 903 583 899 q 624 907 610 907 q 696 904 664 907 q 765 901 728 901 q 835 906 801 901 q 907 911 868 911 q 935 907 922 911 q 949 889 949 903 q 935 871 949 876 q 906 860 921 865 q 835 825 864 850 q 785 765 806 800 q 741 695 763 729 q 699 628 719 661 q 658 561 679 594 q 617 492 638 528 q 597 451 606 472 q 583 408 588 431 q 578 357 578 386 l 578 153 q 599 80 578 101 q 674 43 619 58 q 702 33 690 39 q 714 15 714 28 q 703 -1 714 6 q 678 -7 693 -7 q 610 -4 647 -7 q 535 1 572 -1 q 471 3 499 3 q 407 1 442 3 q 336 -5 372 -1 q 268 -8 300 -8 m 653 956 q 583 985 613 956 q 554 1054 554 1014 q 583 1126 554 1097 q 653 1154 613 1154 q 727 1126 697 1154 q 757 1054 757 1097 q 727 985 757 1014 q 653 956 697 956 m 379 956 q 309 985 339 956 q 279 1054 279 1014 q 309 1126 279 1097 q 379 1154 339 1154 q 452 1126 422 1154 q 482 1054 482 1097 q 452 985 482 1014 q 379 956 422 956 z "},"Ỳ":{"ha":908,"x_min":0,"x_max":949,"o":"m 556 947 q 543 949 553 946 q 521 958 533 951 q 407 1026 468 992 q 292 1096 346 1061 q 265 1126 268 1113 q 283 1150 263 1139 q 328 1169 304 1161 q 364 1179 353 1178 q 411 1163 393 1182 q 488 1078 453 1121 q 557 989 522 1035 q 572 960 572 969 q 556 947 572 950 m 268 -8 q 239 -2 250 -8 q 228 14 228 4 q 240 33 228 26 q 269 43 253 40 q 343 81 322 54 q 364 153 364 108 l 364 344 q 351 425 364 393 q 321 485 338 457 l 142 761 q 115 800 131 781 q 80 835 100 819 q 33 858 60 851 q 10 869 19 864 q 0 889 0 875 q 9 903 0 899 q 29 908 18 908 q 141 904 88 908 q 254 900 194 900 q 341 904 300 900 q 428 908 382 908 q 453 903 440 908 q 465 889 465 899 q 453 870 465 878 q 425 860 440 863 q 371 840 388 850 q 354 807 354 829 q 369 758 354 786 l 513 513 q 538 488 525 488 q 549 494 543 488 q 563 513 556 500 q 626 626 596 569 q 685 746 656 682 q 697 775 692 760 q 701 803 701 790 q 677 843 701 829 q 626 858 653 857 q 598 869 613 861 q 583 889 583 876 q 597 903 583 899 q 624 907 610 907 q 696 904 664 907 q 765 901 728 901 q 835 906 801 901 q 907 911 868 911 q 935 907 922 911 q 949 889 949 903 q 935 871 949 876 q 906 860 921 865 q 835 825 864 850 q 785 765 806 800 q 741 695 763 729 q 699 628 719 661 q 658 561 679 594 q 617 492 638 528 q 597 451 606 472 q 583 408 588 431 q 578 357 578 386 l 578 153 q 599 80 578 101 q 674 43 619 58 q 702 33 690 39 q 714 15 714 28 q 703 -1 714 6 q 678 -7 693 -7 q 610 -4 647 -7 q 535 1 572 -1 q 471 3 499 3 q 407 1 442 3 q 336 -5 372 -1 q 268 -8 300 -8 z "},"Z":{"ha":828,"x_min":28,"x_max":811,"o":"m 724 -6 q 671 -5 708 -6 q 583 -3 633 -4 q 473 -1 532 -3 q 358 0 414 0 q 258 -2 308 -1 q 157 -4 207 -3 l 50 -7 q 33 11 38 -7 q 31 33 28 29 q 56 75 42 53 q 84 121 69 97 q 111 165 99 144 q 211 326 161 246 q 311 484 261 406 q 411 642 361 563 q 511 801 461 721 q 516 814 514 808 q 518 825 518 819 q 514 835 518 831 q 496 839 510 839 q 444 839 472 839 q 389 839 417 839 q 338 839 361 839 q 290 839 314 839 q 188 808 233 839 q 111 721 143 776 q 89 690 103 706 q 54 674 75 674 q 39 681 43 674 q 35 697 35 688 q 38 716 35 706 q 44 735 40 726 q 67 794 60 768 q 78 849 74 821 q 85 915 82 878 q 94 944 88 936 q 115 953 100 953 q 147 938 126 953 q 186 915 167 922 q 240 903 211 906 q 306 901 268 901 q 386 901 344 901 q 469 901 428 901 q 536 903 494 901 q 626 905 578 904 q 717 907 674 906 q 785 908 760 908 q 803 894 794 908 q 807 875 811 881 l 713 725 q 619 574 665 651 q 526 420 572 497 q 435 268 481 343 q 346 124 390 193 q 332 88 332 101 q 339 75 332 79 q 363 69 346 71 q 413 67 381 68 q 467 65 446 65 q 569 70 525 65 q 649 89 613 75 q 761 224 718 115 q 773 238 767 233 q 789 242 779 242 q 807 222 807 242 q 802 181 807 206 q 790 128 797 157 q 776 72 783 100 q 761 21 768 44 q 747 1 757 8 q 724 -6 738 -6 z "},"Ź":{"ha":828,"x_min":28,"x_max":811,"o":"m 724 -6 q 671 -5 708 -6 q 583 -3 633 -4 q 473 -1 532 -3 q 358 0 414 0 q 258 -2 308 -1 q 157 -4 207 -3 l 50 -7 q 33 11 38 -7 q 31 33 28 29 q 56 75 42 53 q 84 121 69 97 q 111 165 99 144 q 211 326 161 246 q 311 484 261 406 q 411 642 361 563 q 511 801 461 721 q 516 814 514 808 q 518 825 518 819 q 514 835 518 831 q 496 839 510 839 q 444 839 472 839 q 389 839 417 839 q 338 839 361 839 q 290 839 314 839 q 188 808 233 839 q 111 721 143 776 q 89 690 103 706 q 54 674 75 674 q 39 681 43 674 q 35 697 35 688 q 38 716 35 706 q 44 735 40 726 q 67 794 60 768 q 78 849 74 821 q 85 915 82 878 q 94 944 88 936 q 115 953 100 953 q 147 938 126 953 q 186 915 167 922 q 240 903 211 906 q 306 901 268 901 q 386 901 344 901 q 469 901 428 901 q 536 903 494 901 q 626 905 578 904 q 717 907 674 906 q 785 908 760 908 q 803 894 794 908 q 807 875 811 881 l 713 725 q 619 574 665 651 q 526 420 572 497 q 435 268 481 343 q 346 124 390 193 q 332 88 332 101 q 339 75 332 79 q 363 69 346 71 q 413 67 381 68 q 467 65 446 65 q 569 70 525 65 q 649 89 613 75 q 761 224 718 115 q 773 238 767 233 q 789 242 779 242 q 807 222 807 242 q 802 181 807 206 q 790 128 797 157 q 776 72 783 100 q 761 21 768 44 q 747 1 757 8 q 724 -6 738 -6 m 382 947 q 365 960 365 950 q 381 989 365 969 q 451 1078 415 1035 q 526 1163 486 1121 q 574 1179 544 1182 q 609 1169 585 1178 q 654 1150 633 1161 q 672 1126 675 1139 q 646 1096 669 1113 q 532 1026 593 1061 q 417 958 471 992 q 394 949 404 951 q 382 947 385 946 z "},"Ž":{"ha":828,"x_min":28,"x_max":811,"o":"m 724 -6 q 671 -5 708 -6 q 583 -3 633 -4 q 473 -1 532 -3 q 358 0 414 0 q 258 -2 308 -1 q 157 -4 207 -3 l 50 -7 q 33 11 38 -7 q 31 33 28 29 q 56 75 42 53 q 84 121 69 97 q 111 165 99 144 q 211 326 161 246 q 311 484 261 406 q 411 642 361 563 q 511 801 461 721 q 516 814 514 808 q 518 825 518 819 q 514 835 518 831 q 496 839 510 839 q 444 839 472 839 q 389 839 417 839 q 338 839 361 839 q 290 839 314 839 q 188 808 233 839 q 111 721 143 776 q 89 690 103 706 q 54 674 75 674 q 39 681 43 674 q 35 697 35 688 q 38 716 35 706 q 44 735 40 726 q 67 794 60 768 q 78 849 74 821 q 85 915 82 878 q 94 944 88 936 q 115 953 100 953 q 147 938 126 953 q 186 915 167 922 q 240 903 211 906 q 306 901 268 901 q 386 901 344 901 q 469 901 428 901 q 536 903 494 901 q 626 905 578 904 q 717 907 674 906 q 785 908 760 908 q 803 894 794 908 q 807 875 811 881 l 713 725 q 619 574 665 651 q 526 420 572 497 q 435 268 481 343 q 346 124 390 193 q 332 88 332 101 q 339 75 332 79 q 363 69 346 71 q 413 67 381 68 q 467 65 446 65 q 569 70 525 65 q 649 89 613 75 q 761 224 718 115 q 773 238 767 233 q 789 242 779 242 q 807 222 807 242 q 802 181 807 206 q 790 128 797 157 q 776 72 783 100 q 761 21 768 44 q 747 1 757 8 q 724 -6 738 -6 m 249 1176 q 280 1169 257 1176 q 332 1151 303 1163 q 388 1129 361 1140 q 432 1108 415 1118 q 449 1103 442 1103 q 465 1108 456 1103 q 510 1130 483 1118 q 567 1153 538 1142 q 619 1171 596 1164 q 651 1178 642 1178 q 674 1160 674 1178 q 664 1138 674 1147 l 519 1010 q 481 979 494 989 q 449 969 468 969 q 417 979 431 969 q 379 1010 403 989 l 233 1139 q 222 1160 222 1149 q 249 1176 222 1176 z "},"Ż":{"ha":828,"x_min":28,"x_max":811,"o":"m 724 -6 q 671 -5 708 -6 q 583 -3 633 -4 q 473 -1 532 -3 q 358 0 414 0 q 258 -2 308 -1 q 157 -4 207 -3 l 50 -7 q 33 11 38 -7 q 31 33 28 29 q 56 75 42 53 q 84 121 69 97 q 111 165 99 144 q 211 326 161 246 q 311 484 261 406 q 411 642 361 563 q 511 801 461 721 q 516 814 514 808 q 518 825 518 819 q 514 835 518 831 q 496 839 510 839 q 444 839 472 839 q 389 839 417 839 q 338 839 361 839 q 290 839 314 839 q 188 808 233 839 q 111 721 143 776 q 89 690 103 706 q 54 674 75 674 q 39 681 43 674 q 35 697 35 688 q 38 716 35 706 q 44 735 40 726 q 67 794 60 768 q 78 849 74 821 q 85 915 82 878 q 94 944 88 936 q 115 953 100 953 q 147 938 126 953 q 186 915 167 922 q 240 903 211 906 q 306 901 268 901 q 386 901 344 901 q 469 901 428 901 q 536 903 494 901 q 626 905 578 904 q 717 907 674 906 q 785 908 760 908 q 803 894 794 908 q 807 875 811 881 l 713 725 q 619 574 665 651 q 526 420 572 497 q 435 268 481 343 q 346 124 390 193 q 332 88 332 101 q 339 75 332 79 q 363 69 346 71 q 413 67 381 68 q 467 65 446 65 q 569 70 525 65 q 649 89 613 75 q 761 224 718 115 q 773 238 767 233 q 789 242 779 242 q 807 222 807 242 q 802 181 807 206 q 790 128 797 157 q 776 72 783 100 q 761 21 768 44 q 747 1 757 8 q 724 -6 738 -6 m 447 963 q 366 993 400 963 q 332 1067 332 1024 q 366 1143 332 1113 q 447 1174 400 1174 q 533 1143 497 1174 q 568 1067 568 1113 q 533 993 568 1024 q 447 963 497 963 z "},"Ģ":{"ha":999,"x_min":40,"x_max":964,"o":"m 526 -19 q 338 13 426 -19 q 183 107 250 46 q 78 251 115 168 q 40 436 40 335 q 77 619 40 532 q 183 775 114 707 q 349 883 251 843 q 564 922 446 922 q 631 918 593 922 q 710 907 669 914 q 785 891 750 900 q 843 872 821 882 q 863 860 856 868 q 871 839 869 853 q 883 747 878 790 q 888 675 888 704 q 881 654 888 661 q 864 647 875 647 q 840 656 847 647 q 826 676 832 664 q 798 731 814 703 q 760 783 782 760 q 720 815 743 800 q 664 840 697 831 q 583 850 631 850 q 450 819 508 850 q 352 735 392 789 q 292 615 313 682 q 272 472 272 547 q 290 302 272 379 q 343 169 308 225 q 429 84 378 114 q 549 54 481 54 q 608 67 585 54 q 644 89 631 79 q 667 124 658 100 q 676 179 676 149 q 678 214 678 192 q 678 258 678 236 q 679 293 679 281 q 673 322 679 308 q 649 342 667 335 q 620 356 636 350 q 588 365 604 361 q 560 371 572 368 q 538 381 549 372 q 526 401 526 389 q 536 417 526 411 q 556 422 546 422 q 626 421 588 422 q 701 417 664 419 q 768 415 739 415 q 853 418 808 415 q 940 421 899 421 q 957 416 950 421 q 964 400 964 411 q 956 380 964 386 q 936 371 949 374 q 883 346 897 361 q 864 303 869 331 q 856 249 858 272 q 854 199 854 226 l 854 154 q 860 140 854 147 q 872 126 865 133 q 882 113 878 119 q 886 97 886 106 q 881 80 886 89 q 860 68 875 71 q 821 53 849 67 q 751 23 793 40 q 653 -7 710 6 q 526 -19 596 -19 m 490 -403 q 460 -385 460 -403 q 481 -362 460 -372 q 532 -326 510 -350 q 554 -269 554 -303 q 539 -225 554 -239 q 493 -204 524 -211 q 454 -181 468 -197 q 440 -135 440 -165 q 463 -89 440 -108 q 525 -69 485 -69 q 623 -110 586 -69 q 660 -211 660 -150 q 640 -294 660 -258 q 590 -353 619 -329 q 533 -390 561 -378 q 490 -403 506 -403 z "},"Ķ":{"ha":1060,"x_min":25,"x_max":1072,"o":"m 64 -8 q 38 -1 50 -8 q 25 15 25 6 q 61 44 25 38 q 131 74 114 56 q 147 136 147 92 l 147 765 q 128 829 147 811 q 54 860 110 847 q 25 889 25 867 q 34 904 25 899 q 53 910 43 910 q 120 908 85 910 q 190 905 156 907 q 251 903 224 903 q 314 904 279 903 q 385 907 349 906 q 453 908 422 908 q 471 903 464 908 q 478 889 478 899 q 470 869 478 875 q 447 860 463 864 q 376 825 392 844 q 360 764 360 806 l 360 482 q 364 465 360 471 q 374 460 368 460 q 389 466 381 460 q 408 482 397 472 l 675 769 q 694 792 686 782 q 701 813 701 803 q 644 854 701 842 q 622 865 629 858 q 614 885 614 872 q 623 899 614 894 q 642 904 632 904 l 738 904 q 829 905 785 904 q 919 907 874 906 q 1013 908 965 908 q 1038 903 1026 908 q 1049 889 1049 899 q 1035 869 1049 875 q 1007 860 1021 863 q 885 828 938 850 q 793 774 833 806 q 713 705 751 742 q 635 628 674 668 q 553 549 596 589 q 554 507 533 531 l 886 135 q 924 97 906 114 q 968 68 943 81 q 1029 44 993 56 q 1058 35 1044 40 q 1072 17 1072 29 q 1058 0 1072 7 q 1019 -7 1044 -7 q 937 -4 978 -7 q 856 1 896 -1 q 771 3 815 3 q 685 -1 725 3 q 597 -4 646 -4 q 578 1 588 -4 q 569 17 569 7 q 597 46 569 39 q 656 83 653 57 q 649 105 656 94 q 632 129 643 115 l 406 392 q 388 408 396 403 q 372 414 379 414 q 363 408 367 414 q 360 390 360 401 q 360 267 360 328 q 364 139 361 206 q 371 96 365 114 q 392 67 376 78 q 444 44 408 56 q 471 35 460 40 q 482 17 482 29 q 469 1 482 7 q 442 -6 457 -6 q 367 -3 399 -6 q 308 3 335 0 q 256 6 282 6 q 200 2 226 6 q 142 -5 174 -1 q 64 -8 111 -8 m 463 -403 q 432 -385 432 -403 q 453 -362 432 -372 q 504 -326 482 -350 q 526 -269 526 -303 q 511 -225 526 -239 q 465 -204 496 -211 q 426 -181 440 -197 q 413 -135 413 -165 q 435 -89 413 -108 q 497 -69 457 -69 q 595 -110 558 -69 q 632 -211 632 -150 q 612 -294 632 -258 q 563 -353 592 -329 q 506 -390 533 -378 q 463 -403 478 -403 z "},"Ļ":{"ha":814,"x_min":26,"x_max":806,"o":"m 58 -7 q 37 -1 44 -7 q 29 14 29 6 q 38 31 29 24 q 58 43 46 39 q 126 72 106 56 q 146 132 146 89 l 146 768 q 139 815 146 799 q 113 842 132 832 q 56 860 93 851 q 26 889 26 867 q 35 904 26 899 q 54 910 43 910 q 122 908 86 910 q 191 905 157 907 q 253 903 225 903 q 318 904 282 903 q 392 907 354 906 q 461 908 431 908 q 480 903 474 908 q 486 889 486 899 q 478 869 486 875 q 457 860 471 864 q 380 827 400 844 q 360 768 360 810 l 360 143 q 377 88 360 104 q 435 71 394 71 l 576 71 q 631 81 607 71 q 675 108 656 92 q 717 159 699 131 q 749 218 735 188 q 770 254 763 246 q 786 263 778 263 q 801 253 797 263 q 806 235 806 243 q 803 222 806 232 q 800 207 800 213 q 782 137 790 167 q 769 80 774 107 q 760 19 764 53 q 753 1 758 10 q 738 -7 749 -7 q 653 -6 708 -7 q 528 -3 597 -4 q 388 -1 460 -3 q 256 0 317 0 q 189 -1 226 0 q 116 -5 151 -3 q 58 -7 81 -7 m 360 -403 q 329 -385 329 -403 q 350 -362 329 -372 q 401 -326 379 -350 q 424 -269 424 -303 q 408 -225 424 -239 q 363 -204 393 -211 q 324 -181 338 -197 q 310 -135 310 -165 q 332 -89 310 -108 q 394 -69 354 -69 q 492 -110 456 -69 q 529 -211 529 -150 q 509 -294 529 -258 q 460 -353 489 -329 q 403 -390 431 -378 q 360 -403 375 -403 z "},"Ņ":{"ha":1099,"x_min":14,"x_max":1110,"o":"m 944 -26 q 886 -5 926 -26 q 803 71 846 17 q 733 146 769 106 q 657 229 697 186 q 576 317 617 272 q 494 405 535 361 q 414 492 454 449 q 338 575 374 535 q 268 650 301 615 q 259 660 265 656 q 250 665 253 665 q 242 656 244 665 q 240 639 240 646 q 240 489 239 575 q 244 315 242 403 q 246 154 246 226 q 274 84 246 110 q 356 44 301 58 q 383 35 371 42 q 394 17 394 29 q 383 1 394 7 q 360 -4 372 -4 q 299 -2 322 -4 q 255 1 275 0 q 206 1 235 1 q 148 0 175 1 q 102 -3 121 -1 q 76 -4 83 -4 q 55 1 67 -4 q 43 15 43 6 q 54 33 43 28 q 79 44 65 39 q 130 86 113 57 q 150 158 147 115 q 162 294 156 210 q 174 485 168 379 q 179 706 179 592 q 142 810 179 778 q 53 861 106 842 q 28 872 42 864 q 14 892 14 879 q 25 909 14 904 q 50 914 36 914 q 106 913 75 914 q 172 910 138 911 q 244 908 207 910 q 319 907 282 907 q 337 903 331 907 q 349 892 343 899 q 415 817 379 857 q 489 733 450 776 q 568 644 528 689 q 648 553 608 599 q 726 464 688 507 q 800 381 764 421 q 867 306 836 340 q 877 294 871 300 q 889 288 883 288 q 900 308 900 288 q 901 408 900 351 q 901 529 901 465 q 901 656 901 593 q 897 771 900 718 q 869 827 896 808 q 794 858 842 846 q 768 868 779 861 q 757 888 757 875 q 768 902 757 897 q 792 907 779 907 q 846 906 824 907 q 886 906 868 906 q 926 906 904 906 q 974 906 954 906 q 1016 908 993 907 q 1075 910 1039 910 q 1101 904 1092 910 q 1110 889 1110 899 q 1074 861 1110 868 q 1004 833 1025 851 q 982 775 983 815 q 981 668 982 725 q 978 551 981 611 q 973 433 975 492 q 969 319 971 374 q 968 219 968 265 q 972 149 968 188 q 980 80 976 111 q 983 36 983 49 q 973 -12 983 1 q 944 -26 963 -26 m 500 -403 q 469 -385 469 -403 q 490 -362 469 -372 q 542 -326 519 -350 q 564 -269 564 -303 q 549 -225 564 -239 q 503 -204 533 -211 q 464 -181 478 -197 q 450 -135 450 -165 q 472 -89 450 -108 q 535 -69 494 -69 q 633 -110 596 -69 q 669 -211 669 -150 q 649 -294 669 -258 q 600 -353 629 -329 q 543 -390 571 -378 q 500 -403 515 -403 z "},"Ŗ":{"ha":1056,"x_min":24,"x_max":1063,"o":"m 896 -29 q 776 -12 825 -29 q 694 34 728 6 q 633 99 660 63 q 574 179 603 139 q 518 267 546 219 q 460 375 490 314 q 422 418 446 406 q 397 429 410 426 q 375 432 385 432 q 364 424 368 432 q 360 404 360 417 l 360 139 q 383 76 360 96 q 465 44 407 57 q 488 35 481 42 q 496 17 496 29 q 489 1 496 7 q 469 -4 482 -4 q 399 -2 439 -4 q 321 1 360 0 q 254 3 282 3 q 190 1 225 3 q 119 -2 156 0 q 51 -4 82 -4 q 32 1 40 -4 q 24 15 24 6 q 53 44 24 38 q 126 73 106 56 q 146 136 146 90 l 146 760 q 140 813 146 793 q 115 842 133 832 q 63 860 97 853 q 38 872 44 864 q 31 889 31 879 q 39 903 31 897 q 61 910 47 910 q 134 907 106 910 q 188 902 163 904 q 249 900 214 900 q 305 903 281 900 q 360 910 329 907 q 440 913 392 913 q 690 857 603 913 q 778 689 778 801 q 751 584 778 626 q 683 515 724 542 q 600 474 642 488 q 595 467 594 472 q 599 457 596 463 q 680 338 640 396 q 761 231 719 281 q 847 140 803 182 q 944 88 894 96 q 1042 81 993 81 q 1063 56 1063 81 q 1041 6 1063 25 q 982 -21 1019 -12 q 896 -29 944 -29 m 413 476 q 500 500 465 476 q 553 565 535 524 q 571 658 571 606 q 554 765 571 722 q 504 830 538 808 q 418 851 471 851 q 374 827 388 851 q 361 724 361 803 q 360 643 360 692 q 360 528 360 594 q 374 488 360 500 q 413 476 389 476 m 461 -403 q 431 -385 431 -403 q 451 -362 431 -372 q 503 -326 481 -350 q 525 -269 525 -303 q 510 -225 525 -239 q 464 -204 494 -211 q 425 -181 439 -197 q 411 -135 411 -165 q 433 -89 411 -108 q 496 -69 456 -69 q 594 -110 557 -69 q 631 -211 631 -150 q 610 -294 631 -258 q 561 -353 590 -329 q 504 -390 532 -378 q 461 -403 476 -403 z "},"Ţ":{"ha":965,"x_min":28,"x_max":971,"o":"m 286 -4 q 265 1 276 -4 q 254 15 254 6 q 264 35 254 28 q 288 44 274 42 q 365 74 340 56 q 389 136 389 92 l 389 710 q 386 790 389 764 q 378 824 383 815 q 367 836 374 833 q 334 844 354 843 q 301 844 314 844 l 271 844 q 187 823 226 844 q 124 769 147 801 q 103 742 117 760 q 76 712 90 725 q 47 699 61 699 q 32 706 36 699 q 28 724 28 714 q 36 758 28 740 q 75 849 63 811 q 92 935 88 886 q 104 963 94 956 q 126 971 114 971 q 147 953 136 971 q 171 924 158 935 q 217 907 185 913 q 271 901 250 901 l 793 901 q 852 908 828 901 q 889 922 876 915 q 924 950 911 935 q 956 965 938 965 q 967 959 964 965 q 971 942 971 953 q 970 928 971 936 q 968 913 969 919 q 954 862 961 886 q 943 815 947 838 q 939 769 939 793 l 939 742 q 934 706 939 719 q 915 692 929 692 q 894 705 903 692 q 876 747 886 718 q 831 821 861 797 q 740 844 801 844 l 668 844 q 630 834 644 844 q 608 792 615 824 q 601 697 601 761 l 601 138 q 624 77 601 96 q 701 44 647 58 q 725 35 715 40 q 735 17 735 29 q 726 1 735 7 q 706 -4 718 -4 q 637 -2 675 -4 q 560 1 599 0 q 494 3 522 3 q 428 1 465 3 q 355 -2 392 0 q 286 -4 318 -4 m 397 -382 q 345 -372 364 -382 q 326 -322 326 -361 q 335 -289 326 -299 q 354 -279 344 -279 q 378 -288 363 -279 q 439 -297 394 -297 q 480 -286 460 -297 q 500 -244 500 -275 q 484 -203 500 -218 q 432 -189 468 -189 q 415 -192 421 -189 q 399 -196 408 -196 q 368 -185 378 -196 q 358 -165 358 -174 q 360 -150 358 -156 q 368 -139 363 -144 l 496 11 l 560 11 l 510 -54 q 517 -83 494 -75 q 579 -126 553 -97 q 606 -199 606 -154 q 572 -289 606 -247 q 490 -356 538 -331 q 397 -382 442 -382 z "},"Ɓ":{"ha":1014,"x_min":-1,"x_max":972,"o":"m 199 -7 q 177 -1 185 -7 q 169 14 169 6 q 200 43 169 35 q 267 72 247 56 q 288 133 288 89 l 288 781 q 275 826 288 810 q 233 842 263 842 q 143 819 175 842 q 111 754 111 796 q 119 724 111 736 q 138 704 128 713 q 160 684 150 694 q 169 658 169 674 q 153 622 169 640 q 115 590 136 603 q 82 578 94 578 q 43 597 63 578 q 11 645 24 615 q -1 706 -1 675 q 46 824 -1 779 q 179 889 93 869 q 381 907 265 908 q 447 909 417 907 q 512 913 478 911 q 593 915 546 915 q 770 894 697 915 q 882 828 843 874 q 921 706 921 782 q 901 625 921 663 q 850 561 881 588 q 803 529 828 542 q 750 508 779 517 q 744 501 744 507 q 750 494 744 496 q 824 474 786 488 q 897 435 863 460 q 951 371 931 411 q 972 269 972 331 q 948 147 972 192 q 889 77 924 101 q 825 39 854 53 q 722 6 779 17 q 586 -6 664 -6 q 492 -3 539 -6 q 394 0 446 0 q 331 -1 365 0 q 262 -5 296 -3 q 199 -7 228 -7 m 586 71 q 663 96 628 71 q 720 163 699 121 q 742 260 742 206 q 729 339 742 307 q 701 390 717 371 q 672 419 685 410 q 633 440 661 429 q 565 450 606 450 q 522 438 543 450 q 501 404 501 426 l 501 160 q 524 92 501 114 q 586 71 546 71 m 557 513 q 617 519 588 513 q 672 550 646 526 q 700 590 683 560 q 717 676 717 621 q 701 774 717 735 q 654 832 686 813 q 574 851 622 851 q 518 837 535 851 q 501 793 501 822 l 501 561 q 521 523 501 533 q 557 513 540 513 z "},"Ƃ":{"ha":876,"x_min":29,"x_max":822,"o":"m 61 -7 q 40 -1 47 -7 q 32 14 32 6 q 63 43 32 35 q 131 72 110 56 q 151 133 151 89 l 151 765 q 133 828 151 810 q 58 860 114 847 q 29 889 29 867 q 38 904 29 899 q 57 910 47 910 q 124 908 89 910 q 193 905 158 907 q 256 903 228 903 l 647 903 q 679 906 661 903 q 710 910 697 910 q 733 904 725 910 q 740 889 740 899 q 746 789 743 839 q 749 703 749 739 q 743 682 749 689 q 731 675 738 675 q 713 682 721 675 q 700 700 704 689 q 672 778 686 744 q 634 829 658 811 q 560 847 610 847 l 436 847 q 384 826 404 847 q 364 750 364 806 l 364 565 q 374 526 364 539 q 406 513 385 513 q 411 513 408 513 q 419 514 414 513 q 469 522 438 518 q 539 526 500 526 q 746 460 669 526 q 822 275 822 394 q 797 150 822 196 q 739 81 772 104 q 681 42 706 57 q 583 6 638 17 q 458 -6 529 -6 q 429 -4 450 -6 q 367 -1 408 -3 q 251 1 326 1 q 190 -1 224 1 q 124 -5 157 -3 q 61 -7 90 -7 m 439 75 q 513 100 478 75 q 570 169 547 125 q 593 269 593 213 q 581 352 593 319 q 551 405 568 385 q 519 435 533 425 q 481 454 507 443 q 418 465 456 465 q 378 455 393 465 q 364 419 364 444 l 364 163 q 384 97 364 119 q 439 75 404 75 z "},"Ƅ":{"ha":838,"x_min":19,"x_max":810,"o":"m 49 -7 q 27 -1 35 -7 q 19 14 19 6 q 50 43 19 35 q 117 72 97 56 q 138 133 138 89 l 138 658 q 119 736 138 704 q 61 789 100 768 q 29 825 29 807 q 39 842 29 835 q 67 853 49 850 q 188 879 133 863 q 278 910 242 896 q 328 924 315 924 q 353 915 350 924 q 357 886 357 907 q 356 849 357 874 q 352 801 354 824 q 350 765 350 778 l 350 572 q 361 533 350 546 q 393 519 372 519 q 399 519 396 519 q 406 521 401 519 q 456 529 425 525 q 526 533 488 533 q 732 465 654 533 q 810 276 810 396 q 763 118 810 181 q 633 25 715 56 q 446 -6 551 -6 q 417 -4 438 -6 q 355 -1 396 -3 q 239 1 314 1 q 178 -1 211 1 q 111 -5 144 -3 q 49 -7 78 -7 m 426 74 q 500 98 465 74 q 557 165 535 122 q 579 265 579 208 q 569 338 579 307 q 542 390 558 368 q 507 425 526 411 q 468 444 494 433 q 406 454 442 454 q 367 445 383 454 q 351 411 351 436 l 351 158 q 372 96 351 118 q 426 74 392 74 z "},"Ɔ":{"ha":985,"x_min":71,"x_max":944,"o":"m 424 922 q 626 890 531 922 q 792 797 721 857 q 904 651 864 736 q 944 464 944 567 q 906 281 944 368 q 794 127 868 194 q 617 20 721 60 q 383 -19 514 -19 q 294 -13 339 -19 q 207 5 249 -7 q 129 28 165 17 q 108 42 117 33 q 97 68 100 51 q 89 157 92 114 q 86 235 86 200 q 97 256 86 250 q 122 256 108 261 q 140 235 135 251 q 164 171 150 203 q 203 115 178 139 q 281 69 232 88 q 399 51 329 51 q 528 82 469 51 q 626 165 586 113 q 689 285 667 218 q 711 424 711 351 q 692 594 711 515 q 632 729 672 672 q 533 818 592 786 q 397 850 475 850 q 230 807 293 850 q 122 672 167 764 q 91 649 111 647 q 71 672 71 650 q 75 717 71 692 q 85 771 79 742 q 101 831 92 800 q 116 857 107 847 q 139 872 125 867 q 264 908 192 894 q 424 922 336 922 z "},"Ƈ":{"ha":1038,"x_min":40,"x_max":1124,"o":"m 547 -19 q 349 14 442 -19 q 188 108 257 47 q 79 254 118 169 q 40 439 40 339 q 78 622 40 535 q 187 776 115 708 q 361 883 258 843 q 592 922 464 922 q 663 917 628 922 q 731 905 699 913 q 789 890 763 897 q 804 889 794 889 q 815 896 814 889 q 879 980 833 953 q 975 1007 925 1007 q 1091 980 1058 1007 q 1124 919 1124 953 q 1105 869 1124 890 q 1061 847 1086 847 q 1017 859 1033 847 q 990 888 1001 871 q 967 924 978 907 q 933 940 956 940 q 894 924 908 940 q 874 881 879 907 q 868 825 868 854 q 872 753 868 794 q 876 668 876 713 q 864 647 876 653 q 838 647 851 642 q 818 667 824 651 q 797 731 810 700 q 765 783 785 763 q 724 816 750 800 q 662 842 699 832 q 576 851 625 851 q 448 821 504 851 q 353 738 392 790 q 294 618 314 685 q 274 479 274 551 q 292 309 274 388 q 349 174 311 231 q 443 85 386 117 q 578 53 500 53 q 694 74 646 53 q 775 134 742 94 q 833 231 808 174 q 853 251 840 247 q 878 251 867 256 q 890 232 890 246 q 886 185 890 213 q 875 128 882 158 q 858 68 868 97 q 843 45 854 54 q 818 29 832 36 q 744 2 786 13 q 653 -14 703 -8 q 547 -19 604 -19 z "}}}
